<svg xmlns="http://www.w3.org/2000/svg" xmlns:xlink="http://www.w3.org/1999/xlink" width="363.141" height="218.742" viewBox="0 0 363.141 218.742"><defs><linearGradient id="a" x1="0.5" y1="0.103" x2="0.5" y2="1.202" gradientUnits="objectBoundingBox"><stop offset="0" stop-color="#9ec8ff"/><stop offset="1" stop-color="#e7f3fe"/></linearGradient><clipPath id="b"><path d="M385.317,868.04a14.517,14.517,0,1,0,14.517,14.517A14.517,14.517,0,0,0,385.317,868.04Zm0,22.206a7.69,7.69,0,1,1,7.69-7.69A7.691,7.691,0,0,1,385.317,890.246Z" transform="translate(-370.8 -868.04)"/></clipPath></defs><path d="M1437.811,252.7c14.787-15.374-57.706-68.874-117.572-73.752-55.116-4.491-127.933,17.249-54,49.39C1336.677,258.961,1430.085,260.731,1437.811,252.7Z" transform="translate(-1134.456 -178.359)" fill="#e7f3fe"/><path d="M264.943,638.771c34.526-43.679,107.03,2.456,169.067,13.663s162.946-6.6,162.693,42.555c-.269,52.405-22.647,81.889-145.388,95.97S272.38,761.645,256.332,715.445C243.839,679.481,255.716,650.445,264.943,638.771Z" transform="translate(-250.934 -575.219)" fill="#e7f3fe"/><g transform="translate(223.062 119.342)"><path d="M2464.229,1347.71c-5.067,10.287-11.42,38.395-13.153,39.935s-11.744,7.509-13.477,10.4-.962,1.925-.192,2.118,44.281.385,44.281.385-5.006-29.841-5.584-30.034S2464.229,1347.71,2464.229,1347.71Z" transform="translate(-2436.551 -1347.709)" fill="#a2dff2"/><path d="M2637.15,1400.4c7.991.056,16.423.1,21.066.123l-6.355-38.01c-3.391-6.573-7.506-14.808-7.506-14.808-.638,1.3-1.3,2.877-1.966,4.652-.659,28.548,3.453,36.551.364,41.637A20.017,20.017,0,0,1,2637.15,1400.4Z" transform="translate(-2616.677 -1347.7)" fill="#96cfe0"/></g><g transform="translate(198.919 79.393)"><path d="M2733.868,1226.06c7.227,6.671,23.312,13,23.312,13s2.444,22.582.777,35.366-.741,15.38-.741,15.38l-34.737.3s-2.885-6.474-11.033-25.682c-5.189-12.23-4.262-25.943-4.262-25.943l20.2-9.08Z" transform="translate(-2655.364 -1198.526)" fill="#a2dff2"/><path d="M2837.681,1409.8h33.169s-.927-2.594.741-15.38c1.374-10.528-.042-27.7-.584-33.433l-3.017-1.293c-7.573,2.182-11.937,13.477-13.221,24.516-.858,7.386-13.095,14.657-21.1,18.66A65.477,65.477,0,0,0,2837.681,1409.8Z" transform="translate(-2768.997 -1318.517)" fill="#96cfe0"/><path d="M2914.48,1274.535s.311,9.536,1.937,9.434,11.08-12.091,11.08-12.091l-1.607-.768Z" transform="translate(-2841.56 -1238.978)" fill="#96cfe0"/><path d="M2842.363,1294.444s-2.055,8.772-3.075,8.568-2.4-9.122-2.4-9.122Z" transform="translate(-2771.889 -1259.433)" fill="#96cfe0"/><path d="M2851.9,1288.61l2.827.306,1.088,3.368s-2.486,2.911-2.537,4.083.547,5.561.58,9.542-1.43,19.824-.766,29.531l.664,9.706-5.683.222s-.306-10.677,0-22.108,3.56-26.891,3.56-26.891l-1.284-3.93Z" transform="translate(-2781.808 -1254.692)" fill="#f37168"/><path d="M2779.259,998.96c-4,8.9.8,17.154.655,16.806s6.052-15.035,6.052-15.035Z" transform="translate(-2718.707 -994.603)" fill="#2e5b9a"/><path d="M2866.781,1063.48l5.07,18.535a1.682,1.682,0,0,1-.32,1.5c-1.189,1.465-2.883,4.478-6.3,5.446a8.515,8.515,0,0,1-2.146.241,1.448,1.448,0,0,1-1.429-1.172l-3.4-17.58Z" transform="translate(-2791.078 -1052.538)" fill="#f09959"/><path d="M2865.821,1078.66l-1.854.759-5.7,4.662,2.187,11.143.872,4.443C2866.515,1096.433,2868.417,1091.157,2865.821,1078.66Z" transform="translate(-2791.087 -1066.169)" fill="#e38540"/><path d="M2780.784,1024.133c0,6.2-3.733,11.083-8.347,10.908s-7.446-3.665-8.363-11.542c-.72-6.18,1.064-13.371,5.679-13.2S2780.78,1017.934,2780.784,1024.133Z" transform="translate(-2706.365 -1004.785)" fill="#f09959"/><path d="M2894.165,1352.034c6.71,1.516,7.958,15.146,10.139,29.521.251,1.655,1.54,15.659,1.54,15.659a4.285,4.285,0,0,1-2.439,3.851c-2.193,1.1-3.08,1.926-15.788,2.054-12.2.123-27.939-.385-27.939-.385s-.14-4.541,1.112-6.76c1.884-3.337,21.179-8.129,22.976-8.386.256-3.594-1.773-16.6,1.027-25.415,1.926-6.064,3.994-9.242,6.588-10.072A5.235,5.235,0,0,1,2894.165,1352.034Z" transform="translate(-2792.348 -1311.503)" fill="#a2dff2"/><path d="M2927.34,1431.2c6.017.091,14.273.177,21.039.108,12.707-.129,13.594-.958,15.788-2.054a4.512,4.512,0,0,0,2.7-3.466s-1.3-14.9-1.54-16.558c-1.412-9.626-2.937-20.642-6.488-25.96a72.564,72.564,0,0,1,3.934,21.562,21.473,21.473,0,0,1-.655,5.938,3.294,3.294,0,0,1-4.364,2.438c-4.621-1.284-10.4,1.411-10.4,1.411a14.472,14.472,0,0,1,8.472-.129c4.108,1.411,12.579,10.782,3.337,14.247C2956.332,1429.8,2939.393,1430.667,2927.34,1431.2Z" transform="translate(-2853.107 -1339.691)" fill="#96cfe0"/><path d="M2865.946,1762.54a6.363,6.363,0,0,1,5.219-2.91c3.509,0,3.251,5.734,2.738,7.616a2.849,2.849,0,0,1-2.567,1.968l-7.067-.179Z" transform="translate(-2796.474 -1677.64)" fill="#96cfe0"/><path d="M2199.99,1828.4h58.958a2.954,2.954,0,0,0-2.954-2.955h-56v2.955Z" transform="translate(-2199.99 -1736.742)" fill="#75a1de"/><path d="M2698.831,1751.044c-7.106-3.269-9.115-2.438-10.731-3.063-3.991-1.543-5.1-.607-8.363,6.414-.65,1.4.892,1.622,2.427,1.753s3.665-2.693,4.291-2.983a8.383,8.383,0,0,1,2.26-.323s-.511-.044-1.409,1.426-1.887,1.986-.693,2.088,1.532-1.844,3.712-1.229,1.734,2.691,7.293,2.512c5.273-.17,9.213.357,9.407-2.975.183-3.162.667-4.709-2.277-5.519C2702.481,1748.522,2698.831,1751.044,2698.831,1751.044Z" transform="translate(-2630.637 -1666.607)" fill="#f09959"/><path d="M2868.94,1767.993c4.949-.136,2.989,5.848,2.435,6.316s2.713.412,2.713.412a5.941,5.941,0,0,0,.693-5.243,4.8,4.8,0,0,0-3.585-3.269l-2.276,1.008Z" transform="translate(-2800.65 -1683.548)" fill="#a86b48"/><path d="M2868.55,1760.947c.04.761-1.171,1.443-2.7,1.523s-2.806-.474-2.845-1.234,1.171-1.443,2.7-1.523S2868.51,1760.186,2868.55,1760.947Z" transform="translate(-2795.334 -1677.707)" fill="#2e5b9a"/><path d="M2869.449,1758.955c.036.68-1.046,1.289-2.415,1.36s-2.507-.423-2.542-1.1,1.046-1.289,2.414-1.36S2869.415,1758.275,2869.449,1758.955Z" transform="translate(-2796.674 -1676.037)" fill="#3e6bab"/><path d="M2872.973,1759.761c.025.49-.753.928-1.738.979s-1.8-.3-1.83-.794.753-.927,1.738-.979S2872.949,1759.272,2872.973,1759.761Z" transform="translate(-2801.084 -1677.04)" fill="#f0ceb4"/><path d="M2452.444,1777.306c3.654-2.03,8.12-1.353,9.744.677s1.895,3.383-1.759,3.383-10.962.271-12.18.136S2452.444,1777.306,2452.444,1777.306Z" transform="translate(-2422.752 -1692.411)" fill="#f09959"/><path d="M2537.46,1779.233c3.925-.947,6.606,1.337,9.879,3.519,2.843,1.894,3.413,3.736.271,2.166a23.716,23.716,0,0,0-7.309-2.571Z" transform="translate(-2503.018 -1695.045)" fill="#f09959"/><path d="M2403.786,1793.93c-1.982,0-3.712-.632-5.111-.515s-5.83,4.664-5.13,5.013a1.478,1.478,0,0,0,.163.069,2.388,2.388,0,0,0,2.832-.993c.627-1.006,1.647-2.177,2.834-1.758a12.61,12.61,0,0,0,4.062.632Z" transform="translate(-2373.724 -1707.963)" fill="#f09959"/><path d="M2491.8,1769.149c-2.03-.812,1.218-7.579,2.3-7.579s5.143,3.249,5.143,3.249-.955.539-4.2-.541c-.812-.27-1.489,4.33-2.436,4.872S2491.8,1769.149,2491.8,1769.149Z" transform="translate(-2461.43 -1679.381)" fill="#f7a96f"/><path d="M2838.52,1248.95l.951,5.072-2.78,6.018-3.021-6.379Z" transform="translate(-2768.997 -1219.079)" fill="#a2dff2"/><path d="M2726.72,978.488c1.169,7.362,3.894,8.139,5.824,8.812s9.149-2.361,9.918-4.377c1.969-5.158-1.208-9.042-.564-9.094s1.555,1.647,3.635,3.684c.194.19,1.532,1.44,1.5.948-.447-6.7,2.593-9.371.553-15.858-1.5-4.781-4.538-3.82-4.538-3.82s-2.76-3.724-8.911-2.106c-4.121,1.084-7.545,3.4-11.648,5.3s7.1,9.93,12.033,5.331,3.621,3.767,4.615,4.214.439,0,1.586,3.949-3.474,7.514-4.873,8.129c-4.475,1.965-5.4,1.338-6.751-.235A20.509,20.509,0,0,1,2726.72,978.488Z" transform="translate(-2668.367 -956.27)" fill="#2e5b9a"/><path d="M2920.53,1082.762c-.2,1.946-1.286,3.381-2.437,3.206s-1.46-1.67-1.729-3.84c-.243-1.956,1.287-3.381,2.437-3.206S2920.725,1080.817,2920.53,1082.762Z" transform="translate(-2843.228 -1066.39)" fill="#f09959"/><path d="M2919.033,1230.1l5.042,4.7s-9.7,9.134-10.54,9.032-2.265-7.756-2.265-7.756Z" transform="translate(-2838.677 -1202.153)" fill="#a2dff2"/><path d="M2872.2,1287.494c-.93.437-.632,1.765-1.026,2.226s-.629.586-.948-.057-.267-2.1-.513-2.169-2.118,5.778-2.118,5.778,1.375-3.742,1.688-3.334.064.788,1.2.856a8.376,8.376,0,0,0,2.586-.412Z" transform="translate(-2799.464 -1253.689)" fill="#a2dff2"/></g><g transform="translate(182.292 140.225)"><path d="M2080.564,1583.159h31.49l-13.373-29.419a2.4,2.4,0,0,0-2.189-1.409h-28.483a.94.94,0,0,0-.855,1.328Z" transform="translate(-2064.007 -1552.329)" fill="#a8ceff"/><path d="M2038.009,1552.32h29.063a2.4,2.4,0,0,1,2.189,1.409l13.373,29.419h-32.07l-13.41-29.5A.939.939,0,0,1,2038.009,1552.32Z" transform="translate(-2037.069 -1552.32)" fill="#75a1de"/><path d="M2187.463,1674.286c1.1,2.284,2.891,3.7,3.995,3.171s1.105-2.817,0-5.1-2.891-3.7-3.994-3.171S2186.361,1672,2187.463,1674.286Z" transform="translate(-2171.372 -1657.157)" fill="#6695d6"/></g><g transform="translate(55.658 82.021)"><g transform="translate(27.341 1.618)"><path d="M1067.044,1032.739c-.49,0-.972-.025-1.444-.048-.391-.019-.8-.04-1.185-.046a.249.249,0,0,1,0-.5c.4.005.812.026,1.207.046,2.957.149,6.015.305,8.994-5.423a26.551,26.551,0,0,0,2.411-12.764,21.459,21.459,0,0,0-7.6-15.692.249.249,0,0,1,.318-.382,21.944,21.944,0,0,1,7.778,16.047,27.085,27.085,0,0,1-2.467,13.02C1072.43,1032.055,1069.633,1032.739,1067.044,1032.739Z" transform="translate(-1064.17 -997.876)" fill="#303c60"/></g><g transform="translate(28.702 4.797)"><path d="M1078.09,1059.526c-.115,0-.231,0-.347-.008a.248.248,0,0,1,.024-.5c.107.005.214.008.322.008,3.085,0,5.936-2.185,7.861-6.046,3.165-6.348,3.472-16.762-2.193-23.56a.248.248,0,1,1,.382-.318c5.8,6.959,5.491,17.611,2.255,24.1C1084.381,1057.242,1081.37,1059.526,1078.09,1059.526Z" transform="translate(-1077.507 -1029.016)" fill="#303c60"/></g><path d="M898.943,985.609c8.929-6.93,17.314-3.257,20.318,6.124,2.806,8.761-.79,27.588-14.11,24.307-13.779-3.393-14.927-7.613-14.823-13.743A21.758,21.758,0,0,1,898.943,985.609Z" transform="translate(-880.725 -982.018)" fill="#303c60"/><path d="M809.859,1289.45l-12.762,4.762s3.572,25.923,3.878,35.823-4.695,18.488-4.695,18.488h33.373s4.593-26.959,3.674-36.45-7.246-19.326-7.552-19.563-7.961-1.972-7.961-1.972Z" transform="translate(-796.28 -1258.074)" fill="#a2dff2"/><path d="M1091.8,1602.11s1.285,12.043,1.817,12.655,20.126,10.2,20.126,10.2l-28.475,1.941Z" transform="translate(-1055.776 -1538.824)" fill="#d54a41"/><path d="M1085.27,1319.44c3.164.069,4.022,5.242,4.767,9.085S1085.27,1319.44,1085.27,1319.44Z" transform="translate(-1055.776 -1285.003)" fill="#d54a41"/><path d="M827.539,1312.8c-1.735-6.226-11.057-23.562-11.057-23.562l-12.212,4.783s2.8,20.317,3.654,31.846l4.639,22.464h14.976S829.274,1319.028,827.539,1312.8Z" transform="translate(-803.455 -1257.885)" fill="#f37168"/><path d="M863.4,1733.271l13.765-3.161-1.123,11.737Z" transform="translate(-856.55 -1653.76)" fill="#d54a41"/><path d="M810.013,1389.037c-2.245-3.04-4.442-6.385-2.3-13.37s2.347-9.491,1.6-15.819-4.15-16.432-10.784-16.738c0,0-.218,2.213-.573,5.745,1.078,8.343,2.813,22.6,3.022,29.364.306,9.9-4.695,18.488-4.695,18.488l27.148.6S812.258,1392.077,810.013,1389.037Z" transform="translate(-796.28 -1306.257)" fill="#d54a41"/><path d="M1044.908,1326.736c-.919-9.492-7.246-19.326-7.552-19.563-.189-.147-3.184-.866-5.446-1.393.666,1.569,7.677,18.278,7.385,25.161-.306,7.225.009,32.245.009,32.245h1.93S1045.827,1336.227,1044.908,1326.736Z" transform="translate(-1007.862 -1272.737)" fill="#f37168"/></g><path d="M662.325,1894.964c-.343-.167-.64-.3-.921-.454a2.133,2.133,0,0,1-.687-.613c-.186-.257-.352-.529-.552-.833a3.061,3.061,0,0,1-2.234,1.864c.22.09.361.146.5.205a2.531,2.531,0,0,1,1.448,3.1,2.5,2.5,0,0,1-2.806,1.757,2.54,2.54,0,0,1-.578-4.863c.127-.051.255-.1.425-.164-.33-.145-.624-.259-.9-.4a2.163,2.163,0,0,1-.712-.585c-.2-.252-.367-.528-.559-.808-.137.062-.153.212-.228.317-.089.126-.169.259-.265.379a2.685,2.685,0,0,1-.286.3,2.933,2.933,0,0,1-.327.258,2.685,2.685,0,0,1-.359.21,4.554,4.554,0,0,1-.432.167c-.13.046-.262.086-.446.146.179.057.309.1.438.14a2.52,2.52,0,1,1-1.551-.009c.116-.038.236-.068.426-.122a3.932,3.932,0,0,1-1.508-.715,3.046,3.046,0,0,1-.875-1.321c-.183.03-.172.163-.213.251a2.829,2.829,0,0,1-1.954,1.631,2.672,2.672,0,0,1-2.349-.539,2.712,2.712,0,0,1-.843-1.087c-.041-.092-.034-.223-.188-.259a2.781,2.781,0,0,1-5.379-.406c-.134.063-.129.192-.16.3a2.706,2.706,0,0,1-5.053.411c-.095-.209-.166-.43-.249-.649-.153.046-.14.192-.175.3a2.612,2.612,0,0,1-.607,1.028,2.527,2.527,0,0,1-2.759.7,2.5,2.5,0,0,1-1.808-2.293,2.559,2.559,0,0,1,1.313-2.526c.1-.066.212-.124.318-.187.011-.006.014-.024.036-.065-.1-.132-.284-.149-.417-.24s-.295-.168-.433-.267a2.672,2.672,0,0,1-.35-.3,3.748,3.748,0,0,1-.327-.39c-.1-.136-.186-.282-.3-.452-.054.047-.108.073-.134.117a3.032,3.032,0,0,1-1.815,1.42.587.587,0,0,0-.1.062c.093.137.25.156.377.211a2.58,2.58,0,0,1,1.249,1.128,2.61,2.61,0,0,1-3.1,3.748,2.594,2.594,0,0,1-1.782-2.412,2.567,2.567,0,0,1,1.567-2.462c.125-.056.249-.114.427-.2a4.661,4.661,0,0,1-1.327-.708,3.933,3.933,0,0,1-.823-1.144c-.131-.021-.134.081-.176.135a1.249,1.249,0,0,0-.088.162,2.832,2.832,0,0,1-4.684.41,4.183,4.183,0,0,1-.366-.587c-.054-.09-.1-.186-.143-.269-.136-.005-.122.1-.159.155s-.054.11-.083.165a2.667,2.667,0,0,1-1.1,1.156,2.751,2.751,0,0,1-4-1.673c-.036-.134-.064-.268-.1-.406-.152.036-.12.165-.143.26a2.675,2.675,0,0,1-4.236,1.538,2.524,2.524,0,0,1-1-2.537,2.562,2.562,0,0,1,1.409-1.95c.095-.05.191-.1.285-.153a.138.138,0,0,0,.03-.035,3.679,3.679,0,0,1-1.876-1.672c-.153.112-.2.3-.325.433s-.239.285-.375.409a2.878,2.878,0,0,1-.443.333,3.551,3.551,0,0,1-.5.245c-.163.067-.336.113-.592.2.223.085.359.138.5.189a2.594,2.594,0,0,1,1.041,4.156,2.6,2.6,0,0,1-2.79.724,2.587,2.587,0,0,1-.229-4.8c.193-.086.4-.153.621-.24-.083-.128-.2-.105-.292-.143s-.205-.069-.305-.109a2.86,2.86,0,0,1-.295-.134,2.6,2.6,0,0,1-.275-.172,3.563,3.563,0,0,1-.289-.232,2.847,2.847,0,0,1-.229-.23,2.794,2.794,0,0,1-.2-.253,3.206,3.206,0,0,1-.167-.278c-.051-.095-.1-.193-.143-.291s-.087-.182-.152-.321c-.158.218-.192.44-.312.611a4.485,4.485,0,0,1-.388.518,2.8,2.8,0,0,1-.493.417,2.654,2.654,0,0,1-.579.288,2.764,2.764,0,0,1-.632.134,3.166,3.166,0,0,1-.646-.005,2.613,2.613,0,0,1-1.559-.745,3.219,3.219,0,0,1-.828-1.536c-.065.182-.114.308-.156.436a2.647,2.647,0,1,1-3.693-3.231c.11-.055.219-.112.327-.172.009-.005.01-.026.028-.073-.151-.11-.345-.157-.509-.258a3.98,3.98,0,0,1-.46-.308,3.285,3.285,0,0,1-.424-.424,2.974,2.974,0,0,1-.305-.462c-.1-.175-.169-.36-.263-.561a1.056,1.056,0,0,0-.236.4,2.813,2.813,0,0,1-1.583,1.411,2.72,2.72,0,0,1-3.064-.933,2.668,2.668,0,0,1-.282-2.883,1.145,1.145,0,0,1,.092-.16c.026-.038.058-.071.105-.129a14.121,14.121,0,0,1,1.5-.026c.494-.008.989,0,1.483,0h1.544c.141.253.273.492.423.764.132-.267.247-.5.363-.735.109-.011.2-.028.291-.028q2.131,0,4.263,0c.252,0,.252.005.493.177a.587.587,0,0,1,.492-.177c.124,0,.247,0,.371,0H752.682a.585.585,0,0,1,.492.175c.252-.167.252-.173.452-.173q2.247,0,4.495,0a1.382,1.382,0,0,1,.163.022l.318.51.339-.523H763.5a2.524,2.524,0,0,1,.482,1.162c.122.027.114-.056.123-.106a2.629,2.629,0,0,1,.432-1.03,5.776,5.776,0,0,1,1.1-.037c.355-.008.71,0,1.066,0h2.149a2.588,2.588,0,0,1,.186,2.858,2.679,2.679,0,0,1-2.572,1.323,2.758,2.758,0,0,1-2.406-2.289c-.127.021-.11.13-.128.213a2.678,2.678,0,0,1-.9,1.527,2.6,2.6,0,0,1-.832.493c-.186.065-.372.126-.626.212.214.077.369.135.526.189a2.379,2.379,0,0,1,1.234.934,2.466,2.466,0,0,1,.132,2.755,2.432,2.432,0,0,1-2.386,1.3,2.457,2.457,0,0,1-2.239-1.612,2.555,2.555,0,0,1,1.493-3.372c.156-.053.309-.115.493-.184a3.337,3.337,0,0,1-2.234-1.772,3.617,3.617,0,0,1-1.877,1.805c.1.061.188.117.279.164a2.622,2.622,0,0,1,1.49,2.147,2.67,2.67,0,0,1-5.177,1.141c-.059-.158-.108-.319-.181-.536a2.765,2.765,0,0,0-.114.284,2.859,2.859,0,0,1-.674,1.251,2.765,2.765,0,0,1-4.448-.572c-.078-.144-.151-.29-.254-.487a4.083,4.083,0,0,1-.858,1.3,3.425,3.425,0,0,1-1.319.7c-.015.109.047.127.1.147a3.085,3.085,0,0,1,.822.419,2.61,2.61,0,0,1-1.513,4.7,2.613,2.613,0,0,1-1.068-5.02c.128-.052.256-.1.377-.15.022-.093-.03-.117-.091-.136a3.194,3.194,0,0,1-.921-.425,2.9,2.9,0,0,1-.769-.793c-.057-.086-.125-.165-.206-.268a4.03,4.03,0,0,1-.806.981c-.32.232-.666.43-1,.642a2.832,2.832,0,0,1,1.66,3.173,2.762,2.762,0,0,1-2.313,2.056,2.694,2.694,0,0,1-2.426-.985,2.753,2.753,0,0,1-.551-1.193c-.192.056-.159.189-.19.282a2.773,2.773,0,0,1-5.114.5c-.062-.12-.12-.243-.179-.361-.208.322-.392.643-.61.938a2.078,2.078,0,0,1-.826.659c-.336.149-.691.254-1.058.387.046.082.143.064.215.083a2.669,2.669,0,0,1,1.646,1.117,2.557,2.557,0,1,1-4.422,2.551,2.537,2.537,0,0,1,.991-3.346,7.828,7.828,0,0,1,1-.412.836.836,0,0,0-.174-.076,2.877,2.877,0,0,1-2.108-1.579,1.136,1.136,0,0,0-.133-.162,4.6,4.6,0,0,1-.826,1.133,3.819,3.819,0,0,1-1.222.672c.051.151.18.172.282.214a2.4,2.4,0,0,1,.9.64,2.511,2.511,0,0,1,.487,2.759,2.612,2.612,0,0,1-4.764.169,2.594,2.594,0,0,1,1.228-3.527c.125-.057.246-.12.409-.2a1.735,1.735,0,0,0-.459-.229c-.134-.077-.28-.132-.409-.215a3.378,3.378,0,0,1-.406-.306,2.951,2.951,0,0,1-.318-.336c-.107-.128-.2-.267-.322-.427-.182.132-.239.335-.37.476a5.717,5.717,0,0,1-.422.429,3.385,3.385,0,0,1-.452.321c-.167.1-.345.187-.5.271,0,.131.081.155.145.188a2.619,2.619,0,0,1,1.489,2.2,2.485,2.485,0,0,1-.6,1.891,2.668,2.668,0,0,1-4.682-1.208,2.65,2.65,0,0,1,1.284-2.8c.114-.067.267-.083.339-.255-.213-.115-.435-.216-.636-.348a3.627,3.627,0,0,1-.54-.433c-.174-.172-.321-.37-.492-.572a9.658,9.658,0,0,1-.75.811,8.989,8.989,0,0,1-.9.617c.084.065.159.134.243.188a2.671,2.671,0,0,1,1.175,1.551,2.575,2.575,0,0,1-.806,2.773,2.69,2.69,0,0,1-4.306-1c-.067-.167-.128-.337-.2-.532a.989.989,0,0,0-.2.438,2.686,2.686,0,0,1-2.312,1.814,2.74,2.74,0,0,1-2.7-1.424c-.08-.149-.15-.3-.245-.493-.061.105-.111.175-.145.251a2.814,2.814,0,0,1-2.208,1.713,2.828,2.828,0,0,1-2.939-1.643c-.043-.1-.089-.192-.154-.334a1.533,1.533,0,0,0-.133.207,2.886,2.886,0,0,1-1.971,1.747c-.088.025-.174.059-.308.1.167.055.293.095.417.138a2.529,2.529,0,1,1-1.547-.012c.116-.038.236-.069.379-.111-.339-.13-.657-.232-.956-.373a2.157,2.157,0,0,1-.761-.595c-.21-.26-.394-.542-.592-.819a3.386,3.386,0,0,1-2.13,1.79c.174.076.328.14.479.209a2.55,2.55,0,1,1-2.15,0c.15-.07.3-.136.477-.214a2.13,2.13,0,0,0-4.218.005c.142.069.262.131.384.187a2.511,2.511,0,0,1,1.39,1.588,2.565,2.565,0,1,1-3.707-1.492c.175-.095.357-.173.582-.282-.212-.133-.422-.172-.6-.276a4.563,4.563,0,0,1-.582-.376,3.116,3.116,0,0,1-.448-.467c-.134-.165-.243-.351-.352-.512-.106-.032-.135.035-.161.084a3.059,3.059,0,0,1-1.687,1.441c-.056.02-.108.05-.208.1.156.079.273.144.394.2a2.5,2.5,0,0,1,1.223,1.215,2.572,2.572,0,1,1-3.5-1.179,1.221,1.221,0,0,0,.455-.255,4.175,4.175,0,0,1-1.218-.685,5.405,5.405,0,0,1-.82-1.089,4.279,4.279,0,0,1-.812,1.105,3.819,3.819,0,0,1-1.171.651c.048.186.219.173.33.226a2.513,2.513,0,0,1,1.284,1.34,2.57,2.57,0,1,1-4.938,1.063,2.45,2.45,0,0,1,1.375-2.346c.146-.08.3-.144.494-.235a7.741,7.741,0,0,1-.844-.427,3.368,3.368,0,0,1-.661-.573,7.888,7.888,0,0,1-.543-.779c-.152.107-.177.3-.284.439s-.218.3-.343.436a3.04,3.04,0,0,1-.417.364,3.666,3.666,0,0,1-.476.285c-.16.083-.329.148-.544.243l.409.2a2.5,2.5,0,0,1,1.456,2.058,2.567,2.567,0,1,1-5.116.409,2.448,2.448,0,0,1,1.3-2.386c.157-.092.327-.164.5-.248-.016-.131-.133-.116-.2-.155-.093-.053-.2-.086-.3-.132a2.457,2.457,0,0,1-.246-.129,2.288,2.288,0,0,1-.229-.158c-.085-.066-.167-.136-.247-.209a2.537,2.537,0,0,1-.195-.2,2.239,2.239,0,0,1-.176-.216c-.062-.088-.115-.183-.174-.273s-.1-.152-.167-.252c-.165.119-.22.3-.327.439a3.909,3.909,0,0,1-.327.39,3.361,3.361,0,0,1-.427.354,3.157,3.157,0,0,1-.44.253c-.166.08-.341.142-.513.212.029.146.157.133.246.17a2.506,2.506,0,0,1,1.3,1.136,2.464,2.464,0,0,1-.06,2.6,2.407,2.407,0,0,1-2.3,1.2,2.534,2.534,0,0,1-2.367-3.063,2.469,2.469,0,0,1,1.368-1.77C661.967,1895.116,662.123,1895.053,662.325,1894.964Zm89.249-16.426a3.42,3.42,0,0,1,1.557,2.125c.073-.205.131-.394.209-.574a2.823,2.823,0,0,1,.64-.951,4.111,4.111,0,0,1,.437-.342c.153-.114.367-.141.5-.3a8.705,8.705,0,0,1-.979-.644,8.6,8.6,0,0,1-.779-.87c-.142.207-.264.418-.419.6a3.811,3.811,0,0,1-.524.52C752.023,1878.262,751.807,1878.382,751.574,1878.537Zm-158.837-.037a3.227,3.227,0,0,1,1.252.8,3.491,3.491,0,0,1,.661,1.3.378.378,0,0,0,.044-.054c.022-.058.042-.115.059-.175a2.707,2.707,0,0,1,1.36-1.723c.046-.025.077-.078.112-.115a8.9,8.9,0,0,1-.9-.668,9.221,9.221,0,0,1-.728-.869A3.72,3.72,0,0,1,592.737,1878.5Zm18.285,7.793a3.291,3.291,0,0,1,1.542-2.243,9.283,9.283,0,0,1-.887-.642,8.776,8.776,0,0,1-.7-.8,8.352,8.352,0,0,1-.782.8,9.045,9.045,0,0,1-.981.6,6.572,6.572,0,0,1,.644.381,2.863,2.863,0,0,1,.537.5,3.269,3.269,0,0,1,.4.672A6.488,6.488,0,0,1,611.022,1886.294Zm21.838,1.877c-.139.166-.25.313-.375.447a3.116,3.116,0,0,1-.372.344c-.146.111-.31.2-.462.3s-.34.12-.487.284c.122.069.217.113.3.174a6.557,6.557,0,0,1,.627.465,2.437,2.437,0,0,1,.657,1.044c.041.12.028.282.191.348a.867.867,0,0,0,.057-.129,2.772,2.772,0,0,1,1.374-1.774c.044-.025.07-.081.107-.126a8.74,8.74,0,0,1-.859-.582A10.212,10.212,0,0,1,632.86,1888.171Zm103.83-2.094a3.144,3.144,0,0,1,1.752-2.073,8.309,8.309,0,0,1-.9-.555,9.7,9.7,0,0,1-.8-.792c-.144.185-.271.376-.425.54a4.746,4.746,0,0,1-.548.494c-.178.138-.378.248-.575.375A3.327,3.327,0,0,1,736.69,1886.076Zm-96.837,3.523a9.95,9.95,0,0,1-.837-.59,9.828,9.828,0,0,1-.683-.717,9.44,9.44,0,0,1-.7.7,10.193,10.193,0,0,1-.854.569.959.959,0,0,0,.141.124,2.71,2.71,0,0,1,1.36,1.779.8.8,0,0,0,.113.191c.08-.237.136-.446.22-.642a2.708,2.708,0,0,1,.289-.522,3.3,3.3,0,0,1,.429-.48C639.482,1889.867,639.66,1889.748,639.853,1889.6Zm69.537-1.258a.817.817,0,0,0-.133.115,3.555,3.555,0,0,1-1.221,1.043c-.044.022-.067.083-.1.126a3.04,3.04,0,0,1,1.355,1.842c.015.042.041.078.094.179a3.61,3.61,0,0,1,.544-1.215,4.288,4.288,0,0,1,.987-.852,9.658,9.658,0,0,1-.826-.547A9.081,9.081,0,0,1,709.39,1888.342Zm-109.283-8.04a3.722,3.722,0,0,1,1.262-1.7c-.175-.129-.352-.248-.514-.385s-.288-.279-.434-.415-.224-.357-.411-.49c-.061.069-.1.112-.141.159a3.278,3.278,0,0,1-1.126.941c-.061.031-.15.051-.135.153A3.3,3.3,0,0,1,600.107,1880.3Zm43.672,10.972c.07-.074.113-.1.128-.139a2.924,2.924,0,0,1,1.092-1.393.487.487,0,0,0,.1-.134c-.25-.175-.487-.318-.7-.495s-.411-.4-.59-.576c-.158.139-.294.263-.436.381s-.31.25-.472.367c-.145.1-.3.193-.456.293.283.255.553.478.8.727A2.671,2.671,0,0,1,643.779,1891.274Zm-27.352-8.316c-.152.153-.286.3-.433.431s-.287.23-.433.342a4.091,4.091,0,0,0-.513.335c.175.126.327.224.465.338a2.9,2.9,0,0,1,.365.349,3.593,3.593,0,0,1,.321.448c.093.15.168.31.267.5a8.609,8.609,0,0,1,.552-.885,8.374,8.374,0,0,1,.723-.719c-.227-.164-.474-.319-.69-.505S616.646,1883.182,616.427,1882.958Zm132.668-4.431a3.65,3.65,0,0,1-1.354-1.131c-.151.182-.27.339-.4.484a4.708,4.708,0,0,1-.4.385c-.149.127-.31.241-.468.361a8.708,8.708,0,0,1,.669.728,8.406,8.406,0,0,1,.488.832A3.682,3.682,0,0,1,749.1,1878.527Zm-45.144,10.03c-.219.209-.407.412-.619.589s-.44.321-.663.481a9.138,9.138,0,0,1,.727.742,7.846,7.846,0,0,1,.509.835,8.431,8.431,0,0,1,.582-.9,7.81,7.81,0,0,1,.767-.715c-.25-.166-.492-.3-.707-.475S704.145,1888.74,703.951,1888.557Zm26.082-4.442c.182.163.351.295.493.45a4.456,4.456,0,0,1,.421.544c.113.171.2.361.311.576.1-.192.161-.348.249-.491a3.454,3.454,0,0,1,.321-.448c.109-.128.247-.23.363-.351s.326-.159.4-.33c-.043-.046-.058-.077-.084-.089a3.548,3.548,0,0,1-1.084-.842.6.6,0,0,0-.158-.093A4.255,4.255,0,0,1,730.034,1884.116Zm-80.749,7.163c.119-.245.2-.445.309-.624a4.112,4.112,0,0,1,.414-.552c.14-.158.305-.292.478-.453-.234-.172-.452-.314-.648-.483s-.392-.378-.593-.575c-.208.2-.389.387-.59.55s-.439.318-.665.479A3.823,3.823,0,0,1,649.284,1891.279Zm50.431-1.644c-.236-.166-.455-.3-.654-.467s-.4-.367-.605-.562c-.207.207-.382.4-.578.573s-.406.309-.616.468a8.549,8.549,0,0,1,.684.722,9.265,9.265,0,0,1,.526.881c.114-.227.2-.439.322-.632a3.292,3.292,0,0,1,.4-.507C699.345,1889.946,699.525,1889.8,699.715,1889.635Zm-79.013-5.542a8.367,8.367,0,0,1,.674.646,9.631,9.631,0,0,1,.558.813c.155-.256.28-.5.443-.719s.383-.434.594-.669c-.2-.155-.392-.3-.574-.459s-.347-.339-.537-.528c-.2.176-.369.348-.559.5S620.9,1883.952,620.7,1884.093Zm105.134-.852-1.055.931c.144.145.281.267.4.406s.222.3.336.442.128.342.334.487a3.445,3.445,0,0,1,1.1-1.364C726.571,1883.835,726.215,1883.548,725.836,1883.241Zm-66.78,6.435a3.332,3.332,0,0,1,1.117,1.413c.17-.276.3-.52.465-.738s.384-.431.6-.666c-.193-.151-.367-.3-.552-.427s-.317-.368-.545-.478c-.18.163-.333.314-.5.45S659.28,1889.506,659.055,1889.676Zm-4.322-.932c-.21.187-.377.346-.556.492s-.361.27-.527.393c.208.224.409.415.58.632s.328.476.507.743c.159-.245.292-.487.462-.7.181-.227.4-.424.619-.657-.193-.145-.381-.275-.555-.42S654.924,1888.92,654.733,1888.744Zm38.286.048-1.057.885c.19.2.394.388.563.6s.306.457.478.72c.148-.16.2-.362.323-.513s.237-.283.353-.427.325-.227.41-.412Zm-5.505,2.276c.18-.283.334-.528.49-.771s.429-.384.583-.648c-.19-.142-.366-.264-.532-.4s-.341-.3-.515-.454c-.178.167-.338.31-.489.463s-.39.237-.54.451A3.618,3.618,0,0,1,687.514,1891.068Zm-16.4-.1c.15-.236.274-.465.432-.668s.367-.406.575-.632c-.187-.146-.357-.271-.518-.407s-.318-.289-.488-.444c-.169.154-.324.3-.488.44s-.333.263-.522.411c.194.21.383.39.54.594S670.951,1890.724,671.116,1890.973Zm6.508-1.295-1.027-.842c-.18.163-.345.3-.494.454s-.375.2-.482.4c.195.213.384.394.543.6s.285.431.447.681c.153-.235.28-.461.437-.661S677.416,1889.9,677.624,1889.678Zm-10.994.009-.969-.8-.987.805c.137.137.259.25.371.373s.216.261.319.4.146.3.312.412A4.361,4.361,0,0,1,666.63,1889.687Zm-62.174-11.063c.146.127.288.239.418.365s.223.253.34.375.168.321.319.422l.876-1.12c-.147-.129-.3-.278-.467-.4s-.267-.375-.493-.445Zm77.6,12.284c.181-.262.316-.463.454-.661s.383-.343.518-.584c-.176-.133-.331-.257-.493-.37s-.277-.327-.481-.393l-.951.785A4.239,4.239,0,0,1,682.059,1890.908Zm60.173-11.143a3.686,3.686,0,0,1,.951-1.125c-.178-.137-.331-.262-.492-.375s-.262-.3-.467-.382c-.259.319-.6.536-.844.814Zm-114.815,5.492.806-1.058-.857-.746-.86.7C626.814,1884.529,627.107,1884.882,627.417,1885.257Zm92.991-1.754-.8.691.753.958c.142-.185.268-.354.4-.519s.345-.289.451-.5C720.939,1883.921,720.688,1883.724,720.408,1883.5Zm-109.43-3.939.554-.753a4.324,4.324,0,0,0-.731-.634c-.187.2-.443.3-.569.521Zm104.6,4.649a2.7,2.7,0,0,0-.632-.513c-.122.107-.231.193-.327.29s-.247.135-.259.306c.137.18.272.363.414.542a1.37,1.37,0,0,0,.162.146Zm21.286-6.017a3.491,3.491,0,0,0-.623.622c.1.125.183.234.266.344s.157.215.255.35c.131-.157.241-.282.341-.413s.273-.237.367-.423Zm-104.639,6.015.655.763a6.651,6.651,0,0,0,.557-.71,2.687,2.687,0,0,0-.662-.506Zm6.178-.4a2.126,2.126,0,0,0-.552.507c.177.168.288.383.5.556a3.784,3.784,0,0,0,.5-.682Zm70.968,1a1.992,1.992,0,0,0,.483-.559,1.853,1.853,0,0,0-.511-.415,1.141,1.141,0,0,0-.45.393Zm-65.6-.161a1.856,1.856,0,0,0,.437-.547c-.065-.041-.13-.08-.195-.119l-.2-.121-.4.354Zm5.143-.479a.809.809,0,0,0,.357.361,1.57,1.57,0,0,0,.363-.446c-.111-.09-.215-.175-.33-.265A1.15,1.15,0,0,0,648.913,1884.171Zm-32.4-5.718-.419.361.317.357a1.013,1.013,0,0,0,.4-.483Zm87.382,5.4c-.115.1-.2.163-.272.235-.018.017-.016.056-.034.12.116.1.189.276.357.372a.72.72,0,0,0,.326-.4Zm-5.1.321a.67.67,0,0,0-.345-.334.507.507,0,0,0-.33.311l.319.364C698.623,1884.456,698.684,1884.308,698.79,1884.171Zm32.822-5.377-.359-.31a.283.283,0,0,0-.276.246c.106.112.17.273.35.357Zm-109.959-.05.217.231c.116-.139.209-.249.346-.41l-.181-.158A.642.642,0,0,0,621.654,1878.745Zm38.61,5.048c-.193.125-.333.171-.344.358l.222.2a.458.458,0,0,0,.291-.377Zm-5.562.6c.16-.087.262-.167.289-.335l-.248-.2-.279.257Zm33.11-.325-.274-.244c-.118.064-.233.11-.228.295.067.062.15.139.252.231Zm5.432.067c-.249-.31-.268-.311-.479-.031l.256.272Zm32.595-5.2c.217-.243.217-.293.044-.434-.117-.1-.156-.083-.32.128Zm-54.7,4.9c-.138.053-.243.11-.24.285.066.057.142.124.231.2l.243-.265Zm5.223.228.226.237c.255-.179.285-.233.2-.338C676.67,1883.812,676.594,1883.824,676.359,1884.057Zm-10.693-.215c-.074.1-.151.156-.16.224-.006.046.074.12.133.152s.2-.071.187-.144S665.739,1883.943,665.667,1883.842Zm16.453.379a.613.613,0,0,0,.113-.183c.017-.072-.122-.175-.189-.14a.279.279,0,0,0-.13.158C681.892,1884.139,682,1884.23,682.12,1884.221Zm-54.633-5.774a.248.248,0,0,0-.063.012c-.066.038-.123.083-.1.172a.042.042,0,0,0,.033.024c.091,0,.13-.054.144-.134C627.508,1878.508,627.5,1878.492,627.486,1878.446Zm-38.428,2.631a2.555,2.555,0,1,0-2.568,2.548A2.548,2.548,0,0,0,589.058,1881.077Zm32.711,11.035a2.541,2.541,0,1,0-2.558,2.5A2.541,2.541,0,0,0,621.769,1892.112Zm128.542-8.072a2.525,2.525,0,0,0-.01,5.05,2.525,2.525,0,1,0,.01-5.05Zm-152.894.022a2.505,2.505,0,1,0,2.494,2.5A2.5,2.5,0,0,0,597.417,1884.063Zm103.777,10.915a2.5,2.5,0,1,0,2.488,2.511A2.5,2.5,0,0,0,701.194,1894.978Zm32.741-5.405a2.5,2.5,0,1,0,2.469,2.527A2.477,2.477,0,0,0,733.934,1889.573Zm-89.882,7.926a2.49,2.49,0,1,0,2.482-2.514A2.464,2.464,0,0,0,644.053,1897.5Zm-30.2-7.91a2.483,2.483,0,1,0,2.458,2.5A2.451,2.451,0,0,0,613.848,1889.589Zm150.4-8.522a2.474,2.474,0,1,0,2.476-2.477A2.441,2.441,0,0,0,764.252,1881.067Zm-55.2,16.433a2.458,2.458,0,1,0-2.459,2.434A2.442,2.442,0,0,0,709.048,1897.5Zm-65.456.01a2.45,2.45,0,1,0-2.473,2.415A2.45,2.45,0,0,0,643.592,1897.511Zm-62.608-18.878a2.437,2.437,0,1,0,2.453,2.42A2.412,2.412,0,0,0,580.984,1878.633Zm174.848,5.5a2.43,2.43,0,1,0,2.431,2.452A2.419,2.419,0,0,0,755.832,1884.137Zm-176.579-6.506a2.638,2.638,0,0,0,3.538-.036,2.591,2.591,0,0,0,.345-3.433c-.351-.049-3.632-.063-4.267-.017A2.6,2.6,0,0,0,579.253,1877.631Zm135.267,19.876a2.421,2.421,0,1,0-2.442,2.393A2.419,2.419,0,0,0,714.52,1897.507Zm24.921-7.854a2.419,2.419,0,1,0,2.391,2.438A2.425,2.425,0,0,0,739.441,1889.653ZM635.649,1899.9a2.415,2.415,0,1,0-.018-4.829,2.415,2.415,0,0,0,.018,4.829Zm-41.226-13.328a2.415,2.415,0,0,0-4.83,0,2.415,2.415,0,0,0,4.83,0Zm13.889,7.91a2.4,2.4,0,1,0-2.4-2.425A2.406,2.406,0,0,0,608.313,1894.477Zm109.256.629a2.347,2.347,0,0,0-2.355,2.364,2.381,2.381,0,1,0,4.761,0A2.354,2.354,0,0,0,717.569,1895.105Zm-87.312.009a2.34,2.34,0,0,0-2.394,2.361,2.369,2.369,0,0,0,4.739.006A2.338,2.338,0,0,0,630.257,1895.115Zm144.249-13.954a2.367,2.367,0,0,0-2.3-2.458,2.366,2.366,0,0,0-.139,4.73A2.378,2.378,0,0,0,774.506,1881.161Zm-4.117-3.644a2.544,2.544,0,0,0,3.457.036,2.512,2.512,0,0,0,.327-3.392c-.384-.052-3.678-.052-4.066,0A2.478,2.478,0,0,0,770.389,1877.517Zm-25.566,12.211a2.343,2.343,0,1,0,2.334,2.36A2.332,2.332,0,0,0,744.823,1889.729ZM573.859,1877.5a2.532,2.532,0,0,0,3.515-.042,2.453,2.453,0,0,0,.191-3.321h-3.948A2.484,2.484,0,0,0,573.859,1877.5Zm189.715,9.042a2.344,2.344,0,0,0-4.688.028,2.344,2.344,0,1,0,4.688-.028ZM575.6,1878.735a2.341,2.341,0,0,0-2.339,2.351,2.334,2.334,0,1,0,4.668-.035A2.34,2.34,0,0,0,575.6,1878.735Zm27.31,11.009a2.329,2.329,0,1,0,2.327,2.327A2.319,2.319,0,0,0,602.911,1889.744ZM723,1895.165a2.316,2.316,0,0,0-2.33,2.274,2.342,2.342,0,0,0,2.3,2.365,2.317,2.317,0,0,0,2.343-2.307A2.289,2.289,0,0,0,723,1895.165Zm-98.279,4.63a2.312,2.312,0,1,0-2.306-2.344A2.3,2.3,0,0,0,624.725,1899.794Zm-35.9-13.216a2.318,2.318,0,1,0-2.34,2.306A2.313,2.313,0,0,0,588.821,1886.578Zm186.642-9.817a2.327,2.327,0,0,0,2.211,1.332,2.436,2.436,0,0,0,2.075-3.663.554.554,0,0,0-.555-.313c-1.062.013-2.125.005-3.187.006-.077,0-.153.007-.25.012A2.393,2.393,0,0,0,775.463,1876.761Zm-46.977,18.456a2.261,2.261,0,1,0,2.28,2.243A2.24,2.24,0,0,0,728.486,1895.218Zm21.843-5.4a2.258,2.258,0,1,0,2.237,2.245A2.258,2.258,0,0,0,750.329,1889.815Zm25.062-8.759a2.245,2.245,0,1,0,4.49,0,2.245,2.245,0,0,0-4.49,0ZM568.4,1877.369a2.393,2.393,0,0,0,3.527-3.228h-3.664A2.337,2.337,0,0,0,568.4,1877.369Zm48.585,20.08a2.244,2.244,0,1,0,2.261-2.211A2.243,2.243,0,0,0,616.984,1897.449Zm-19.56-7.616a2.24,2.24,0,1,0,2.216,2.254A2.217,2.217,0,0,0,597.425,1889.833Zm171.537-3.257a2.238,2.238,0,1,0-2.243,2.227A2.228,2.228,0,0,0,768.962,1886.576Zm-87.357,16.412a2.233,2.233,0,1,0-4.465-.021,2.233,2.233,0,0,0,4.465.021ZM676.1,1903a2.235,2.235,0,1,0-4.47-.04,2.235,2.235,0,0,0,4.47.04Zm10.909-.046a2.231,2.231,0,0,0-4.462.029,2.231,2.231,0,1,0,4.462-.029Zm-16.412.023a2.238,2.238,0,0,0-2.245-2.228,2.215,2.215,0,0,0-2.207,2.213,2.186,2.186,0,0,0,2.214,2.241A2.212,2.212,0,0,0,670.6,1902.974Zm-100.462-24.127a2.226,2.226,0,1,0,2.177,2.241A2.219,2.219,0,0,0,570.133,1878.848Zm92.837,21.9a2.237,2.237,0,0,0-2.236,2.235,2.205,2.205,0,0,0,2.252,2.206,2.183,2.183,0,0,0,2.18-2.224A2.213,2.213,0,0,0,662.97,1900.751Zm-81.94-16.4a2.217,2.217,0,1,0,2.184,2.235A2.212,2.212,0,0,0,581.03,1884.352Zm109.246,16.405a2.217,2.217,0,1,0,2.213,2.213A2.221,2.221,0,0,0,690.276,1900.757Zm-30.615,2.238a2.211,2.211,0,1,0-2.225,2.188A2.2,2.2,0,0,0,659.662,1902.995Zm74.225-7.719a2.2,2.2,0,1,0,2.222,2.192A2.224,2.224,0,0,0,733.886,1895.276Zm-38.178,5.508a2.192,2.192,0,1,0,2.16,2.208A2.205,2.205,0,0,0,695.708,1900.784ZM616,1897.5a2.15,2.15,0,0,0-2.156-2.2,2.182,2.182,0,1,0-.038,4.363A2.151,2.151,0,0,0,616,1897.5Zm36.058,3.3a2.182,2.182,0,1,0,2.178,2.189A2.2,2.2,0,0,0,652.054,1900.794ZM780.83,1876.33a2.2,2.2,0,0,0,1.849,1.6,2.171,2.171,0,0,0,2.3-1.03,2.25,2.25,0,0,0,.006-2.491.533.533,0,0,0-.524-.294c-.971.013-1.941,0-2.912.006-.077,0-.152.009-.261.016A2.252,2.252,0,0,0,780.83,1876.33Zm-79.605,24.48a2.187,2.187,0,0,0-2.2,2.15,2.16,2.16,0,1,0,4.319.036A2.179,2.179,0,0,0,701.225,1900.81ZM562.445,1876.1a2.288,2.288,0,1,0,4.173-1.678.567.567,0,0,0-.563-.307c-.925.014-1.85.005-2.776.006-.092,0-.184.009-.308.015A2.273,2.273,0,0,0,562.445,1876.1Zm193.382,13.809a2.16,2.16,0,1,0,2.159,2.142A2.157,2.157,0,0,0,755.827,1889.912Zm-111.432,13.046a2.149,2.149,0,1,0,2.16-2.134A2.143,2.143,0,0,0,644.394,1902.958Zm-52.386-13.023a2.137,2.137,0,1,0,2.14,2.15A2.13,2.13,0,0,0,592.009,1889.935Zm112.448,13.016a2.129,2.129,0,1,0,2.148-2.109A2.141,2.141,0,0,0,704.456,1902.952Zm-61.194.008a2.124,2.124,0,1,0-2.1,2.137A2.119,2.119,0,0,0,643.263,1902.96Zm139.762-24.009a2.12,2.12,0,1,0,2.137,2.1A2.131,2.131,0,0,0,783.025,1878.951Zm-10.905,5.494a2.121,2.121,0,1,0,2.134,2.109A2.127,2.127,0,0,0,772.12,1884.444ZM739.4,1895.357a2.124,2.124,0,0,0,.01,4.248,2.124,2.124,0,0,0-.01-4.248Zm-131.067.02a2.08,2.08,0,0,0-2.121,2.107,2.105,2.105,0,1,0,4.211-.011A2.092,2.092,0,0,0,608.337,1895.376Zm-41.558-14.281a2.1,2.1,0,0,0-4.19-.078,2.1,2.1,0,1,0,4.19.078Zm8.841,3.377a2.1,2.1,0,1,0,2.068,2.109A2.1,2.1,0,0,0,575.621,1884.472Zm134.384,18.5a2.087,2.087,0,1,0,2.109-2.079A2.1,2.1,0,0,0,710.005,1902.97Zm-72.292.045a2.075,2.075,0,1,0-2.087,2.043A2.083,2.083,0,0,0,637.714,1903.015Zm152.336-28.875c-.955-.006-1.912-.008-2.867-.017a.406.406,0,0,0-.348.189,2.181,2.181,0,0,0,1.688,3.527,2.151,2.151,0,0,0,2.019-1.3,2.124,2.124,0,0,0-.448-2.383A.106.106,0,0,0,790.049,1874.14Zm-28.806,15.869a2.063,2.063,0,1,0,2.045,2.067A2.057,2.057,0,0,0,761.243,1890.01Zm-202.676-12.289a2.152,2.152,0,0,0,2.363-3.323.59.59,0,0,0-.537-.28c-.817.014-1.634.005-2.45.006-.091,0-.183.012-.27.02A2.148,2.148,0,0,0,558.567,1877.721Zm188.288,19.768a2.037,2.037,0,1,0-2.037,2.034A2.049,2.049,0,0,0,746.855,1897.489Zm-29.244,3.46a2.03,2.03,0,1,0-.036,4.06,2.03,2.03,0,0,0,.036-4.06Zm-129.074-8.856a2.03,2.03,0,1,0-2.042,2.01A2.017,2.017,0,0,0,588.537,1892.093Zm14.354,3.365a2.023,2.023,0,1,0,2.034,2.01A2.014,2.014,0,0,0,602.89,1895.458Zm29.362,7.519a2.018,2.018,0,1,0-2.027,2.026A2.027,2.027,0,0,0,632.253,1902.976Zm143.383-16.46a2,2,0,1,0,2.043-1.96A2.006,2.006,0,0,0,775.635,1886.516Zm14.892-5.431a1.981,1.981,0,0,0-1.986-2,1.986,1.986,0,0,0,.01,3.971A1.986,1.986,0,0,0,790.527,1881.086Zm-69.5,21.89a1.975,1.975,0,1,0,1.981-1.968A1.982,1.982,0,0,0,721.023,1902.975Zm-94.332,0a1.962,1.962,0,0,0-1.93-1.962,1.992,1.992,0,0,0-2,1.945,1.963,1.963,0,0,0,1.958,1.978A1.938,1.938,0,0,0,626.69,1902.975Zm-54.635-16.43a1.964,1.964,0,0,0-3.928.024,1.964,1.964,0,1,0,3.928-.024Zm222.014-12.422c-.386,0-.772,0-1.157,0a.448.448,0,0,0-.366.158,1.956,1.956,0,0,0-.469,1.891,1.984,1.984,0,0,0,2.159,1.5,1.9,1.9,0,0,0,1.7-1.243,1.97,1.97,0,0,0-.352-2.122.516.516,0,0,0-.446-.191c-.355.01-.71,0-1.065,0Zm-27.348,16a1.952,1.952,0,1,0,.016,3.9,1.952,1.952,0,0,0-.016-3.9Zm-18.347,7.323a1.944,1.944,0,1,0,1.967-1.908A1.943,1.943,0,0,0,748.374,1897.445ZM559.2,1883.019a1.959,1.959,0,0,0,1.93-1.966,1.936,1.936,0,0,0-1.959-1.928,1.913,1.913,0,0,0-1.92,1.958A1.933,1.933,0,0,0,559.2,1883.019Zm-3.6-6.511a1.95,1.95,0,0,0-.3-2.162.553.553,0,0,0-.477-.226c-.678.01-1.356.017-2.033,0a.649.649,0,0,0-.586.291,2.009,2.009,0,1,0,3.391,2.1Zm39.885,20.955a1.929,1.929,0,1,0,1.923-1.915A1.94,1.94,0,0,0,595.481,1897.462Zm-14.441-7.312a1.922,1.922,0,1,0,1.889,1.984A1.928,1.928,0,0,0,581.039,1890.15Zm149.375,12.826a1.925,1.925,0,0,0-1.882-1.906,1.91,1.91,0,1,0,1.882,1.906Zm-111.206,1.9a1.9,1.9,0,1,0-1.881-1.894A1.9,1.9,0,0,0,619.208,1904.88Zm165.7-18.323a1.865,1.865,0,1,0-1.874,1.874A1.854,1.854,0,0,0,784.907,1886.557Zm-112.894,21.821a1.85,1.85,0,0,0,3.7.038,1.85,1.85,0,0,0-3.7-.038Zm-3.638,1.85a1.842,1.842,0,1,0,0-3.683,1.842,1.842,0,1,0,0,3.683Zm85.607-12.737a1.841,1.841,0,1,0,1.835-1.861A1.835,1.835,0,0,0,753.983,1897.492Zm-18.233,5.517a1.845,1.845,0,1,0-1.848,1.806A1.839,1.839,0,0,0,735.75,1903.009Zm65.448-26.634a1.9,1.9,0,0,0-.446-2.083.557.557,0,0,0-.411-.169c-.585.005-1.171.007-1.756,0a.593.593,0,0,0-.449.191,1.886,1.886,0,1,0,3.062,2.063Zm-118.261,31.978a1.838,1.838,0,1,0,1.844-1.8A1.83,1.83,0,0,0,682.937,1908.353Zm-5.408.058a1.841,1.841,0,1,0,1.824-1.863A1.826,1.826,0,0,0,677.529,1908.411Zm-111.008-21.83a1.835,1.835,0,1,0-1.835,1.817A1.841,1.841,0,0,0,566.521,1886.581Zm229.36-5.487a1.834,1.834,0,1,0-1.848,1.8A1.822,1.822,0,0,0,795.881,1881.094Zm-134.758,27.282a1.832,1.832,0,1,0,3.664.017,1.832,1.832,0,0,0-3.664-.017Zm29.17-1.814a1.823,1.823,0,1,0,1.808,1.838A1.816,1.816,0,0,0,690.293,1906.563Zm-98.234-10.9a1.785,1.785,0,0,0-1.87,1.731,1.813,1.813,0,0,0,1.739,1.911,1.848,1.848,0,0,0,1.9-1.758A1.82,1.82,0,0,0,592.059,1895.658Zm65.365,10.911a1.8,1.8,0,0,0-1.79,1.813,1.78,1.78,0,0,0,1.829,1.816,1.805,1.805,0,0,0,1.817-1.832A1.832,1.832,0,0,0,657.423,1906.569Zm116.533-14.463a1.825,1.825,0,1,0-1.857,1.783A1.8,1.8,0,0,0,773.957,1892.106Zm-158.317,10.877a1.816,1.816,0,0,0-3.631-.028,1.816,1.816,0,1,0,3.631.028ZM549.525,1874.3a.571.571,0,0,0-.411-.178c-.555,0-1.11.005-1.667,0a.582.582,0,0,0-.414.169,1.827,1.827,0,0,0-.588,1.077,1.854,1.854,0,0,0,1.64,2.128,1.833,1.833,0,0,0,2.043-1.713A1.914,1.914,0,0,0,549.525,1874.3ZM695.7,1906.588a1.8,1.8,0,0,0-.047,3.591,1.8,1.8,0,1,0,.047-3.591Zm-120.132-16.312a1.8,1.8,0,1,0,1.816,1.775A1.8,1.8,0,0,0,575.573,1890.276Zm-19.993-9.2a1.8,1.8,0,0,0-1.791-1.8,1.8,1.8,0,0,0-.017,3.59A1.8,1.8,0,0,0,555.58,1881.074Zm96.479,29.088a1.754,1.754,0,0,0,1.776-1.753,1.785,1.785,0,1,0-3.57-.026A1.748,1.748,0,0,0,652.058,1910.162Zm49.124-3.535a1.755,1.755,0,1,0,1.768,1.755A1.743,1.743,0,0,0,701.182,1906.627Zm39.977-3.668a1.745,1.745,0,1,0-1.748,1.773A1.736,1.736,0,0,0,741.159,1902.959Zm-96.358,5.412a1.748,1.748,0,0,0,3.5.026,1.748,1.748,0,0,0-3.5-.026Zm116.438-9.156a1.736,1.736,0,1,0-1.75-1.725A1.74,1.74,0,0,0,761.239,1899.215Zm-154.659,3.774a1.74,1.74,0,1,0,1.73-1.738A1.745,1.745,0,0,0,606.581,1902.99Zm101.73,5.43a1.72,1.72,0,1,0-1.734,1.682A1.7,1.7,0,0,0,708.311,1908.42Zm-65.456-.04a1.716,1.716,0,1,0-1.7,1.714A1.694,1.694,0,0,0,642.856,1908.38Zm145.7-23.527a1.717,1.717,0,1,0,1.7,1.714A1.717,1.717,0,0,0,788.553,1884.854Zm-202.075,10.922a1.7,1.7,0,1,0,1.728,1.687A1.7,1.7,0,0,0,586.478,1895.776Zm191.163-5.395a1.69,1.69,0,1,0,1.685,1.672A1.693,1.693,0,0,0,777.641,1890.381Zm26.832-16.26a.772.772,0,0,0-.592.209,1.666,1.666,0,0,0-.575,1.787,1.7,1.7,0,0,0,1.55,1.253,1.712,1.712,0,0,0,1.18-3.036.8.8,0,0,0-.591-.213c-.168.013-.34,0-.509,0S804.628,1874.134,804.474,1874.121ZM560.86,1886.588a1.674,1.674,0,1,0-3.348-.036,1.674,1.674,0,1,0,3.348.036Zm149.56,21.795a1.674,1.674,0,1,0,1.675-1.669A1.658,1.658,0,0,0,710.42,1908.382Zm89.031-28.98a1.656,1.656,0,0,0-1.663,1.679,1.664,1.664,0,0,0,3.328-.007A1.647,1.647,0,0,0,799.451,1879.4ZM633.98,1908.408a1.66,1.66,0,1,0,1.658-1.679A1.629,1.629,0,0,0,633.98,1908.408Zm112.492-5.413a1.653,1.653,0,1,0-3.307-.005,1.653,1.653,0,0,0,3.307.005Zm-176.365-12.573a1.649,1.649,0,1,0,1.636,1.652A1.636,1.636,0,0,0,570.108,1890.422Zm-27.643-16.3a1.014,1.014,0,0,0-.863.352,1.679,1.679,0,0,0-.346,1.877,1.592,1.592,0,0,0,1.548.966,1.538,1.538,0,0,0,1.487-.982,1.617,1.617,0,0,0-.294-1.806,1.035,1.035,0,0,0-.932-.407,2.3,2.3,0,0,1-.277,0A2.464,2.464,0,0,1,542.465,1874.121Zm60.49,27.227a1.634,1.634,0,1,0,1.589,1.651A1.625,1.625,0,0,0,602.954,1901.349Zm116.271,7.049a1.629,1.629,0,1,0-1.633,1.61A1.638,1.638,0,0,0,719.225,1908.4Zm-172.577-27.343a1.626,1.626,0,1,0,3.253,0,1.626,1.626,0,0,0-3.253,0ZM630.209,1910a1.612,1.612,0,1,0-1.588-1.646A1.619,1.619,0,0,0,630.209,1910ZM768.34,1897.45a1.609,1.609,0,1,0-1.6,1.636A1.58,1.58,0,0,0,768.34,1897.45Zm-188.919.037a1.576,1.576,0,0,0,3.152,0,1.576,1.576,0,1,0-3.152,0Zm170.935,3.942a1.553,1.553,0,1,0,1.519,1.6A1.554,1.554,0,0,0,750.356,1901.428Zm-25.811,6.953a1.543,1.543,0,1,0-1.552,1.549A1.526,1.526,0,0,0,724.546,1908.381Zm67.955-21.833a1.548,1.548,0,1,0,3.1,0,1.548,1.548,0,0,0-3.1,0Zm-166.224,21.843a1.559,1.559,0,0,0-1.566-1.546,1.54,1.54,0,1,0,.035,3.079A1.554,1.554,0,0,0,626.277,1908.391ZM784.588,1892.1a1.54,1.54,0,1,0-3.079-.041,1.519,1.519,0,0,0,1.516,1.543A1.537,1.537,0,0,0,784.588,1892.1Zm25.787-17.972a1.529,1.529,0,1,0-.025,3.058,1.529,1.529,0,1,0,.025-3.058Zm-212.945,27.323a1.515,1.515,0,0,0-1.548,1.508,1.535,1.535,0,1,0,1.548-1.508Zm-32.74-7.882a1.5,1.5,0,1,0-1.509-1.5A1.5,1.5,0,0,0,564.691,1893.574Zm-10.915-8.506a1.5,1.5,0,0,0,.007,3,1.5,1.5,0,1,0-.007-3Zm249.706-4.009a1.474,1.474,0,1,0,1.467-1.465A1.462,1.462,0,0,0,803.482,1881.059Zm-73.506,27.334a1.475,1.475,0,1,0-1.474,1.46A1.454,1.454,0,0,0,729.976,1908.394ZM537.36,1874.187a1.472,1.472,0,1,0,1.481,1.453A1.466,1.466,0,0,0,537.36,1874.187Zm234.783,21.826a1.445,1.445,0,0,0-1.467,1.467,1.46,1.46,0,1,0,1.467-1.467Zm-154.364,12.368a1.449,1.449,0,0,0,2.9.053,1.449,1.449,0,1,0-2.9-.053Zm-43.621-10.892a1.448,1.448,0,0,0,1.425,1.417,1.425,1.425,0,0,0,1.438-1.4,1.432,1.432,0,1,0-2.863-.02Zm180.235,5.461a1.427,1.427,0,1,0,2.854.018,1.427,1.427,0,0,0-2.854-.018ZM544.2,1881.1a1.429,1.429,0,1,0-1.438,1.394A1.426,1.426,0,0,0,544.2,1881.1Zm47.846,20.484a1.4,1.4,0,1,0,1.359,1.42A1.391,1.391,0,0,0,592.046,1901.582Zm140.477,6.774a1.385,1.385,0,1,0,1.4-1.35A1.371,1.371,0,0,0,732.523,1908.356Zm68.292-21.792a1.359,1.359,0,1,0-1.341,1.373A1.367,1.367,0,0,0,800.815,1886.564ZM615.186,1908.4a1.36,1.36,0,1,0-1.369,1.334A1.353,1.353,0,0,0,615.186,1908.4Zm173.375-17.69a1.357,1.357,0,1,0,1.337,1.363A1.346,1.346,0,0,0,788.561,1890.714Zm-120.193,21.824a1.349,1.349,0,1,0,1.336,1.37A1.358,1.358,0,0,0,668.368,1912.538Zm12.344,1.327a1.345,1.345,0,1,0-1.333,1.373A1.349,1.349,0,0,0,680.712,1913.865Zm-6.848-1.327a1.349,1.349,0,0,0-.014,2.7,1.349,1.349,0,1,0,.014-2.7Zm10.933.018a1.333,1.333,0,1,0-.029,2.666,1.352,1.352,0,0,0,1.34-1.322A1.333,1.333,0,0,0,684.8,1912.557Zm-23.175,1.282a1.336,1.336,0,1,0,1.373-1.284A1.345,1.345,0,0,0,661.622,1913.839ZM559.2,1893.392a1.321,1.321,0,1,0-1.342-1.3A1.326,1.326,0,0,0,559.2,1893.392Zm129.758,20.459a1.305,1.305,0,0,0,1.244,1.356,1.319,1.319,0,1,0,.119-2.635A1.3,1.3,0,0,0,688.961,1913.851Zm125.6-38.2a1.306,1.306,0,1,0,2.611-.022,1.3,1.3,0,0,0-1.314-1.271A1.311,1.311,0,0,0,814.557,1875.65Zm-157.112,36.937a1.3,1.3,0,1,0,1.311,1.315A1.305,1.305,0,0,0,657.445,1912.586Zm-109.1-27.318a1.3,1.3,0,1,0,1.236,1.358A1.313,1.313,0,0,0,548.34,1885.268Zm227.991,12.221a1.3,1.3,0,1,0,1.314-1.318A1.306,1.306,0,0,0,776.332,1897.489Zm-13.821,5.487a1.285,1.285,0,1,0-1.29,1.292A1.267,1.267,0,0,0,762.511,1902.975ZM739.4,1907.1a1.285,1.285,0,1,0,1.293,1.285A1.268,1.268,0,0,0,739.4,1907.1Zm-88.624,6.754a1.268,1.268,0,1,0,2.536.038,1.256,1.256,0,0,0-1.247-1.283A1.269,1.269,0,0,0,650.776,1913.857Zm44.913-1.245a1.269,1.269,0,0,0-1.282,1.289,1.27,1.27,0,1,0,2.539-.027A1.257,1.257,0,0,0,695.689,1912.612Zm115.938-31.5a1.265,1.265,0,0,0-2.529-.1,1.266,1.266,0,0,0,2.529.1Zm-225.115,20.612a1.262,1.262,0,1,0,1.247,1.271A1.252,1.252,0,0,0,586.513,1901.723Zm-17.672-4.248a1.231,1.231,0,0,0,1.253,1.256,1.244,1.244,0,0,0,1.257-1.257,1.255,1.255,0,1,0-2.511,0Zm39.489,9.651a1.259,1.259,0,1,0-.025,2.518,1.259,1.259,0,0,0,.025-2.518Zm-76.408-32.711a1.25,1.25,0,1,0-.072,2.5,1.25,1.25,0,0,0,.072-2.5Zm168.006,39.513a1.268,1.268,0,0,0,1.273,1.208,1.251,1.251,0,0,0,1.229-1.291,1.251,1.251,0,1,0-2.5.082Zm-53.4,1.194a1.235,1.235,0,1,0-1.213-1.255A1.251,1.251,0,0,0,646.528,1915.122Zm-107.945-34.051a1.215,1.215,0,1,0-1.208,1.209A1.211,1.211,0,0,0,538.583,1881.071Zm167.992,31.615a1.2,1.2,0,0,0,.01,2.4,1.2,1.2,0,1,0-.01-2.4Zm39.415-4.3a1.158,1.158,0,0,0-1.165-1.181,1.179,1.179,0,1,0,0,2.358A1.143,1.143,0,0,0,745.989,1908.383Zm-103.684,5.478a1.177,1.177,0,0,0-1.155-1.149,1.193,1.193,0,0,0-1.183,1.175,1.163,1.163,0,0,0,1.185,1.16A1.145,1.145,0,0,0,642.305,1913.861Zm70.935.048a1.159,1.159,0,0,0-1.117-1.182,1.185,1.185,0,0,0-1.2,1.16,1.157,1.157,0,0,0,1.149,1.147A1.133,1.133,0,0,0,713.241,1913.909Zm80.83-22.993a1.155,1.155,0,1,0-.021,2.309,1.155,1.155,0,0,0,.021-2.309Zm-192.3,17.488a1.14,1.14,0,0,0,2.28-.016,1.148,1.148,0,0,0-1.146-1.15A1.161,1.161,0,0,0,601.771,1908.4Zm164.977-4.281a1.139,1.139,0,1,0-1.155-1.135A1.135,1.135,0,0,0,766.748,1904.123ZM553.8,1890.946a1.126,1.126,0,1,0-.025,2.253,1.126,1.126,0,0,0,.025-2.253Zm228.122,6.544a1.111,1.111,0,0,0,1.134,1.105,1.118,1.118,0,1,0-1.134-1.105Zm24.154-10.922a1.123,1.123,0,1,0-2.246.028,1.123,1.123,0,0,0,2.246-.028Zm-263.308-1.1a1.1,1.1,0,1,0,1.1,1.082A1.1,1.1,0,0,0,542.771,1885.464Zm92.88,27.322a1.1,1.1,0,1,0,1.086,1.092A1.1,1.1,0,0,0,635.651,1912.786Zm81.948,0a1.1,1.1,0,1,0,1.1,1.082A1.1,1.1,0,0,0,717.6,1912.786Zm-135.514-9.8a1.082,1.082,0,1,0-1.083,1.084A1.077,1.077,0,0,0,582.084,1902.981Zm169.308,5.417a1.066,1.066,0,0,0-1.081-1.08,1.067,1.067,0,0,0,.02,2.133A1.07,1.07,0,0,0,751.392,1908.4Zm-187.764-10.92a1.024,1.024,0,0,0,1.051,1.054,1.047,1.047,0,0,0,1.075-1.086,1.077,1.077,0,0,0-1.083-1.043A1.057,1.057,0,0,0,563.629,1897.479ZM821.3,1874.623a1.041,1.041,0,1,0-.037,2.081,1.041,1.041,0,0,0,.037-2.081Zm-191.1,38.252a1.02,1.02,0,0,0-.982,1.027,1.032,1.032,0,0,0,1.01,1,1.017,1.017,0,0,0,1.022-1.032A1,1,0,0,0,630.2,1912.875Zm141.939-10.889a1,1,0,0,0-1,.995,1.009,1.009,0,0,0,1,1,1,1,0,0,0,0-1.991Zm43.733-21.915a.993.993,0,1,0,0,1.985.97.97,0,0,0,.993-.99A.981.981,0,0,0,815.866,1880.071ZM598.4,1908.4a.984.984,0,0,0-1.005-.989.977.977,0,0,0,.021,1.954A.987.987,0,0,0,598.4,1908.4Zm125.574,5.082a1.029,1.029,0,0,0-.494-.53,1.065,1.065,0,0,0-1.3.28.969.969,0,0,0,.036,1.3,17.328,17.328,0,0,0,1.769-.3A.9.9,0,0,0,723.97,1913.479Zm64.575-16.921a.921.921,0,1,0,.924.909A.925.925,0,0,0,788.545,1896.558Zm-163.8,16.409a.92.92,0,1,0,.9.925A.928.928,0,0,0,624.746,1912.967Zm175.626-20.891a.918.918,0,1,0-1.836.017.918.918,0,0,0,1.836-.017ZM575.63,1902.091a.88.88,0,0,0-.935.878.9.9,0,0,0,.859.913.888.888,0,0,0,.93-.885A.865.865,0,0,0,575.63,1902.091Zm-15.589-4.617a.85.85,0,0,0-.852-.848.872.872,0,0,0-.875.88.886.886,0,0,0,.884.829A.858.858,0,0,0,560.042,1897.473Zm250.347-11.759a.857.857,0,1,0-.03,1.713.857.857,0,0,0,.03-1.713Zm-261.843,7.12a.261.261,0,0,0,.338-.045.91.91,0,0,0,.3-.957.892.892,0,0,0-.733-.682.868.868,0,0,0-.9.335,2.814,2.814,0,0,0-.237.474A10.605,10.605,0,0,0,548.546,1892.834Zm44.267,15.551a.809.809,0,1,0-.82.808A.8.8,0,0,0,592.813,1908.384Zm26.436,4.7a.809.809,0,1,0,.786.808A.8.8,0,0,0,619.249,1913.08Zm136.087-4.54a7.681,7.681,0,0,1,1.156-.267c.093-.006.18-.1.266-.149a.98.98,0,0,0-1.207-.684.96.96,0,0,0-.572.44.736.736,0,0,0-.1.649A.713.713,0,0,0,755.336,1908.541ZM570.78,1902.95a.687.687,0,1,0-.682.721A.691.691,0,0,0,570.78,1902.95Zm256.037-27.977a.671.671,0,0,0-.725.667.683.683,0,0,0,.638.715.71.71,0,0,0,.736-.673A.7.7,0,0,0,826.817,1874.973Zm-5.52,5.41a.682.682,0,1,0-.008,1.363.667.667,0,0,0,.665-.677A.675.675,0,0,0,821.3,1880.383Zm-207.43,32.826a.681.681,0,1,0-.091,1.359.681.681,0,1,0,.091-1.359Zm-27.352-5.46a.635.635,0,0,0-.046,1.27.635.635,0,1,0,.046-1.27Zm77.086,11.7a.437.437,0,0,0,.024-.136.676.676,0,0,0-.708-.686.685.685,0,0,0-.63.719c.018.205.114.309.317.314.291.007.582,0,.9,0C663.551,1919.563,663.581,1919.51,663.6,1919.453Zm-6.124.329c.046,0,.093,0,.139,0a.4.4,0,0,0,.42-.345.59.59,0,0,0-.214-.619.623.623,0,0,0-.653-.054.564.564,0,0,0-.3.533c.005.3.16.526.474.487a1.318,1.318,0,0,1,.138,0Zm11.257-1.066a.68.68,0,0,0-.812.056.926.926,0,0,0-.218.341.4.4,0,0,0,.087.455,6.193,6.193,0,0,0,1.2-.033C669.073,1919.118,669,1918.882,668.735,1918.716Zm-60.392-5.4a.566.566,0,0,0-.589.569.556.556,0,0,0,.545.564.561.561,0,0,0,.591-.565A.572.572,0,0,0,608.343,1913.319Zm119.44.38a2.136,2.136,0,0,0,.224-.043c.089-.019.177-.042.268-.053.3-.037.606-.068.909-.105a.148.148,0,0,0,.08-.249.986.986,0,0,0-1.687.3.377.377,0,0,0,.018.137A1.053,1.053,0,0,0,727.783,1913.7Zm-53.226,5.61a.569.569,0,0,0-.2-.532.652.652,0,0,0-.5-.19.674.674,0,0,0-.5.207.561.561,0,0,0-.169.536A3.743,3.743,0,0,0,674.557,1919.309Zm-22.52.358c.092,0,.183.005.275,0a.286.286,0,0,0,.3-.274.558.558,0,0,0-.271-.585.515.515,0,0,0-.563-.015.553.553,0,0,0-.3.572c.02.205.109.29.323.3.076.005.152,0,.229,0Zm-5.23-.8a.484.484,0,0,0-.594.061.635.635,0,0,0-.155.271.306.306,0,0,0,.095.349,2.3,2.3,0,0,0,.827-.008C647.071,1919.167,647.027,1919.008,646.807,1918.865Zm131.353-16.41c.017-.006.021-.051.043-.108a.837.837,0,0,0-1.392.482A4.974,4.974,0,0,0,778.161,1902.455Zm-98.147,16.57a.66.66,0,0,0-.679-.475.746.746,0,0,0-.457.19c-.088.08-.189.159-.152.3A3.357,3.357,0,0,0,680.013,1919.025Zm-77.075-5.55a.416.416,0,1,0-.049.83.415.415,0,0,0,.444-.414A.4.4,0,0,0,602.938,1913.475Zm202.173-22.1a.707.707,0,0,0-.53.085.524.524,0,0,0-.243.7,7.721,7.721,0,0,0,1.092-.538A.346.346,0,0,0,805.111,1891.377Zm-223.719,16.892a.406.406,0,0,0-.7-.172.133.133,0,0,0,.026.229c.212.063.4.232.674.155A.7.7,0,0,0,581.392,1908.269Zm60.168,10.985a.293.293,0,0,0-.158-.332.552.552,0,0,0-.3-.091.577.577,0,0,0-.282.133.239.239,0,0,0-.094.294A2.491,2.491,0,0,0,641.56,1919.254Zm42.712-.454a3.6,3.6,0,0,1,.379-.081c.136-.012.272,0,.517,0C684.767,1918.45,684.556,1918.48,684.272,1918.8Zm109.382-21.839c.109-.017.218-.031.277-.162C793.7,1896.817,793.7,1896.817,793.654,1896.96ZM635.68,1918.943c-.012-.007-.027-.021-.037-.019a.29.29,0,0,0-.063.029l.037.02Z" transform="translate(-502.07 -1701.046)" opacity="0.5" fill="url(#a)"/><g transform="translate(181.106 14.679)"><path d="M2061.923,337.889h-34.849a1.629,1.629,0,0,1-1.624-1.624V323.814a1.629,1.629,0,0,1,1.624-1.624h34.849a1.629,1.629,0,0,1,1.624,1.624v12.451A1.629,1.629,0,0,1,2061.923,337.889Z" transform="translate(-2025.45 -322.19)" fill="#9ec8ff"/><path d="M2070.54,441.2v8.662l9.981-9.981S2070.743,441.2,2070.54,441.2Z" transform="translate(-2065.938 -427.869)" fill="#9ec8ff"/><path d="M2077.538,350.026h-31.4a1.381,1.381,0,0,1-1.377-1.377v-9.832a1.381,1.381,0,0,1,1.377-1.377h31.4a1.381,1.381,0,0,1,1.377,1.377v9.832A1.381,1.381,0,0,1,2077.538,350.026Z" transform="translate(-2042.789 -335.884)" fill="#fff"/><path d="M2085.315,356.033h-15.428a.677.677,0,1,1,0-1.353h15.428a.677.677,0,1,1,0,1.353Z" transform="translate(-2064.744 -351.364)" fill="#9ec8ff"/><path d="M2098.2,386.591h-28.615a.378.378,0,0,1-.376-.377v-.008a.378.378,0,0,1,.376-.377H2098.2a.378.378,0,0,1,.377.377v.008A.379.379,0,0,1,2098.2,386.591Z" transform="translate(-2064.744 -379.335)" fill="#9ec8ff"/><path d="M2098.2,401.021h-28.615a.378.378,0,0,1-.376-.377v-.008a.378.378,0,0,1,.376-.377H2098.2a.378.378,0,0,1,.377.377v.008A.379.379,0,0,1,2098.2,401.021Z" transform="translate(-2064.744 -392.292)" fill="#9ec8ff"/><g transform="translate(26.249 12.113)"><path d="M2283.935,442.368H2283a.358.358,0,0,1-.358-.358v-.772a.358.358,0,0,1,.358-.358h.937a.358.358,0,0,1,.358.358v.772A.359.359,0,0,1,2283.935,442.368Z" transform="translate(-2282.64 -440.88)" fill="#9ec8ff"/><path d="M2313.4,442.368h-.937a.358.358,0,0,1-.358-.358v-.772a.358.358,0,0,1,.358-.358h.937a.358.358,0,0,1,.358.358v.772A.358.358,0,0,1,2313.4,442.368Z" transform="translate(-2309.093 -440.88)" fill="#9ec8ff"/><path d="M2342.865,442.368h-.937a.358.358,0,0,1-.358-.358v-.772a.358.358,0,0,1,.358-.358h.937a.358.358,0,0,1,.358.358v.772A.358.358,0,0,1,2342.865,442.368Z" transform="translate(-2335.556 -440.88)" fill="#9ec8ff"/></g></g><g transform="translate(78.356 140.225)"><path d="M1077.638,1821.113H1018.68a3.784,3.784,0,0,1,3.783-3.783h55.173v3.783Z" transform="translate(-1018.68 -1790.283)" fill="#a8ceff"/><path d="M1319.98,1583.159h-31.49l13.373-29.419a2.4,2.4,0,0,1,2.189-1.409h28.484a.94.94,0,0,1,.855,1.328Z" transform="translate(-1260.953 -1552.329)" fill="#a8ceff"/><path d="M1354.383,1552.32h-26a2.4,2.4,0,0,0-2.189,1.409l-13.373,29.419h29.008l13.411-29.5A.94.94,0,0,0,1354.383,1552.32Z" transform="translate(-1282.8 -1552.32)" fill="#75a1de"/><path d="M1531.5,1666.946c-1.1,2.284-2.891,3.7-3.995,3.171s-1.105-2.817,0-5.1,2.891-3.7,3.995-3.171S1532.6,1664.662,1531.5,1666.946Z" transform="translate(-1474.832 -1650.566)" fill="#6695d6"/></g><g transform="translate(44.576 81.014)"><path d="M930.111,1103.669s-2.675,13.659-5.633,16.052,6.805,13.936,10.185,10.979.235-9.43.235-9.43-1.831-1.127,1.268-8.308-5.242-12.532-5.242-12.532Z" transform="translate(-899.819 -1087.338)" fill="#f09959"/><path d="M976.6,1100.44l-.813,3.238s-.373,1.9-.992,4.407a24.417,24.417,0,0,0,5.25,11.13,18.836,18.836,0,0,1,1.8-6.245C984.935,1105.79,976.6,1100.44,976.6,1100.44Z" transform="translate(-945.49 -1087.347)" fill="#e38540"/><path d="M1007.851,1055.854c-1.8,4.958-6.192,8.938-8.981,8.02-4.558-1.5-7.875-5.062-7.091-12.937.923-9.274,8.059-10.338,12.25-9.153S1009.841,1050.367,1007.851,1055.854Z" transform="translate(-960.641 -1034.324)" fill="#f09959"/><path d="M886,1289.25l-4.311,1.688,6.8,8.708-1.939,3.47a27.439,27.439,0,0,1,9.125,15.434,91.037,91.037,0,0,1,1.9,18.854s.523-20.647-.508-24.592C895.06,1305.157,886,1289.25,886,1289.25Z" transform="translate(-861.892 -1256.887)" fill="#d54a41"/><path d="M1031.92,1305.79s5.38,13.811,6.233,17.7,1.026,22.879,1.026,22.879,2.474-16.559,1.76-21.458-1.735-9.326-1.735-9.326l-3.266-2.41s-.617-6.568-.964-6.653S1031.92,1305.79,1031.92,1305.79Z" transform="translate(-996.79 -1271.739)" fill="#d54a41"/><path d="M963.7,1769.26c10.463-3.171,9.194-4.756,13-2.96s8.573,3.017,6.341,3.594-5.6-1.269-5.6-1.269.529,2.854-1.374,3.7-10.35,1.153-15.057-.163S963.7,1769.26,963.7,1769.26Z" transform="translate(-931.704 -1684.574)" fill="#f09959"/><path d="M973.891,1797.11h2.083l-1.041,5.916s-4.1-.609-3.8-1.018S973.891,1797.11,973.891,1797.11Z" transform="translate(-942.195 -1712.916)" fill="#a2dff2"/><path d="M699.6,1336.11c-4.082,7.144-5.378,11.041-8.7,24.411s-4.665,19.453-.991,21.21c3.04,1.454,25.177,8.092,27.862,7.276,1.225.069,3.1-6.255,3.1-6.255l-20.148-8.981s5.832-13.921,6.838-23.065-3.47-14.594-5.715-14.594Z" transform="translate(-687.705 -1298.965)" fill="#f37168"/><path d="M967.128,1114.939c-.986,3.094-.562,3.726-1.928,4.015s-2.611-1.065-3.015-2.968.376-3.679,1.74-3.968S967.718,1113.087,967.128,1114.939Z" transform="translate(-934.076 -1097.709)" fill="#f09959"/><path d="M964,1016.117c-5.341,9.492-15.949,8.1-22.4,4.831-5.256-2.663,14.994-12.748,14.994-12.748Z" transform="translate(-914.912 -1004.521)" fill="#303c60"/><path d="M866.6,975.833c-1.98-5.97-10.091-4.559-13.766,3.384s1.948,13.256,5.356,11.309S866.6,975.833,866.6,975.833Z" transform="translate(-834.899 -972.153)" fill="#303c60"/></g><g transform="translate(97.295 14.194)"><path d="M1297.513,377.531a47.114,47.114,0,0,0,1.421-7.263l-7.5-3.375q.057-1.066.058-2.145a40,40,0,0,0-.434-5.878l7.147-4.067a47.2,47.2,0,0,0-2.1-7.094l-8.208.5a39.71,39.71,0,0,0-4.071-6.926l4.437-6.92a47.753,47.753,0,0,0-5.166-5.3l-7.034,4.252a39.754,39.754,0,0,0-6.815-4.252l.713-8.193a47.023,47.023,0,0,0-7.035-2.292l-4.255,7.037a40.015,40.015,0,0,0-6.917-.6c-.366,0-.731.006-1.095.015l-3.175-7.583a47.333,47.333,0,0,0-7.3,1.229l-.5,8.206a39.488,39.488,0,0,0-7.37,3.2l-6.335-5.239a47.662,47.662,0,0,0-5.884,4.493l3.373,7.5a39.932,39.932,0,0,0-5.039,6.252l-8.047-1.7a47.3,47.3,0,0,0-3.13,6.705l6.472,5.071a39.531,39.531,0,0,0-1.544,7.884l-7.908,2.237c-.014.487-.025.975-.025,1.465a48,48,0,0,0,.368,5.931l8.085,1.482a39.4,39.4,0,0,0,2.286,7.7l-5.966,5.658a47.421,47.421,0,0,0,3.752,6.38l7.85-2.445a40.01,40.01,0,0,0,5.6,5.751l-2.653,7.783a47.385,47.385,0,0,0,6.279,3.918l5.813-5.812a39.425,39.425,0,0,0,7.64,2.49l1.268,8.123a47.935,47.935,0,0,0,7.176.539c.069,0,.138,0,.207,0l2.446-7.847a39.64,39.64,0,0,0,7.921-1.335l4.9,6.605a47.18,47.18,0,0,0,6.785-2.952l-1.482-8.088a39.872,39.872,0,0,0,6.383-4.873l7.405,3.571a47.686,47.686,0,0,0,4.646-5.764l-5.068-6.47a39.517,39.517,0,0,0,3.4-7.282Zm-45.759,6.763a19.546,19.546,0,1,1,19.546-19.546A19.546,19.546,0,0,1,1251.754,384.295Z" transform="translate(-1204.25 -317.44)" fill="#9ec8ff" opacity="0.5"/><g transform="translate(16.382 62.914)"><path d="M1368.2,939.583a.51.51,0,0,1-.41-.206,35.449,35.449,0,0,1-2.973-4.74.511.511,0,0,1,.905-.472,34.55,34.55,0,0,0,2.887,4.6.511.511,0,0,1-.409.815Z" transform="translate(-1364.76 -933.89)" fill="#fff"/></g><g transform="translate(26.122 74.498)"><path d="M1477.337,1055.294a.532.532,0,0,1-.067,0,35.314,35.314,0,0,1-16.87-6.985.51.51,0,0,1,.621-.81,34.3,34.3,0,0,0,16.38,6.783.511.511,0,0,1-.064,1.017Z" transform="translate(-1460.2 -1047.39)" fill="#fff"/></g></g><g transform="translate(145.457 37.903)"><rect width="92.783" height="51.477" fill="#9ec8ff"/><rect width="89.109" height="46.884" transform="translate(1.021 1.123)" fill="#fff"/><g transform="translate(2.226 1.581)" opacity="0.5"><path d="M1782.683,607.976h-84.509a.2.2,0,0,1-.2-.2V565.434a.2.2,0,0,1,.2-.2h84.509a.2.2,0,0,1,.2.2v42.337A.2.2,0,0,1,1782.683,607.976Zm-84.305-.408h84.1V565.638h-84.1Z" transform="translate(-1697.97 -565.23)" fill="#9ec8ff"/><g transform="translate(0 35.281)"><path d="M1782.683,911.328h-84.509a.2.2,0,1,1,0-.408h84.509a.2.2,0,0,1,0,.408Z" transform="translate(-1697.97 -910.92)" fill="#9ec8ff"/></g><g transform="translate(0 28.224)"><path d="M1782.683,842.188h-84.509a.2.2,0,1,1,0-.408h84.509a.2.2,0,0,1,0,.408Z" transform="translate(-1697.97 -841.78)" fill="#9ec8ff"/></g><g transform="translate(0 21.168)"><path d="M1782.683,773.048h-84.509a.2.2,0,1,1,0-.408h84.509a.2.2,0,0,1,0,.408Z" transform="translate(-1697.97 -772.64)" fill="#9ec8ff"/></g><g transform="translate(0 14.112)"><path d="M1782.683,703.908h-84.509a.2.2,0,1,1,0-.408h84.509a.2.2,0,0,1,0,.408Z" transform="translate(-1697.97 -703.5)" fill="#9ec8ff"/></g><g transform="translate(0 7.056)"><path d="M1782.683,634.778h-84.509a.2.2,0,1,1,0-.408h84.509a.2.2,0,0,1,0,.408Z" transform="translate(-1697.97 -634.37)" fill="#9ec8ff"/></g><g transform="translate(70.424)"><path d="M2388.2,607.976a.2.2,0,0,1-.2-.2V565.434a.2.2,0,1,1,.408,0v42.337A.2.2,0,0,1,2388.2,607.976Z" transform="translate(-2388 -565.23)" fill="#9ec8ff"/></g><g transform="translate(56.339)"><path d="M2250.194,607.976a.2.2,0,0,1-.2-.2V565.434a.2.2,0,1,1,.408,0v42.337A.2.2,0,0,1,2250.194,607.976Z" transform="translate(-2249.99 -565.23)" fill="#9ec8ff"/></g><g transform="translate(42.255)"><path d="M2112.194,607.976a.2.2,0,0,1-.2-.2V565.434a.2.2,0,1,1,.408,0v42.337A.2.2,0,0,1,2112.194,607.976Z" transform="translate(-2111.99 -565.23)" fill="#9ec8ff"/></g><g transform="translate(28.169)"><path d="M1974.184,607.976a.2.2,0,0,1-.2-.2V565.434a.2.2,0,0,1,.408,0v42.337A.2.2,0,0,1,1974.184,607.976Z" transform="translate(-1973.98 -565.23)" fill="#9ec8ff"/></g><g transform="translate(14.085)"><path d="M1836.184,607.976a.2.2,0,0,1-.2-.2V565.434a.2.2,0,0,1,.408,0v42.337A.2.2,0,0,1,1836.184,607.976Z" transform="translate(-1835.98 -565.23)" fill="#9ec8ff"/></g></g><g transform="translate(2.021 1.377)"><path d="M1696.374,606.388a.409.409,0,0,1-.184-.774l14.029-7.029,7.235-6.961,6.72-14.045a.4.4,0,0,1,.1-.129l7.638-6.805a.409.409,0,0,1,.642.133l6.44,13.847,7.651,13.594,5.762-6.62a.407.407,0,0,1,.294-.14.4.4,0,0,1,.3.12l6.556,6.587,6.852-20.54a.418.418,0,0,1,.1-.159l14.085-14.113a.408.408,0,0,1,.579.577l-14.017,14.043-7.031,21.077a.408.408,0,0,1-.677.159l-6.714-6.745-5.854,6.726a.408.408,0,0,1-.663-.068l-7.944-14.113c-.005-.009-.01-.018-.014-.028l-6.215-13.364-7.167,6.386-6.716,14.038a.439.439,0,0,1-.085.118l-7.333,7.056a.406.406,0,0,1-.1.07l-14.085,7.056A.42.42,0,0,1,1696.374,606.388Z" transform="translate(-1695.965 -563.235)" fill="#f39892"/></g><g transform="translate(2.022 1.375)"><path d="M1696.382,606.371a.4.4,0,0,1-.285-.116.409.409,0,0,1-.007-.578l20.653-21.169a.409.409,0,0,1,.572-.012l7.228,6.785,13.806-13.832a.409.409,0,0,1,.573-.006l7.036,6.773,6.471-6.76a.406.406,0,0,1,.291-.125.415.415,0,0,1,.293.119l13.684,13.711,13.831-27.717a.408.408,0,1,1,.731.365l-14.085,28.224a.408.408,0,0,1-.654.106l-13.79-13.817-6.465,6.754a.409.409,0,0,1-.579.011l-7.042-6.778-13.8,13.829a.408.408,0,0,1-.569.009l-7.224-6.782-20.373,20.882A.4.4,0,0,1,1696.382,606.371Z" transform="translate(-1695.974 -563.216)" fill="#9ec8ff"/></g></g><g transform="translate(109.12 17.485)"><path d="M1484.784,396.248h-25.2v-45.56a1.008,1.008,0,0,1,1.007-1.007h29.854a1.008,1.008,0,0,1,1.007,1.007v38.9A6.665,6.665,0,0,1,1484.784,396.248Z" transform="translate(-1445.347 -349.68)" fill="#9ec8ff"/><path d="M1487.205,401.891H1463.1V358.356a.956.956,0,0,1,.956-.956h28.524a.956.956,0,0,1,.956.956v37.2A6.332,6.332,0,0,1,1487.205,401.891Z" transform="translate(-1448.508 -356.612)" fill="#fff"/><path d="M1352.624,686.738v-.8a1.077,1.077,0,0,0-.99-1.146H1321.11a1.077,1.077,0,0,0-.99,1.146v.8c0,5.688,3.983,10.3,8.9,10.3H1360.2C1355.291,697.037,1352.557,692.945,1352.624,686.738Z" transform="translate(-1320.12 -650.589)" fill="#9ec8ff"/><path d="M1363.456,697.827v-.649a.928.928,0,0,0-.927-.928h-28.583a.927.927,0,0,0-.927.928v.649a8.332,8.332,0,0,0,8.331,8.331h30.437C1367.186,706.158,1363.456,703.931,1363.456,697.827Z" transform="translate(-1331.703 -660.879)" fill="#fff"/><g transform="translate(18.846 5.044)"><path d="M1527.768,413.406h-21.741a1.249,1.249,0,0,1-1.247-1.248v-11.81a1.248,1.248,0,0,1,1.247-1.247h21.741a1.248,1.248,0,0,1,1.247,1.247v11.811A1.248,1.248,0,0,1,1527.768,413.406Zm-21.741-13.9a.84.84,0,0,0-.839.839v11.811a.84.84,0,0,0,.839.84h21.741a.84.84,0,0,0,.839-.84v-11.81a.839.839,0,0,0-.839-.839h-21.741Z" transform="translate(-1504.78 -399.1)" fill="#9ec8ff"/></g><path d="M1443.525,584.585h-23.9a.617.617,0,1,1,0-1.235h23.9a.617.617,0,1,1,0,1.235Z" transform="translate(-1408.917 -559.502)" fill="#9ec8ff"/><path d="M1443.525,606.655h-23.9a.617.617,0,1,1,0-1.235h23.9a.617.617,0,0,1,0,1.235Z" transform="translate(-1408.917 -579.319)" fill="#9ec8ff"/><path d="M1443.525,627.955h-23.9a.617.617,0,1,1,0-1.235h23.9a.617.617,0,0,1,0,1.235Z" transform="translate(-1408.917 -598.446)" fill="#9ec8ff"/><g transform="translate(34.795 6.923)"><path d="M1662.154,418.778h-.8a.305.305,0,0,1-.305-.305v-.657a.305.305,0,0,1,.305-.305h.8a.305.305,0,0,1,.305.305v.657A.305.305,0,0,1,1662.154,418.778Z" transform="translate(-1661.05 -417.51)" fill="#9ec8ff"/><path d="M1687.264,418.778h-.8a.305.305,0,0,1-.305-.305v-.657a.305.305,0,0,1,.305-.305h.8a.305.305,0,0,1,.305.305v.657A.305.305,0,0,1,1687.264,418.778Z" transform="translate(-1683.597 -417.51)" fill="#9ec8ff"/><path d="M1712.374,418.778h-.8a.305.305,0,0,1-.305-.305v-.657a.305.305,0,0,1,.305-.305h.8a.305.305,0,0,1,.305.305v.657A.305.305,0,0,1,1712.374,418.778Z" transform="translate(-1706.145 -417.51)" fill="#9ec8ff"/></g><rect width="3.218" height="5.312" transform="translate(21.223 12.196)" fill="#9ec8ff"/><rect width="3.218" height="4.87" transform="translate(30.094 12.639)" fill="#9ec8ff"/><rect width="3.218" height="7.044" transform="translate(35.225 10.465)" fill="#9ec8ff"/><rect width="3.218" height="3.218" transform="translate(25.572 14.291)" fill="#9ec8ff"/></g><g transform="translate(311.29 57.156)"><path d="M3312.485,765.565h11.455a11.455,11.455,0,1,1-11.455-11.455Z" transform="translate(-3301.03 -752.506)" fill="#9ec8ff"/><g transform="translate(1.919)"><path d="M3443.525,749.845a11.455,11.455,0,0,0-11.455-11.455v11.455Z" transform="translate(-3420.615 -738.39)" fill="#f39892"/><path d="M3319.83,850.63a11.455,11.455,0,0,0,11.455,11.455A11.51,11.51,0,0,1,3319.83,850.63Z" transform="translate(-3319.83 -839.175)" fill="#f39892"/><path d="M3331.285,738.39a11.455,11.455,0,0,0-11.455,11.455A11.51,11.51,0,0,1,3331.285,738.39Z" transform="translate(-3319.83 -738.39)" fill="#f39892"/><path d="M3432.07,862.085a11.455,11.455,0,0,0,11.455-11.455A11.51,11.51,0,0,1,3432.07,862.085Z" transform="translate(-3420.615 -839.175)" fill="#f39892"/></g></g><circle cx="1.015" cy="1.015" r="1.015" transform="translate(182.466 46.226) rotate(-13.286)" fill="#f39892"/><circle cx="1.015" cy="1.015" r="1.015" transform="translate(167.363 60.088) rotate(-13.286)" fill="#9ec8ff"/><circle cx="1.015" cy="1.015" r="1.015" transform="translate(189.127 52.784)" fill="#9ec8ff"/><circle cx="1.015" cy="1.015" r="1.015" transform="translate(203.211 52.784)" fill="#9ec8ff"/><circle cx="1.015" cy="1.015" r="1.015" transform="translate(217.296 52.784)" fill="#f39892"/><g transform="translate(108.072 56.183)"><circle cx="5.481" cy="5.481" r="5.481" transform="translate(0 7.751) rotate(-45)" fill="#9cd499"/><g transform="translate(5.413 5.938)"><path d="M1364.68,790.759h-.011a.306.306,0,0,1-.219-.1l-1.489-1.692a.306.306,0,1,1,.459-.4l1.276,1.449,2.95-2.887a.306.306,0,0,1,.429.438l-3.18,3.113A.307.307,0,0,1,1364.68,790.759Z" transform="translate(-1362.885 -787.034)" fill="#fff"/></g></g><g transform="translate(38.384 24.871)"><rect width="3.649" height="19.903" transform="translate(0 6.06)" fill="#9ec8ff"/><rect width="3.649" height="14.113" transform="translate(15.462 11.85)" fill="#9ec8ff"/><rect width="3.649" height="19.903" transform="translate(23.192 6.06)" fill="#9ec8ff"/><rect width="3.649" height="7.056" transform="translate(30.923 18.906)" fill="#9ec8ff"/><rect width="3.649" height="25.962" transform="translate(7.731)" fill="#9ec8ff"/><rect width="3.649" height="14.113" transform="translate(38.679 11.85)" fill="#9ec8ff"/></g><g transform="translate(262.86 18.589)"><rect width="3.649" height="10.556" transform="translate(0 14.143)" fill="#9ec8ff"/><rect width="3.649" height="7.122" transform="translate(46.761 17.577)" fill="#9ec8ff"/><rect width="3.649" height="24.698" transform="translate(15.462)" fill="#9ec8ff"/><rect width="3.649" height="11.102" transform="translate(23.192 13.597)" fill="#9ec8ff"/><rect width="3.649" height="14.244" transform="translate(30.923 10.455)" fill="#9ec8ff"/><rect width="3.649" height="17.526" transform="translate(7.731 7.173)" fill="#9ec8ff"/><rect width="3.649" height="21.586" transform="translate(38.679 3.113)" fill="#9ec8ff"/></g><g transform="translate(12.233 70.388)"><g clip-path="url(#b)"><path d="M505.283,1018.3l-13.12-8.023-2.373,15.195A15.4,15.4,0,0,0,505.283,1018.3Z" transform="translate(-477.646 -995.763)" fill="#a2dff2"/></g><g clip-path="url(#b)"><path d="M526.174,954.324c.036-.058.082-.138.08-.135a15.381,15.381,0,0,0,.341-15.139c-4.643,2.432-1.878.955-13.554,7.269C526.181,954.356,524.141,953.116,526.174,954.324Z" transform="translate(-498.523 -931.803)" fill="#9cd499"/></g><g clip-path="url(#b)"><path d="M371.72,869.8l14.423,5.314,13.53-7.316C393.343,856.1,376.309,857.5,371.72,869.8Z" transform="translate(-371.626 -860.598)" fill="#9ec8ff"/></g><g clip-path="url(#b)"><path d="M375.263,978.71l2.373-15.195L363.214,958.2A15.411,15.411,0,0,0,375.263,978.71Z" transform="translate(-363.12 -948.998)" fill="#f39892"/></g><g clip-path="url(#b)"><path d="M387.04,878.482a15.951,15.951,0,0,0,.4-14.955l.008,0-.243-.449-.015-.027-.2-.369-.007,0a15.706,15.706,0,0,0-6.339-6.149,16.018,16.018,0,0,0-22.132,8.134l-.008,0-.178.477-.179.48.008,0a15.688,15.688,0,0,0,1.345,12.965,15.905,15.905,0,0,0,10.771,7.656v.009l.5.08.505.08V886.4a15.905,15.905,0,0,0,15.244-7.075l.01.006.1-.163s.162-.266.162-.266c.024-.041.055-.092.071-.12l.01-.018s.005-.009.008-.014l.162-.264ZM385.5,864.608l1.06-.554a14.93,14.93,0,0,1-.383,13.882l-.1-.057c-.536-.317-.768-.455-1.837-1.107l-10-6.112,8.3-4.487C383.764,865.517,384.264,865.255,385.5,864.608Zm-26.033.411a14.88,14.88,0,0,1,26.588-1.9l-4,2.161c-.825.444-1.978,1.067-3.909,2.113l-4.787,2.589-.124.066-.4-.246-.021.14L366.5,867.61Zm.912,13.053a14.677,14.677,0,0,1-1.269-12.1l9.5,3.5,4.045,1.49-2.229,14.268A14.887,14.887,0,0,1,360.381,878.073Zm11.056,7.321,2.175-13.927,5.661,3.462,4.41,2.7,1.954,1.2A14.81,14.81,0,0,1,371.437,885.394Z" transform="translate(-358.709 -856.116)" fill="#e7f3fe"/></g></g><path d="M341.979,1293.829a4.579,4.579,0,1,1-4.579-4.58A4.58,4.58,0,0,1,341.979,1293.829Z" transform="translate(-324.463 -1175.873)" fill="#9ec8ff"/><path d="M370.285,1315.9a2.3,2.3,0,1,1-2.3-2.3A2.3,2.3,0,0,1,370.285,1315.9Z" transform="translate(-353.978 -1197.738)" fill="#fff"/><path d="M3325.023,1180.267h-11.369a3.033,3.033,0,0,1-3.024-3.024v-11.369a3.033,3.033,0,0,1,3.024-3.024h11.369a3.033,3.033,0,0,1,3.024,3.024v11.369A3.034,3.034,0,0,1,3325.023,1180.267Z" transform="translate(-2998.36 -1062.374)" fill="#9ec8ff"/><g transform="translate(317.056 102.632)"><path d="M3372.424,1202.408h-11.369a3.538,3.538,0,0,1-3.534-3.535V1187.5a3.538,3.538,0,0,1,3.534-3.534h11.369a3.538,3.538,0,0,1,3.534,3.534v11.369A3.538,3.538,0,0,1,3372.424,1202.408Zm-11.368-17.417a2.517,2.517,0,0,0-2.513,2.514v11.369a2.517,2.517,0,0,0,2.513,2.514h11.37a2.517,2.517,0,0,0,2.513-2.514v-11.369a2.517,2.517,0,0,0-2.513-2.514Z" transform="translate(-3357.521 -1183.97)" fill="#fff"/></g><path d="M1461.751,1267l-2.9-3.347a1.23,1.23,0,0,1,.122-1.728l3.347-2.9a1.228,1.228,0,0,1,1.728.123l2.9,3.347a1.229,1.229,0,0,1-.124,1.728l-3.346,2.9A1.228,1.228,0,0,1,1461.751,1267Z" transform="translate(-1335.304 -1148.462)" fill="#9ec8ff"/><path d="M1615.555,1344.673a2.563,2.563,0,1,1-2.563-2.563A2.562,2.562,0,0,1,1615.555,1344.673Z" transform="translate(-1471.681 -1223.339)" fill="#9ec8ff"/><path d="M3764.119,1266.974a2.555,2.555,0,1,1-2.555-2.555A2.555,2.555,0,0,1,3764.119,1266.974Z" transform="translate(-3400.978 -1153.578)" fill="#9ec8ff"/><path d="M3117.079,756.915a2.554,2.554,0,1,1-2.554-2.555A2.555,2.555,0,0,1,3117.079,756.915Z" transform="translate(-2819.975 -695.574)" fill="#9ec8ff"/><circle cx="1.99" cy="1.99" r="1.99" transform="translate(341.503 94.609) rotate(-80.782)" fill="#9ec8ff"/><g transform="translate(231.52 48.514)"><path d="M2562.563,673.585h-42.31a.834.834,0,0,1-.834-.834V654.544a.834.834,0,0,1,.834-.834h42.31a.834.834,0,0,1,.834.834v18.207A.834.834,0,0,1,2562.563,673.585Z" transform="translate(-2519.42 -653.71)" fill="#9ec8ff"/><path d="M2572.1,718.6h-40.226a.674.674,0,0,1-.674-.674V705.554a.674.674,0,0,1,.674-.674H2572.1a.673.673,0,0,1,.674.674v12.373A.673.673,0,0,1,2572.1,718.6Z" transform="translate(-2529.997 -699.658)" fill="#fff"/><g transform="translate(1.813 1.463)"><path d="M2538.53,669.591h-.977a.374.374,0,0,1-.374-.374v-.8a.374.374,0,0,1,.374-.374h.977a.374.374,0,0,1,.374.374v.8A.374.374,0,0,1,2538.53,669.591Z" transform="translate(-2537.18 -668.04)" fill="#fff"/><path d="M2569.22,669.591h-.977a.374.374,0,0,1-.373-.374v-.8a.374.374,0,0,1,.373-.374h.977a.374.374,0,0,1,.374.374v.8A.374.374,0,0,1,2569.22,669.591Z" transform="translate(-2564.738 -668.04)" fill="#fff"/><path d="M2599.91,669.591h-.977a.374.374,0,0,1-.373-.374v-.8a.374.374,0,0,1,.373-.374h.977a.374.374,0,0,1,.374.374v.8A.374.374,0,0,1,2599.91,669.591Z" transform="translate(-2592.296 -668.04)" fill="#fff"/></g><path d="M2722.7,722.757h-21.991a.658.658,0,1,1,0-1.317h21.99a.658.658,0,0,1,0,1.317Z" transform="translate(-2681.615 -714.528)" fill="#9ec8ff"/><path d="M2560.648,822.207h-21.99a.658.658,0,1,1,0-1.317h21.99a.658.658,0,0,1,0,1.317Z" transform="translate(-2536.104 -803.828)" fill="#9ec8ff"/><path d="M2777.609,822.225h-2.275a.225.225,0,0,1-.224-.225v-.865a.225.225,0,0,1,.224-.224h2.275a.225.225,0,0,1,.225.224V822A.226.226,0,0,1,2777.609,822.225Z" transform="translate(-2749.015 -803.846)" fill="#9ec8ff"/><path d="M2811.219,822.225h-2.275a.225.225,0,0,1-.224-.225v-.865a.225.225,0,0,1,.224-.224h2.275a.226.226,0,0,1,.226.224V822A.227.227,0,0,1,2811.219,822.225Z" transform="translate(-2779.194 -803.846)" fill="#9ec8ff"/><path d="M2599.73,754.582h-36.414a.446.446,0,1,1,0-.892h36.414a.446.446,0,1,1,0,.892Z" transform="translate(-2558.435 -743.486)" fill="#9ec8ff"/><path d="M2599.73,773.452h-36.414a.446.446,0,1,1,0-.892h36.414a.446.446,0,1,1,0,.892Z" transform="translate(-2558.435 -760.43)" fill="#9ec8ff"/></g><circle cx="5.051" cy="5.051" r="5.051" transform="translate(7.931 51.77) rotate(-76.714)" fill="#9ec8ff"/><path d="M753.4,782.648H717.1a.674.674,0,0,1,0-1.348h36.3a.674.674,0,0,1,0,1.348Z" transform="translate(-668.922 -719.764)" fill="#9ec8ff"/><path d="M753.4,815.647H717.1a.674.674,0,0,1,0-1.347h36.3a.674.674,0,1,1,0,1.347Z" transform="translate(-668.922 -749.396)" fill="#9ec8ff"/><g transform="translate(170.433 86.779)"><path d="M1971.229,1056.222a25.526,25.526,0,0,0,.159-2.835q0-.759-.046-1.506l-4.686-1.516a20.644,20.644,0,0,0-1.658-5.613l3.106-3.823a25.272,25.272,0,0,0-2.461-3.577l-4.685,1.529a20.831,20.831,0,0,0-4.639-3.566l.266-4.923a25.061,25.061,0,0,0-4.09-1.449l-2.893,3.992a20.9,20.9,0,0,0-3.468-.29,21.138,21.138,0,0,0-2.382.137l-2.679-4.14a25.028,25.028,0,0,0-4.162,1.23l.006,4.93a20.805,20.805,0,0,0-4.822,3.316l-4.6-1.774a25.368,25.368,0,0,0-2.647,3.443l2.9,3.982a20.56,20.56,0,0,0-1.955,5.517l-4.758,1.267a25.5,25.5,0,0,0-.159,2.835c0,.506.016,1.007.046,1.506l4.686,1.515a20.636,20.636,0,0,0,1.659,5.613l-3.107,3.823a25.325,25.325,0,0,0,2.461,3.577l4.685-1.529a20.811,20.811,0,0,0,4.639,3.565l-.266,4.923a24.992,24.992,0,0,0,4.091,1.449l2.893-3.993a20.894,20.894,0,0,0,3.468.29,21.115,21.115,0,0,0,2.382-.137l2.679,4.141a25.124,25.124,0,0,0,4.162-1.23l-.006-4.93a20.8,20.8,0,0,0,4.821-3.316l4.6,1.774a25.421,25.421,0,0,0,2.647-3.441l-2.9-3.982a20.568,20.568,0,0,0,1.955-5.517Zm-25.094,7.069a9.9,9.9,0,1,1,9.9-9.9A9.9,9.9,0,0,1,1946.135,1063.291Z" transform="translate(-1920.88 -1028.64)" fill="#9ec8ff" opacity="0.5"/><g transform="translate(38.255 18.664)"><path d="M2296.218,1229.035a.5.5,0,0,1-.325-.118.511.511,0,0,1-.066-.719,16.616,16.616,0,0,0,2.928-16,.511.511,0,1,1,.966-.333,17.634,17.634,0,0,1-3.107,16.99A.512.512,0,0,1,2296.218,1229.035Z" transform="translate(-2295.709 -1211.516)" fill="#fff"/></g><g transform="translate(30.932 8.157)"><path d="M2230.358,1113.208a.511.511,0,0,1-.35-.139,16.493,16.493,0,0,0-5.711-3.519.511.511,0,1,1,.348-.96,17.488,17.488,0,0,1,6.062,3.735.509.509,0,0,1,.022.721A.5.5,0,0,1,2230.358,1113.208Z" transform="translate(-2223.96 -1108.56)" fill="#fff"/></g><g transform="translate(20.903 7.137)"><path d="M2126.205,1100.11a.511.511,0,0,1-.125-1.005,17.656,17.656,0,0,1,4.323-.535.51.51,0,0,1,0,1.021,16.683,16.683,0,0,0-4.073.5A.493.493,0,0,1,2126.205,1100.11Z" transform="translate(-2125.696 -1098.57)" fill="#fff"/></g></g></svg>