<svg xmlns="http://www.w3.org/2000/svg" xmlns:xlink="http://www.w3.org/1999/xlink" width="306.384" height="232.896" viewBox="0 0 306.384 232.896"><defs><linearGradient id="a" x1="0.5" y1="0.103" x2="0.5" y2="1.202" gradientUnits="objectBoundingBox"><stop offset="0" stop-color="#9ec8ff"/><stop offset="1" stop-color="#e7f3fe"/></linearGradient></defs><g transform="translate(-1007 -532.63)"><g transform="translate(1007 532.63)" opacity="0.803"><g transform="translate(0 0)"><path d="M326.576,484.6s-40.72-29.243-22.165-67.406,52.144,20.085,75.555-33.781,28.656-95.1,90.981-78.093,36.777,61.65,69.395,66.134,58.391,20.65,43.444,55.606,22.164,57.914,22.164,57.914Z" transform="translate(-299.566 -300.144)" fill="#bedaff"/><path d="M2052.3,350.6l-10.958,1.114,3.418,2.787-27.436,32.921-16.592-21.006-18.909,21.192-7.569-11.8-14.806,15.02,4.771,4.771,8.875-8.875,8.076,11.993,19.477-21.984,16.257,21.243,33.085-39.21,3.426,2.793Z" transform="translate(-1767.676 -350.6)" fill="#ed8c86"/><g transform="translate(230.587 119.708)"><g transform="translate(34.545 25.798)"><path d="M2424.735,1443.5s-4.521-5.274-.279-8.625c0,0,3.1-1.877,5.625-1.724,0,0-3.58,6-2.422,6.6s3.507-6.978,3.507-6.978,7.052-.683,9.32.406c0,0-6.028,4.933-4.76,5.227s7.781-4.549,7.781-4.549,6.564,1.117,6.213,5.12-2.611,5.24-3.605,5.133-6.808-2.326-6.935-1.512,3.373,3.475,5.824,3.6c0,0-4.627,5.1-7.7,3.63s-3.338-3.807-5.255-4.683-3.553-.873-2.761.019,4.261,1.761,5.357,3.7,2.079,3.247-1.1,2.768-8.354-2.807-8.581-5.473S2424.735,1443.5,2424.735,1443.5Z" transform="translate(-2417.094 -1432.561)" fill="#699dee"/><g transform="translate(0 6.495)"><path d="M2433.681,1483.538s-17.826-.687-21.763,4.411a12.9,12.9,0,0,1-3.55,4.982l-.418,1.139s3.089-3.258,4.195-3.454C2412.145,1490.615,2410.416,1484.3,2433.681,1483.538Z" transform="translate(-2404.276 -1483.507)" fill="#699dee"/><path d="M2383.222,1554.352a11.2,11.2,0,0,0-4.093,7.885l.695.063s1.221-5.227,3.431-7.272S2383.222,1554.352,2383.222,1554.352Z" transform="translate(-2379.13 -1544.929)" fill="#699dee"/></g></g><g transform="translate(0 11.478)"><path d="M2134.554,1338.866s7.192-4.028,3.835-9.493c0,0-2.685-3.355-5.561-4.219,0,0,1.533,8.151,0,8.343s-1.055-9.206-1.055-9.206-7.539-1.508-10.51-1.222c0,0,4.661,5.824,3.127,5.631s-6.808-8.246-6.808-8.246-7.767-1.438-9.014,3.164.767,6.9,1.917,7.192,8.534.191,8.343,1.15-5.179,2.494-7.959,1.63c0,0,3.069,7.576,7.1,7.192s5.274-2.876,7.767-3.069,4.316.479,3.069,1.15-5.466.221-7.48,1.932-3.644,2.767.1,3.534,10.452.288,11.794-2.59Z" transform="translate(-2108.175 -1320.242)" fill="#699dee"/><g transform="translate(3.94 4.815)"><path d="M2139.08,1358.01s20.138,6.52,22.439,13.809a15.3,15.3,0,0,0,1.917,7v1.438s-2.11-4.891-3.26-5.561C2160.177,1374.7,2164.683,1368.368,2139.08,1358.01Z" transform="translate(-2139.08 -1358.01)" fill="#699dee"/><path d="M2323.544,1515.1a13.28,13.28,0,0,1,1.335,10.457l-.8-.214s.775-6.322-.849-9.5S2323.544,1515.1,2323.544,1515.1Z" transform="translate(-2299.187 -1494.294)" fill="#699dee"/></g></g><g transform="translate(31.589 0)"><path d="M2362.177,1254.759s-9.48-5.309-5.056-12.513c0,0,3.539-4.424,7.331-5.561,0,0-2.022,10.744,0,11s1.391-12.135,1.391-12.135,9.985-4.8,13.9-4.424c0,0-6.194,10.491-4.171,10.239s8.974-10.871,8.974-10.871,10.239-1.9,11.883,4.172-1.011,9.1-2.528,9.48-11.25.252-11,1.517,6.826,3.287,10.491,2.148c0,0-4.045,9.985-9.354,9.48s-6.952-3.792-10.239-4.045-5.689.632-4.045,1.517,7.2.289,9.859,2.547,4.8,3.648-.126,4.659-13.778.379-15.548-3.413Z" transform="translate(-2355.944 -1230.211)" fill="#afcdfb"/><g transform="translate(1.226 6.347)"><path d="M2417.107,1279.99s-26.545,8.6-29.578,18.2a20.169,20.169,0,0,1-2.528,9.228v1.895s2.781-6.446,4.3-7.331C2389.3,1301.984,2383.357,1293.641,2417.107,1279.99Z" transform="translate(-2382.521 -1279.99)" fill="#699dee"/><path d="M2368.036,1487.054a17.5,17.5,0,0,0-1.759,13.783l1.053-.283s-1.022-8.334,1.12-12.526S2368.036,1487.054,2368.036,1487.054Z" transform="translate(-2365.557 -1459.625)" fill="#699dee"/></g></g><path d="M2275.239,1604.861a18.571,18.571,0,0,0,18.571-18.571h-37.14A18.569,18.569,0,0,0,2275.239,1604.861Z" transform="translate(-2237.738 -1540.892)" fill="#f1a34f"/><path d="M2295.287,1604.728a18.578,18.578,0,0,1-20.877-18.428h4.614A18.574,18.574,0,0,0,2295.287,1604.728Z" transform="translate(-2253.216 -1540.901)" fill="#ffb973"/><path d="M2290.013,1721.39h-33.072a2.292,2.292,0,0,0-2.291,2.291H2292.3A2.292,2.292,0,0,0,2290.013,1721.39Z" transform="translate(-2235.975 -1658.767)" fill="#f1a34f"/><rect width="38.174" height="0.57" transform="translate(18.32 45.398)" fill="#d86713"/></g><g transform="translate(49.199 31.74)"><path d="M1313.63,941.363l-8.026,95.427s-.841,5.784,3.462,5.794c7.074.016,35.212,0,35.212,0s-5.324-1.2-5.26-3.913c.077-3.194,9.38-98.211,9.38-98.211Z" transform="translate(-1226.482 -889.434)" fill="#4a75cb"/><path d="M1362.394,1029c-1.391,0-28.267.088-35.156,0-3-.037-3.529-2.669-3.555-4.373a8.45,8.45,0,0,1,.092-1.42l.209-2.48.532-6.321.469-5.586.6-7.177.509-6.057,5.7-67.808,34.769-.9s-3.919,39.764-6.691,68.71c-.31,3.226-.6,6.318-.876,9.2q-.132,1.383-.256,2.7c-.257,2.739-.492,5.254-.7,7.474-.108,1.17-.208,2.258-.3,3.254-.353,3.9-.561,6.4-.563,6.871a3.99,3.99,0,0,0,.068.772C1357.828,1028.9,1361.871,1029,1362.394,1029Z" transform="translate(-1242.312 -877.586)" fill="#afcdfb"/><path d="M873.646,540.24H706.72l19.549,78.525,2.676,10.754,9.106,36.574H907.207Z" transform="translate(-704.009 -540.24)" fill="#afcdfb"/><path d="M688.169,540.24l-2.709.9L715.9,668.825l3.6-2.731Z" transform="translate(-685.46 -540.24)" fill="#4a75cb"/><path d="M924.21,1530.111h168.115l4.642-2.731H927.812Z" transform="translate(-893.771 -1401.525)" fill="#4a75cb"/><rect width="36.4" height="1.73" transform="translate(125.875 153.187) rotate(180)" fill="#4a75cb"/><path d="M1364.64,1548.8l-.189,1.322-34.231,6.915.469-5.584.224-2.653Z" transform="translate(-1248.017 -1420.215)" fill="#4a75cb"/><path d="M1362.4,1654.094c-1.391,0-28.267.088-35.156,0-3-.037-3.529-2.67-3.555-4.373l34.07-6.41c-.353,3.9-.561,6.4-.563,6.871a4.012,4.012,0,0,0,.068.773C1357.835,1653.994,1361.878,1654.094,1362.4,1654.094Z" transform="translate(-1242.32 -1502.675)" fill="#699dee"/><path d="M982.427,1333.345l-72.109,24.725-6.158-24.74Z" transform="translate(-876.277 -1232.216)" fill="#699dee" opacity="0.2"/><path d="M873.638,540.24H706.71l25.158,101.114,168.741.033Z" transform="translate(-704.001 -540.24)" fill="#699dee"/></g><path d="M1588.962,1403.132a5.719,5.719,0,0,0-5.365-4.492,3.594,3.594,0,0,0-3.618,4.492,5.72,5.72,0,0,0,5.365,4.492A3.594,3.594,0,0,0,1588.962,1403.132Z" transform="translate(-1416.66 -1257.459)" fill="#4a75cb"/><path d="M940.175,674.086H783.88l-17.7-70.512-1.356-5.407-1.159-4.613L760.95,582.74H914.992l2.981,10.814,1.272,4.613,1.49,5.407Z" transform="translate(-702.126 -545.581)" fill="#fff"/><path d="M914.992,582.74H760.95l2.714,10.814H917.973Z" transform="translate(-702.126 -545.581)" fill="#afcdfb"/><g transform="translate(65.154 40.694)"><path d="M811.659,610.47a1.021,1.021,0,0,0-1.015,1.351,1.845,1.845,0,0,0,1.689,1.351,1.021,1.021,0,0,0,1.015-1.351A1.847,1.847,0,0,0,811.659,610.47Z" transform="translate(-810.603 -610.47)" fill="#e9f3fe"/><path d="M846.9,610.47a1.021,1.021,0,0,0-1.015,1.351,1.845,1.845,0,0,0,1.689,1.351,1.021,1.021,0,0,0,1.015-1.351A1.85,1.85,0,0,0,846.9,610.47Z" transform="translate(-841.35 -610.47)" fill="#e9f3fe"/><path d="M886.518,611.821a1.845,1.845,0,0,0-1.689-1.351,1.021,1.021,0,0,0-1.015,1.351,1.846,1.846,0,0,0,1.689,1.351A1.02,1.02,0,0,0,886.518,611.821Z" transform="translate(-874.444 -610.47)" fill="#e9f3fe"/></g><g transform="translate(227.644 81.85)"><path d="M2356.722,1645.51l-1.626,6.853-2.437-.014-.089-6.839Z" transform="translate(-2318.468 -1554.705)" fill="#e49963"/><path d="M2180.333,1641.631l-4.628,6.561-1.805-2.317,2.787-5.146Z" transform="translate(-2162.577 -1550.534)" fill="#e49963"/><path d="M2300.686,934.042a4.72,4.72,0,0,1,2.555-.488,1.2,1.2,0,0,0-.539-.256,3.966,3.966,0,0,1,1.414.368c6.083-2.343,7.039,6.612,6.91,8.693s2.043,2.76,5.208,4.4c6.039,3.127,6.569,7.317,6.569,7.317-.048.028-.1.06-.148.1-.3-.508-.917-1.461-1.437-1.6a21.76,21.76,0,0,1,.836,2.037c-1.781,1.355-5.114,4.358-7.435,6.486a3.433,3.433,0,0,0-.158-1.318l-.287,1.728c-1.244,1.142-2.1,1.947-2.1,1.947.153-1.682-7.605-10.554-11.652-13.212a11.682,11.682,0,0,1-1.362-4.215,11.05,11.05,0,0,0,.829,3.813C2296.461,946.676,2298.457,935.309,2300.686,934.042Z" transform="translate(-2270.896 -933.278)" fill="#163560"/><path d="M2318.559,1026.292a5.611,5.611,0,0,0,3.439.629,4.466,4.466,0,0,0,2.291-2.2c-.591-.117-.762-.931-.75-4.424l-.267.052-4.5.89s.1,1.415.106,2.749C2318.884,1025.112,2318.816,1026.172,2318.559,1026.292Z" transform="translate(-2288.793 -1009.205)" fill="#e49963"/><path d="M2324.2,943.332a3.6,3.6,0,0,0-5-.121A19.572,19.572,0,0,1,2324.2,943.332Z" transform="translate(-2289.353 -941.102)" fill="#e37970"/><path d="M2320.26,1021.61s.1,1.415.106,2.749c2.517-.071,3.846-2.366,4.393-3.639Z" transform="translate(-2290.278 -1009.572)" fill="#d68d5d"/><path d="M2305.843,953.63a13.239,13.239,0,0,0,1.636-3.866c.226-1.272-.422-5.987-5.159-5.309a6.427,6.427,0,0,0-2.67,1.01c-1.029.695-2.513,2.2-.853,6.31l.431,1.39Z" transform="translate(-2270.9 -942.973)" fill="#163560"/><path d="M2179.67,1313.99l2.384.073,2.581.079a50.941,50.941,0,0,0,9.3-17.273q.117-.371.247-.751c1.83-5.336,5.623-12.031,7.622-18.093.319-.965.6-1.874.86-2.735.082-.275.162-.546.239-.812a64.262,64.262,0,0,0,2.292-12.069l-14.434.116A269.267,269.267,0,0,1,2179.67,1313.99Z" transform="translate(-2167.612 -1220.448)" fill="#2b478b"/><path d="M2268.207,1070.255c.037,6.868-1.007,9.816-1.007,9.816a19.392,19.392,0,0,0,13.525.829c.087-.027,6.081-1.4,6.081-1.4-.123-.278-1.216-4.907-1.336-5.162-1.55-3.33-2.728-4.79-2.912-5.814a21.792,21.792,0,0,1-.178-5.754,46.123,46.123,0,0,1,1.781-9.037,47.046,47.046,0,0,1-5.959-2.036,4.652,4.652,0,0,1-3.214,1.192c-1.464-.032-1.938-.659-1.862-1.343-1.559.868-2.8,1.687-2.8,1.687-1.325,2.3-4.012,4.537-4.207,8.068C2266.067,1062.173,2268.206,1070.062,2268.207,1070.255Z" transform="translate(-2243.035 -1036.471)" fill="#e7f1fd"/><path d="M2133.109,1060.051c2.119-2.475,7.609-7.844,13.273-8.5l-4.888,9.524a4.215,4.215,0,0,1-1.723,2.583,28.359,28.359,0,0,1-8.053,3.36,42.326,42.326,0,0,1-7.227-4.389c-1.31-.96-3.612-4.622-3.612-4.622l.621-2.078s3.908,2.185,5.3,2.815c.8.359,2.628,1.216,3.918,1.823A2.016,2.016,0,0,0,2133.109,1060.051Z" transform="translate(-2116.317 -1036.471)" fill="#a8d29f"/><path d="M2300.1,968.848s5.954.1,5.958-3.611.775-6.194-3.025-6.413-4.541,1.195-4.844,2.433S2298.552,968.727,2300.1,968.848Z" transform="translate(-2270.958 -955.548)" fill="#e49963"/><path d="M2315.39,953.1s1.631,4.351,4.132,4.994,3.587-.027,3.587-.027a7.089,7.089,0,0,1-2.318-4.186S2316.62,951.032,2315.39,953.1Z" transform="translate(-2286.028 -949.917)" fill="#163560"/><path d="M2297.927,956.174a5.263,5.263,0,0,0-1.515,1.916c-.3.945-.431,2.889-1,2.823,0,0-1.228-2.958.152-4.631C2297.032,954.508,2297.927,956.174,2297.927,956.174Z" transform="translate(-2268.161 -952.636)" fill="#163560"/><path d="M2090.276,1067.816a3.717,3.717,0,0,0-4.165-2.6c-.381.12-1.5.565-.784,1.758.525.88.753.426,1.579,1.609a2.633,2.633,0,0,0,2.749,1.308Z" transform="translate(-2085.094 -1048.36)" fill="#e49963"/><path d="M2351.445,1696.25a6.6,6.6,0,0,0,.31,2.81s.4,1.817-1.391,1.851-2.229-.135-2.026-1.249.588-3.042.588-3.042Z" transform="translate(-2314.736 -1598.975)" fill="#e49963"/><path d="M2347.321,1720.6s.038.024.112.06h3.5a.816.816,0,0,0,.1-.06,8.776,8.776,0,0,0-.129-2.628c-2.027,1.858-3.3-.046-3.3-.046A9.509,9.509,0,0,0,2347.321,1720.6Z" transform="translate(-2313.887 -1617.891)" fill="#82b378"/><path d="M2140.071,1686.617a44.831,44.831,0,0,0,4.313-5.527l2.454,1.257-5.485,5.151-1.284-.168Z" transform="translate(-2133.061 -1585.748)" fill="#e49963"/><path d="M2124.02,1697.113h4.516a6.425,6.425,0,0,0,1.346-2.087,2.215,2.215,0,0,1,1.494-1v3.05h.937l.887-3.242c.584-1.073.046-2.048-.366-2.9-.478,0-1.765.326-4.2,3.073a3.2,3.2,0,0,1-2.565,1.2.3.3,0,0,1-.036.019A3.274,3.274,0,0,0,2124.02,1697.113Z" transform="translate(-2119.057 -1594.343)" fill="#82b378"/><path d="M2259.406,1051.54s-3.445,8.51-3.546,10.232-.406,28.165-.406,28.165.2,1.217-2.128.709a7.794,7.794,0,0,1-2.937-1.014s2.229-16.312,1.62-21.984,4.66-14.927,4.66-14.927Z" transform="translate(-2229.316 -1036.462)" fill="#a8d29f"/><path d="M2198.36,1385.627l2.581.079a50.937,50.937,0,0,0,9.3-17.273c.078-.247.161-.5.247-.751,1.83-5.336,5.623-12.031,7.622-18.093.319-.965.6-1.874.861-2.735q.122-.413.238-.812l-2.125-1.613s-6.381,10.333-8.357,20.059C2207.012,1372.935,2200.14,1383.1,2198.36,1385.627Z" transform="translate(-2183.919 -1292.01)" fill="#233862"/><path d="M2251.51,1150.632l.125.385,6.681-2.171a.259.259,0,0,0,.042-.238.19.19,0,0,0-.167-.148Z" transform="translate(-2230.293 -1121.026)" fill="#163560"/><path d="M2333.788,1346.607c-.037,4.729.2,15.6.819,20.1h2.286c1.264,0,1.894-.018,1.894-.018,1.545-7.827,2.644-14.3,3.445-19.883.657-4.579,1.24-8.505,1.689-11.885.452-3.4.766-6.249.879-8.656q.027-.568.037-1.105c.008-.359.009-.709.006-1.048l-12.471-1.216C2332.527,1331.187,2333.808,1343.859,2333.788,1346.607Z" transform="translate(-2300.844 -1273.226)" fill="#2b478b"/><path d="M2367.84,1389.771c1.263,0,1.893-.018,1.893-.018,1.545-7.827,2.644-14.3,3.445-19.883.657-4.579,1.241-8.505,1.689-11.885.451-3.4.766-6.249.878-8.656l-4.576,2.692s2.921,1.03,1.807,8.831S2369.392,1388.667,2367.84,1389.771Z" transform="translate(-2331.792 -1296.286)" fill="#233862"/><path d="M2334.058,1090.635s.879,3.174,3.918,2.769a36.648,36.648,0,0,0,7.361-2.229s-1.3-4.1-2.913-9.5c-1.956-6.528-4.375-14.942-5.517-20.25a32.781,32.781,0,0,1-.62-3.618l-2.521-4.892s-3.76,8.437-3.963,10.565S2334.058,1090.635,2334.058,1090.635Z" transform="translate(-2298.599 -1037.666)" fill="#a8d29f"/><path d="M2306.637,1063.149l-3.328-10.249a51.337,51.337,0,0,1,6.313,2.314,14.7,14.7,0,0,1,2.134,5.623s.862,9.417-1.063,12.862c0,0-6.079,1.216-15.8-2.128v-2.229s10.638.557,12.816.811Z" transform="translate(-2268.142 -1037.649)" fill="#e49963"/><path d="M2364.262,1126.172c.135,3.445.946,10.131,8.172,13.711.019.009.038.019.057.027-1.956-6.528-4.375-14.943-5.517-20.25C2365.649,1121.644,2364.188,1124.275,2364.262,1126.172Z" transform="translate(-2328.667 -1095.897)" fill="#82b378"/><path d="M2358.476,1052.9s6.169.435,7.654,3.744,1.958,14.319.068,17.561a17.207,17.207,0,0,1-7.208-.12l-.171-.032s-1.469-3.6-.152-4.305c0,0,3.883.2,3.478-1.081S2358.476,1052.9,2358.476,1052.9Z" transform="translate(-2323.309 -1037.649)" fill="#a8d29f"/><path d="M2267.03,1157.589a5.319,5.319,0,0,1-1.028-2.076,2.258,2.258,0,0,0-2.2-2.018c-1.462-.192-2.092-.213-2.089.2A10.922,10.922,0,0,0,2265,1158.7C2267.1,1160.423,2267.03,1157.589,2267.03,1157.589Z" transform="translate(-2239.192 -1125.303)" fill="#e49963"/><path d="M2247.74,1165.872l.481-.372.125.386Z" transform="translate(-2227.003 -1135.893)" fill="#163560"/></g><path d="M1840.615,923.577a.273.273,0,0,1-.145-.041l-39.014-23.724a.281.281,0,0,1,.292-.481l39.014,23.724a.281.281,0,0,1,.094.386A.284.284,0,0,1,1840.615,923.577Z" transform="translate(-1609.856 -821.773)" fill="#163560"/><g transform="translate(82.719 63.229)"><g transform="translate(0 2.573)"><path d="M994.544,821.37c-.826.7-2.5,2.014-3.167,2.573l1.692,21.161-17.417-7.785-3.167,2.573A21.231,21.231,0,1,0,1014.3,845.1C1014.3,833.381,1006.268,821.37,994.544,821.37Z" transform="translate(-968.848 -819.589)" fill="#82b378"/><path d="M967.261,807.4a21.24,21.24,0,0,0-18.891,15.949l20.584,5.212,3.167-2.573Z" transform="translate(-948.37 -807.4)" fill="#aa413e"/></g><g transform="translate(3.167)"><path d="M1017.909,820.85q-.855,0-1.692.068l1.692,21.161-20.584-5.212a21.232,21.232,0,1,0,20.584-16.017Z" transform="translate(-993.688 -816.562)" fill="#a8d29f"/><path d="M992.1,787.22a21.24,21.24,0,0,0-18.891,15.949l20.584,5.212Z" transform="translate(-973.21 -787.22)" fill="#c65447"/></g></g><path d="M1099.616,760.756a.282.282,0,0,1-.2-.481l12.676-12.676h81.52a.28.28,0,0,1,0,.561h-81.286l-12.511,12.511A.278.278,0,0,1,1099.616,760.756Z" transform="translate(-997.369 -689.422)" fill="#163560"/><path d="M1293.626,939.336a.282.282,0,0,1-.2-.481l13.646-13.646h60.087a.28.28,0,1,1,0,.561h-59.853l-13.48,13.48A.272.272,0,0,1,1293.626,939.336Z" transform="translate(-1166.644 -844.388)" fill="#163560"/><path d="M1271.088,713.6h-83.2l-1.687-2.586h83.2Z" transform="translate(-1073.159 -657.497)" fill="#afcdfb"/><path d="M1449.11,893.937h-60.153l-1.687-2.587h60.153Z" transform="translate(-1248.594 -814.845)" fill="#afcdfb"/><path d="M1503.892,1018.605h-22.165L1471.05,980.63h22.165Z" transform="translate(-1321.693 -892.742)" fill="#afcdfb"/><path d="M1722.012,1018.605h-22.165L1689.17,980.63h22.165Z" transform="translate(-1512.004 -892.742)" fill="#afcdfb"/><g transform="translate(176.159 74.194)"><path d="M1816.55,1009.31s7.537,8.459,7.9,11.694-3.589,8.3-3.589,8.3Z" transform="translate(-1799.302 -991.96)" fill="#aa413e"/><path d="M1722.439,1697.347a19.691,19.691,0,0,1-.625,4.077h-9.424a1.749,1.749,0,0,1,1.388-1.1c1.476-.284,3.946-1.427,4.84-3.576C1719.56,1694.488,1722.439,1697.347,1722.439,1697.347Z" transform="translate(-1708.422 -1590.996)" fill="#163560"/><path d="M1810.658,1697.347a19.755,19.755,0,0,1-.624,4.077h-9.424a1.747,1.747,0,0,1,1.388-1.1c1.475-.284,3.946-1.427,4.84-3.576C1807.779,1694.488,1810.658,1697.347,1810.658,1697.347Z" transform="translate(-1785.395 -1590.996)" fill="#163560"/><path d="M1747.35,1275.124s1.321,9.307,6.247,25.829,5.6,23.677,5.6,23.677l5.285-.163s.045-18.057-2.225-26.364-.49-29.952-.49-29.952Z" transform="translate(-1738.925 -1217.799)" fill="#163560"/><path d="M1727.153,1272.15a248.434,248.434,0,0,0,2.016,31.246c2.2,17.22,1.456,24.531,1.456,24.531l5.275.194s3.152-17.227,2.248-25.847,4.316-29.577,4.316-29.577Z" transform="translate(-1721.299 -1221.289)" fill="#1c468a"/><path d="M1760.24,967.254l-2.81,2.031-4.061-.834c.056-.361.324-1.859.569-3.215.015-.08.029-.161.043-.238.209-1.154.39-2.146.39-2.146l3.793-1.845,1.414-.687c0,.024-.11,1.281-.125,1.464A11.6,11.6,0,0,0,1760.24,967.254Z" transform="translate(-1744.177 -949.216)" fill="#ffb27d"/><path d="M1738.305,1041.216c-.816,4.1-14.389,4.586-17.889.865-.4-.425-.418-2.4-.268-5.059.293-5.2,1.237-13.021,1.274-17.017a34.742,34.742,0,0,1,.579-5.7,50.028,50.028,0,0,1,1.721-6.817s6.63-2.362,7.87-1.96C1737.571,1007.468,1739.121,1037.116,1738.305,1041.216Z" transform="translate(-1715.116 -988.624)" fill="#c65447"/><path d="M1720.75,1092.1c.293-5.2,1.237-13.021,1.274-17.017a34.756,34.756,0,0,1,.579-5.7l3.988-.775S1730.489,1086.161,1720.75,1092.1Z" transform="translate(-1715.716 -1043.699)" fill="#aa413e"/><path d="M1729.912,1191.3a1.109,1.109,0,0,1-.3,1.2,2.088,2.088,0,0,0-.811,1.829c.131.569,1.383,1.5,1.817,1.348s1.317-.9,1.222-1.2.594-2.635-.464-3.534A.833.833,0,0,0,1729.912,1191.3Z" transform="translate(-1722.719 -1150.155)" fill="#ffb27d"/><path d="M1692.92,1012.96s-3.89.8-6.989,5.835-5.138,8.775-4.567,10.589,5.774,8.1,6.672,8.1a2.487,2.487,0,0,0,2.426-2.337s-3.664-6.051-2.943-6.957c.308-.387,4.757-4.367,5.392-2.569C1693.963,1028.6,1692.92,1012.96,1692.92,1012.96Z" transform="translate(-1681.268 -995.144)" fill="#c65447"/><path d="M1763.061,966.542c-.833,1.555-3.937,2.9-5.231,3.394.015-.08.029-.161.043-.238.209-1.154.39-2.146.39-2.146l3.793-1.845C1762.894,965.7,1763.4,965.9,1763.061,966.542Z" transform="translate(-1748.069 -953.915)" fill="#fca56b"/><path d="M1744.781,902.352s6.109,2.1,7.238-2.113,2.677-6.78-1.177-8.3-5.045-.159-5.732,1.146S1743.22,901.7,1744.781,902.352Z" transform="translate(-1736.016 -888.97)" fill="#ffb27d"/><path d="M1750.538,876.934s.39,4.9,1.309,4.691,1.754-.371,1.619,1.107-1.41,3.185,1.425,3.446,6.911-7.8,6.132-9.322C1758.779,872.452,1747.29,871.564,1750.538,876.934Z" transform="translate(-1741.206 -873.223)" fill="#163560"/><path d="M1750.4,996.9c.079-.037,4.891-1.6,5.413-1.411s.833,1.3.833,1.3l-7.87,1.961A4.2,4.2,0,0,1,1750.4,996.9Z" transform="translate(-1740.173 -979.888)" fill="#aa413e"/></g><g transform="translate(0.795 114.661)"><path d="M305.8,1260.59h81.628l17.078-69.96H322.878Z" transform="translate(-305.8 -1190.63)" fill="#c67022"/><path d="M538.7,1260.59H457.068l-17.078-69.96h81.628Z" transform="translate(-422.882 -1190.63)" fill="#699dee"/><path d="M571.387,1283.76H499.012l-15.142-62.03h72.375Z" transform="translate(-461.167 -1217.765)" fill="#fff"/><path d="M305.8,1716.6l17.337-3.326,16.85,3.326Z" transform="translate(-305.8 -1646.637)" fill="#aa5d17"/></g><path d="M501.519,1133.26a7.562,7.562,0,0,0-7.549,7.339h3.022a4.532,4.532,0,1,1,4.527,4.748,1.511,1.511,0,1,0,0,3.022,7.554,7.554,0,1,0,0-15.108Z" transform="translate(-469.185 -1025.913)" fill="#1c468a"/><path d="M651.629,1133.26a7.562,7.562,0,0,0-7.549,7.339H647.1a4.532,4.532,0,1,1,4.527,4.748,1.511,1.511,0,0,0,0,3.022,7.554,7.554,0,1,0,0-15.108Z" transform="translate(-600.156 -1025.913)" fill="#1c468a"/><path d="M801.739,1133.26a7.562,7.562,0,0,0-7.549,7.339h3.022a4.532,4.532,0,1,1,4.527,4.748,1.511,1.511,0,0,0,0,3.022,7.554,7.554,0,1,0,0-15.108Z" transform="translate(-731.128 -1025.913)" fill="#1c468a"/><path d="M951.839,1133.26a7.562,7.562,0,0,0-7.549,7.339h3.023a4.532,4.532,0,1,1,4.527,4.748,1.511,1.511,0,0,0,0,3.022,7.554,7.554,0,1,0,0-15.108Z" transform="translate(-862.092 -1025.913)" fill="#1c468a"/><path d="M563.408,1318.62H547.163l-2.943-10.969h16.245Z" transform="translate(-513.028 -1178.069)" fill="#afcdfb"/><path d="M744.846,1318.62H728.6l-2.943-10.969h16.245Z" transform="translate(-671.336 -1178.069)" fill="#afcdfb"/><path d="M918.5,1318.62H902.251l-2.941-10.969h16.244Z" transform="translate(-822.846 -1178.069)" fill="#afcdfb"/><path d="M597.017,1437.948H580.773l-2.943-10.968h16.245Z" transform="translate(-542.353 -1282.185)" fill="#afcdfb"/><path d="M778.457,1437.948H762.213l-2.943-10.968h16.244Z" transform="translate(-700.661 -1282.185)" fill="#afcdfb"/><path d="M952.1,1437.948H935.853l-2.943-10.968h16.245Z" transform="translate(-852.162 -1282.185)" fill="#afcdfb"/><path d="M631.617,1559.768H615.373L612.43,1548.8h16.245Z" transform="translate(-572.542 -1388.474)" fill="#afcdfb"/><path d="M813.056,1559.768H796.813L793.87,1548.8h16.244Z" transform="translate(-730.849 -1388.474)" fill="#afcdfb"/><path d="M986.7,1559.768H970.453L967.51,1548.8h16.245Z" transform="translate(-882.351 -1388.474)" fill="#afcdfb"/><path d="M322.908,1190.63l.228,66.634L305.8,1260.59Z" transform="translate(-305.005 -1075.969)" fill="#d88029"/></g></g><path d="M666.554,1895.633c-.354-.173-.66-.306-.95-.469a2.2,2.2,0,0,1-.709-.633c-.192-.265-.363-.546-.57-.86a3.159,3.159,0,0,1-2.306,1.924c.227.093.373.151.516.212a2.612,2.612,0,0,1,1.495,3.2,2.584,2.584,0,0,1-2.9,1.814,2.621,2.621,0,0,1-.6-5.019c.131-.053.263-.1.438-.17-.34-.15-.644-.268-.931-.415a2.231,2.231,0,0,1-.735-.6c-.2-.26-.379-.545-.577-.834-.141.064-.158.219-.235.327-.092.13-.175.268-.274.391a2.766,2.766,0,0,1-.295.312,3.011,3.011,0,0,1-.337.266,2.735,2.735,0,0,1-.371.217,4.716,4.716,0,0,1-.445.172c-.134.047-.271.088-.46.151.185.059.319.1.452.144a2.6,2.6,0,1,1-1.6-.01c.12-.039.243-.071.439-.126a4.06,4.06,0,0,1-1.557-.738,3.145,3.145,0,0,1-.9-1.363c-.189.031-.177.168-.22.259a2.92,2.92,0,0,1-2.017,1.683,2.758,2.758,0,0,1-2.425-.556,2.8,2.8,0,0,1-.87-1.122c-.042-.095-.035-.23-.194-.267a2.87,2.87,0,0,1-5.551-.419c-.138.065-.133.2-.165.309a2.792,2.792,0,0,1-5.215.424c-.1-.216-.172-.443-.257-.67-.158.048-.144.2-.181.307a2.7,2.7,0,0,1-.627,1.061,2.735,2.735,0,0,1-4.714-1.648,2.641,2.641,0,0,1,1.356-2.607c.107-.068.219-.128.328-.193.012-.006.015-.025.037-.067-.105-.136-.293-.154-.431-.248s-.3-.173-.447-.276a2.744,2.744,0,0,1-.361-.312,3.861,3.861,0,0,1-.337-.4c-.1-.14-.192-.291-.305-.467-.056.048-.112.076-.138.121a3.128,3.128,0,0,1-1.873,1.466.615.615,0,0,0-.107.064c.1.141.258.161.389.218a2.663,2.663,0,0,1,1.289,1.164,2.694,2.694,0,0,1-3.2,3.868,2.677,2.677,0,0,1-1.839-2.489,2.65,2.65,0,0,1,1.617-2.541c.128-.058.257-.118.44-.2a4.806,4.806,0,0,1-1.37-.731,4.055,4.055,0,0,1-.849-1.181c-.135-.022-.138.083-.181.139a1.27,1.27,0,0,0-.091.167,2.923,2.923,0,0,1-4.835.423,4.319,4.319,0,0,1-.378-.606c-.056-.093-.1-.192-.148-.278-.14-.005-.126.1-.164.16s-.056.114-.085.171a2.752,2.752,0,0,1-1.137,1.193,2.839,2.839,0,0,1-4.132-1.726c-.037-.138-.066-.277-.1-.419-.157.037-.124.17-.148.268a2.76,2.76,0,0,1-4.372,1.587,2.605,2.605,0,0,1-1.032-2.619,2.644,2.644,0,0,1,1.455-2.013c.1-.052.2-.1.294-.158a.143.143,0,0,0,.03-.036,3.8,3.8,0,0,1-1.936-1.725c-.158.116-.21.312-.335.447s-.246.294-.387.422a2.97,2.97,0,0,1-.457.343,3.662,3.662,0,0,1-.513.253c-.169.069-.346.117-.611.2.23.087.371.142.513.195a2.678,2.678,0,0,1,1.074,4.289,2.686,2.686,0,0,1-2.88.747,2.67,2.67,0,0,1-.236-4.955c.2-.089.408-.158.641-.248-.085-.131-.211-.109-.3-.147s-.212-.072-.315-.113a2.975,2.975,0,0,1-.3-.138,2.675,2.675,0,0,1-.283-.177,3.728,3.728,0,0,1-.3-.239,2.939,2.939,0,0,1-.236-.237,2.86,2.86,0,0,1-.21-.261,3.247,3.247,0,0,1-.173-.286c-.053-.1-.1-.2-.148-.3s-.09-.188-.157-.332c-.163.225-.2.454-.322.631a4.641,4.641,0,0,1-.4.534,2.881,2.881,0,0,1-.509.431,2.719,2.719,0,0,1-.6.3,2.859,2.859,0,0,1-.652.138,3.273,3.273,0,0,1-.667-.005,2.7,2.7,0,0,1-1.608-.769,3.322,3.322,0,0,1-.854-1.585c-.068.188-.118.318-.161.45a2.732,2.732,0,1,1-3.811-3.335c.114-.057.225-.116.337-.177.01-.005.011-.027.028-.076-.156-.114-.356-.162-.526-.267a4.123,4.123,0,0,1-.475-.318,3.37,3.37,0,0,1-.438-.438,3.068,3.068,0,0,1-.315-.477c-.1-.18-.175-.372-.272-.58a1.091,1.091,0,0,0-.243.417,2.9,2.9,0,0,1-1.634,1.457,2.807,2.807,0,0,1-3.162-.963,2.754,2.754,0,0,1-.291-2.976,1.182,1.182,0,0,1,.095-.165c.026-.039.06-.073.109-.133a14.51,14.51,0,0,1,1.552-.027c.51-.009,1.021,0,1.531,0h1.594c.145.261.281.508.437.789.136-.276.255-.515.375-.758.113-.011.206-.028.3-.028q2.2,0,4.4,0c.26,0,.26.005.509.183a.606.606,0,0,1,.508-.183c.128,0,.255,0,.382,0H759.813a.605.605,0,0,1,.508.18c.26-.173.26-.179.467-.179q2.319,0,4.639,0a1.417,1.417,0,0,1,.168.023l.328.527.35-.54h4.708a2.606,2.606,0,0,1,.5,1.2c.126.028.118-.058.127-.109a2.711,2.711,0,0,1,.446-1.063,5.944,5.944,0,0,1,1.133-.038c.367-.009.733,0,1.1,0H776.5a2.671,2.671,0,0,1,.192,2.949,2.765,2.765,0,0,1-2.654,1.365,2.847,2.847,0,0,1-2.483-2.363c-.131.021-.114.134-.132.22a2.765,2.765,0,0,1-.929,1.576,2.687,2.687,0,0,1-.859.509c-.192.067-.384.13-.646.219.221.08.381.139.542.195a2.458,2.458,0,0,1,1.274.964,2.545,2.545,0,0,1,.136,2.843,2.51,2.51,0,0,1-2.463,1.345,2.536,2.536,0,0,1-2.311-1.663,2.637,2.637,0,0,1,1.541-3.48c.161-.055.319-.119.509-.19a3.443,3.443,0,0,1-2.306-1.828,3.734,3.734,0,0,1-1.937,1.863c.106.063.194.121.287.169a2.706,2.706,0,0,1,1.538,2.216,2.756,2.756,0,0,1-5.343,1.178c-.061-.163-.112-.33-.186-.553a2.85,2.85,0,0,0-.118.293,2.952,2.952,0,0,1-.7,1.291,2.854,2.854,0,0,1-4.59-.59c-.08-.148-.156-.3-.262-.5a4.212,4.212,0,0,1-.886,1.345,3.537,3.537,0,0,1-1.361.727c-.016.113.048.131.107.152a3.184,3.184,0,0,1,.848.432,2.694,2.694,0,0,1-1.562,4.856,2.7,2.7,0,0,1-1.1-5.181c.132-.054.264-.105.389-.155.023-.1-.03-.121-.094-.14a3.3,3.3,0,0,1-.95-.438,2.987,2.987,0,0,1-.793-.818c-.059-.088-.13-.171-.213-.277a4.166,4.166,0,0,1-.832,1.012c-.331.239-.688.443-1.032.662a2.923,2.923,0,0,1,1.714,3.275,2.85,2.85,0,0,1-2.387,2.122,2.78,2.78,0,0,1-2.5-1.016,2.843,2.843,0,0,1-.569-1.231c-.2.058-.164.195-.2.291a2.862,2.862,0,0,1-5.278.518c-.064-.124-.124-.251-.184-.373-.215.333-.4.663-.63.968a2.144,2.144,0,0,1-.852.68c-.346.154-.713.262-1.092.4.047.084.148.066.222.085a2.755,2.755,0,0,1,1.7,1.153,2.639,2.639,0,1,1-4.564,2.633,2.619,2.619,0,0,1,1.023-3.453,8.1,8.1,0,0,1,1.034-.425.859.859,0,0,0-.18-.078,2.97,2.97,0,0,1-2.175-1.63,1.176,1.176,0,0,0-.137-.167,4.744,4.744,0,0,1-.852,1.169,3.944,3.944,0,0,1-1.261.693c.053.156.185.177.291.221a2.477,2.477,0,0,1,.927.661,2.592,2.592,0,0,1,.5,2.847,2.7,2.7,0,0,1-4.917.174,2.677,2.677,0,0,1,1.267-3.64c.129-.059.254-.123.422-.2a1.793,1.793,0,0,0-.474-.237c-.138-.079-.289-.136-.422-.221a3.481,3.481,0,0,1-.419-.316,3.072,3.072,0,0,1-.328-.347c-.111-.133-.209-.276-.333-.441-.188.137-.247.346-.382.492a5.917,5.917,0,0,1-.435.442,3.493,3.493,0,0,1-.467.332c-.173.105-.356.193-.52.279,0,.135.083.16.15.194a2.7,2.7,0,0,1,1.537,2.27,2.565,2.565,0,0,1-.624,1.952,2.753,2.753,0,0,1-4.833-1.246,2.735,2.735,0,0,1,1.325-2.889c.118-.069.276-.086.35-.263-.22-.119-.449-.224-.656-.359a3.734,3.734,0,0,1-.557-.447c-.18-.177-.332-.382-.508-.59a10.017,10.017,0,0,1-.774.837,9.313,9.313,0,0,1-.927.637c.086.068.164.138.251.194a2.757,2.757,0,0,1,1.212,1.6,2.658,2.658,0,0,1-.832,2.862,2.776,2.776,0,0,1-4.444-1.031c-.069-.173-.132-.348-.209-.549a1.019,1.019,0,0,0-.21.452,2.772,2.772,0,0,1-2.386,1.872,2.827,2.827,0,0,1-2.791-1.47c-.082-.154-.155-.312-.253-.509-.063.109-.115.18-.15.259a2.9,2.9,0,0,1-2.278,1.768,2.919,2.919,0,0,1-3.034-1.7c-.044-.1-.092-.2-.159-.344a1.576,1.576,0,0,0-.137.214,2.979,2.979,0,0,1-2.034,1.8c-.091.026-.179.061-.318.108.173.057.3.1.43.142a2.61,2.61,0,1,1-1.6-.013c.12-.039.243-.072.391-.115-.35-.134-.678-.24-.987-.385a2.224,2.224,0,0,1-.786-.614c-.217-.269-.407-.559-.611-.845a3.5,3.5,0,0,1-2.2,1.848c.179.078.338.144.494.216a2.631,2.631,0,1,1-2.219,0c.155-.073.312-.14.492-.221a2.2,2.2,0,0,0-4.354.005c.146.072.271.135.4.193a2.591,2.591,0,0,1,1.435,1.639,2.648,2.648,0,1,1-3.826-1.54c.18-.1.369-.179.6-.291-.219-.137-.435-.178-.616-.285a4.725,4.725,0,0,1-.6-.389,3.209,3.209,0,0,1-.462-.482c-.138-.17-.251-.362-.363-.529-.109-.033-.139.036-.166.086a3.157,3.157,0,0,1-1.741,1.487c-.058.021-.112.052-.215.1.161.082.282.148.407.208a2.583,2.583,0,0,1,1.262,1.254,2.654,2.654,0,1,1-3.613-1.216,1.26,1.26,0,0,0,.47-.263,4.31,4.31,0,0,1-1.257-.707,5.587,5.587,0,0,1-.846-1.124,4.419,4.419,0,0,1-.838,1.141,3.943,3.943,0,0,1-1.208.672c.05.192.226.179.34.234a2.594,2.594,0,0,1,1.325,1.383,2.652,2.652,0,1,1-5.1,1.1,2.529,2.529,0,0,1,1.419-2.422c.151-.083.311-.148.51-.242a7.984,7.984,0,0,1-.871-.44,3.466,3.466,0,0,1-.682-.591,8.091,8.091,0,0,1-.56-.8c-.157.111-.183.312-.293.453s-.224.312-.354.45a3.139,3.139,0,0,1-.431.376,3.772,3.772,0,0,1-.491.294c-.165.086-.339.153-.561.251l.422.208a2.581,2.581,0,0,1,1.5,2.124,2.649,2.649,0,1,1-5.28.422,2.527,2.527,0,0,1,1.344-2.463c.162-.095.337-.17.511-.256-.017-.136-.137-.12-.206-.16-.1-.055-.2-.088-.305-.136a2.471,2.471,0,0,1-.254-.133,2.325,2.325,0,0,1-.236-.163q-.131-.1-.255-.216a2.6,2.6,0,0,1-.2-.2,2.332,2.332,0,0,1-.181-.223c-.064-.09-.119-.188-.18-.282s-.1-.157-.173-.26c-.171.123-.227.31-.337.453a4.028,4.028,0,0,1-.337.4,3.456,3.456,0,0,1-.44.365,3.271,3.271,0,0,1-.454.261c-.172.082-.352.146-.53.219.031.151.162.137.254.176a2.586,2.586,0,0,1,1.34,1.172,2.544,2.544,0,0,1-.062,2.682,2.484,2.484,0,0,1-2.377,1.238,2.615,2.615,0,0,1-2.443-3.161,2.549,2.549,0,0,1,1.411-1.827C666.185,1895.79,666.346,1895.726,666.554,1895.633Zm92.114-16.954a3.531,3.531,0,0,1,1.607,2.193c.076-.212.135-.406.216-.592a2.911,2.911,0,0,1,.661-.982,4.239,4.239,0,0,1,.451-.353c.158-.118.379-.145.512-.307a8.99,8.99,0,0,1-1.01-.665,8.881,8.881,0,0,1-.8-.9c-.147.214-.273.432-.432.622a3.921,3.921,0,0,1-.541.536C759.132,1878.395,758.909,1878.519,758.669,1878.679Zm-163.937-.038a3.334,3.334,0,0,1,1.293.83,3.6,3.6,0,0,1,.682,1.345c.025-.031.04-.042.045-.056.022-.06.043-.119.061-.18a2.794,2.794,0,0,1,1.4-1.778c.047-.025.079-.08.116-.118a9.163,9.163,0,0,1-.931-.69,9.548,9.548,0,0,1-.751-.9A3.839,3.839,0,0,1,594.732,1878.641Zm18.872,8.043a3.4,3.4,0,0,1,1.592-2.315,9.608,9.608,0,0,1-.915-.662,9.056,9.056,0,0,1-.727-.829,8.6,8.6,0,0,1-.807.828,9.343,9.343,0,0,1-1.012.62,6.781,6.781,0,0,1,.665.393,2.949,2.949,0,0,1,.554.521,3.37,3.37,0,0,1,.413.694A6.673,6.673,0,0,1,613.6,1886.685Zm22.539,1.937c-.143.172-.258.323-.387.461a3.224,3.224,0,0,1-.384.355c-.151.115-.32.2-.477.312s-.351.123-.5.293c.125.072.224.117.313.179a6.791,6.791,0,0,1,.647.48,2.517,2.517,0,0,1,.678,1.078c.042.123.029.291.2.359a.9.9,0,0,0,.059-.133,2.861,2.861,0,0,1,1.418-1.831c.045-.025.073-.083.111-.13a9.028,9.028,0,0,1-.887-.6A10.51,10.51,0,0,1,636.143,1888.622Zm107.164-2.162a3.244,3.244,0,0,1,1.809-2.139,8.568,8.568,0,0,1-.927-.573,9.985,9.985,0,0,1-.822-.818c-.148.191-.28.388-.439.557a4.9,4.9,0,0,1-.566.51c-.183.142-.39.256-.593.388A3.433,3.433,0,0,1,743.307,1886.46ZM643.36,1890.1a10.3,10.3,0,0,1-.864-.609,10.176,10.176,0,0,1-.7-.74,9.765,9.765,0,0,1-.725.722,10.456,10.456,0,0,1-.881.588,1,1,0,0,0,.145.129,2.8,2.8,0,0,1,1.4,1.836.827.827,0,0,0,.117.2c.082-.244.14-.46.228-.663a2.8,2.8,0,0,1,.3-.539,3.409,3.409,0,0,1,.443-.5C642.978,1890.373,643.161,1890.25,643.36,1890.1Zm71.77-1.3a.849.849,0,0,0-.137.119,3.667,3.667,0,0,1-1.26,1.077c-.045.023-.069.085-.1.13a3.138,3.138,0,0,1,1.4,1.9c.016.043.042.081.1.185a3.726,3.726,0,0,1,.561-1.254,4.424,4.424,0,0,1,1.019-.88,9.931,9.931,0,0,1-.852-.565A9.387,9.387,0,0,1,715.13,1888.8Zm-112.792-8.3a3.841,3.841,0,0,1,1.3-1.754c-.18-.133-.364-.256-.531-.4s-.3-.288-.448-.429-.231-.369-.424-.505c-.063.072-.107.116-.145.164a3.381,3.381,0,0,1-1.162.971c-.063.032-.155.053-.139.158A3.405,3.405,0,0,1,602.338,1880.5Zm45.075,11.325c.073-.077.117-.1.132-.143a3.018,3.018,0,0,1,1.127-1.438.5.5,0,0,0,.1-.138c-.258-.18-.5-.329-.719-.511s-.424-.412-.609-.594c-.163.143-.3.272-.45.393s-.32.258-.488.378c-.15.106-.309.2-.471.3.292.263.571.493.822.75A2.757,2.757,0,0,1,647.413,1891.825Zm-28.23-8.583c-.157.158-.295.309-.447.445s-.3.237-.447.353a4.215,4.215,0,0,0-.53.345c.18.13.337.231.48.349a2.983,2.983,0,0,1,.377.36,3.7,3.7,0,0,1,.332.463c.1.155.174.32.276.513a8.869,8.869,0,0,1,.57-.913,8.678,8.678,0,0,1,.747-.742c-.235-.17-.489-.329-.712-.521S619.408,1883.473,619.183,1883.242Zm136.928-4.573a3.766,3.766,0,0,1-1.4-1.167c-.156.188-.279.349-.416.5a4.872,4.872,0,0,1-.413.4c-.154.132-.32.248-.484.373a9,9,0,0,1,.691.751,8.694,8.694,0,0,1,.5.859A3.8,3.8,0,0,1,756.11,1878.669Zm-46.593,10.352c-.225.216-.42.425-.638.607s-.454.331-.685.5a9.461,9.461,0,0,1,.75.766,8.08,8.08,0,0,1,.526.862,8.689,8.689,0,0,1,.6-.931,8.056,8.056,0,0,1,.792-.738c-.258-.172-.508-.314-.73-.491S709.717,1889.21,709.517,1889.021Zm26.92-4.584c.188.168.362.3.509.464a4.571,4.571,0,0,1,.435.562c.117.177.2.373.321.594.1-.2.167-.359.257-.507a3.573,3.573,0,0,1,.332-.463c.113-.132.255-.237.375-.362s.336-.164.416-.34c-.044-.047-.06-.079-.086-.092a3.665,3.665,0,0,1-1.119-.869.621.621,0,0,0-.163-.1A4.392,4.392,0,0,1,736.437,1884.437Zm-83.342,7.393c.123-.253.2-.459.319-.644a4.247,4.247,0,0,1,.428-.57c.144-.163.315-.3.493-.468-.241-.178-.467-.324-.669-.5s-.4-.39-.612-.593c-.215.2-.4.4-.609.568s-.453.328-.687.494A3.948,3.948,0,0,1,653.095,1891.83Zm52.05-1.7c-.243-.171-.47-.314-.675-.482s-.41-.379-.625-.58c-.214.214-.394.416-.6.592s-.419.319-.636.483a8.834,8.834,0,0,1,.706.745,9.552,9.552,0,0,1,.542.909c.118-.234.209-.453.333-.652a3.4,3.4,0,0,1,.41-.524C704.763,1890.454,704.948,1890.308,705.144,1890.133Zm-81.55-5.72a8.617,8.617,0,0,1,.7.667,9.93,9.93,0,0,1,.576.839c.16-.265.289-.518.457-.742s.4-.448.613-.691c-.2-.16-.4-.309-.592-.474s-.358-.35-.554-.545c-.2.182-.381.359-.577.514S623.8,1884.268,623.594,1884.414Zm108.51-.88-1.089.961c.149.15.29.276.414.419s.23.305.347.456.132.353.344.5a3.557,3.557,0,0,1,1.132-1.408C732.863,1884.147,732.5,1883.851,732.1,1883.534Zm-68.925,6.641a3.437,3.437,0,0,1,1.153,1.459c.176-.284.309-.537.48-.762s.4-.445.616-.687c-.2-.156-.379-.306-.57-.44s-.328-.38-.562-.493c-.185.169-.343.324-.514.465S663.411,1890,663.18,1890.176Zm-4.461-.962c-.217.193-.389.357-.574.508s-.373.279-.544.406c.215.232.422.429.6.652s.338.492.523.767c.165-.253.3-.5.476-.721.186-.234.41-.438.639-.678-.2-.15-.393-.283-.573-.433S658.916,1889.395,658.718,1889.214Zm39.515.049-1.091.913c.2.207.407.4.581.621s.316.472.493.744c.153-.165.205-.374.334-.53s.244-.293.364-.44.335-.234.423-.425Zm-5.682,2.349c.185-.292.344-.545.506-.8s.442-.4.6-.669c-.2-.147-.378-.273-.549-.413s-.352-.31-.532-.469c-.183.173-.349.32-.5.478s-.4.245-.557.466A3.733,3.733,0,0,1,692.551,1891.613Zm-16.924-.1c.155-.243.282-.48.446-.69s.379-.419.593-.652c-.193-.151-.369-.28-.535-.42s-.328-.3-.5-.458c-.175.159-.335.312-.5.454s-.343.272-.538.424c.2.217.4.4.557.613S675.458,1891.257,675.627,1891.514Zm6.717-1.337-1.06-.869c-.185.168-.356.31-.51.469s-.387.211-.5.414c.2.22.4.407.56.617s.294.445.462.7c.158-.242.289-.476.451-.682S682.129,1890.411,682.344,1890.178Zm-11.347.009-1-.821-1.019.831c.141.141.268.258.383.385s.223.27.33.408.151.307.322.426A4.5,4.5,0,0,1,671,1890.187Zm-64.17-11.419c.151.131.3.247.431.377s.231.261.351.387.174.332.33.436l.9-1.156c-.152-.133-.309-.286-.482-.416s-.276-.388-.509-.459Zm80.094,12.678c.186-.271.327-.477.469-.683s.4-.354.535-.6c-.182-.137-.341-.266-.509-.381s-.285-.337-.5-.406l-.982.81A4.372,4.372,0,0,1,686.921,1891.447Zm62.105-11.5a3.8,3.8,0,0,1,.982-1.161c-.184-.141-.341-.271-.508-.387s-.271-.308-.482-.394c-.268.33-.616.553-.871.84C748.435,1879.207,748.7,1879.541,749.026,1879.947Zm-118.5,5.668.832-1.092-.885-.77-.888.724C629.9,1884.864,630.205,1885.228,630.525,1885.615Zm95.977-1.81-.824.713.777.989c.147-.191.276-.366.411-.535s.356-.3.465-.512C727.05,1884.236,726.791,1884.032,726.5,1883.8Zm-112.944-4.066.572-.777a4.462,4.462,0,0,0-.754-.654c-.193.206-.457.306-.588.538C613.049,1879.148,613.3,1879.434,613.559,1879.739Zm107.955,4.8a2.783,2.783,0,0,0-.652-.53c-.126.11-.238.2-.337.3s-.255.14-.268.316c.141.185.281.375.428.559a1.408,1.408,0,0,0,.167.151Zm21.97-6.211a3.6,3.6,0,0,0-.643.642c.1.13.189.241.275.355s.162.222.263.361c.135-.162.249-.291.352-.426s.282-.244.378-.436Zm-108,6.209.676.788a6.865,6.865,0,0,0,.575-.733,2.774,2.774,0,0,0-.684-.522Zm6.376-.417a2.2,2.2,0,0,0-.57.524c.182.174.3.4.513.574a3.905,3.905,0,0,0,.514-.7Zm73.247,1.037a2.055,2.055,0,0,0,.5-.577,1.911,1.911,0,0,0-.528-.429,1.177,1.177,0,0,0-.464.406Zm-67.7-.166a1.913,1.913,0,0,0,.451-.565c-.068-.042-.134-.083-.2-.123l-.207-.125-.409.365Zm5.308-.495a.836.836,0,0,0,.369.373,1.621,1.621,0,0,0,.375-.46c-.115-.093-.222-.18-.34-.274A1.189,1.189,0,0,0,652.711,1884.494Zm-33.443-5.9-.433.373.328.369a1.045,1.045,0,0,0,.414-.5Zm90.188,5.57c-.119.1-.2.168-.281.242-.019.018-.017.058-.035.123.12.108.195.285.369.385a.743.743,0,0,0,.336-.416Zm-5.266.332a.692.692,0,0,0-.356-.344.524.524,0,0,0-.34.321l.33.375C704.017,1884.788,704.081,1884.635,704.19,1884.494Zm33.876-5.549-.371-.32a.293.293,0,0,0-.284.254c.11.116.176.282.361.369Zm-113.489-.052.224.238c.12-.143.216-.257.357-.423l-.186-.163A.662.662,0,0,0,624.577,1878.893Zm39.85,5.21c-.2.128-.344.176-.355.37l.23.2a.472.472,0,0,0,.3-.389Zm-5.741.618c.165-.09.271-.172.3-.346l-.256-.2-.287.265Zm34.173-.335-.283-.252c-.122.066-.24.114-.235.3.069.064.155.143.26.239Zm5.606.069c-.257-.32-.277-.321-.494-.032l.264.28Zm33.641-5.368c.224-.251.224-.3.045-.448-.121-.1-.161-.085-.331.132Zm-56.458,5.054c-.142.055-.251.114-.248.294l.238.208.251-.273Zm5.391.236.234.244c.263-.185.294-.241.208-.348C681.359,1884.123,681.281,1884.136,681.039,1884.377ZM670,1884.155c-.077.1-.156.161-.165.231-.006.047.077.124.137.157s.209-.073.193-.148S670.078,1884.259,670,1884.155Zm16.981.391a.632.632,0,0,0,.117-.188c.018-.075-.126-.18-.195-.144a.288.288,0,0,0-.134.163C686.749,1884.461,686.857,1884.555,686.984,1884.545Zm-56.388-5.96a.256.256,0,0,0-.065.013c-.069.039-.127.086-.1.177a.044.044,0,0,0,.034.025c.094,0,.134-.056.148-.138C630.619,1878.649,630.609,1878.633,630.6,1878.585Zm-39.662,2.715a2.637,2.637,0,1,0-2.65,2.629A2.629,2.629,0,0,0,590.935,1881.3ZM624.7,1892.69a2.623,2.623,0,1,0-2.64,2.585A2.622,2.622,0,0,0,624.7,1892.69Zm132.669-8.331a2.606,2.606,0,0,0-.01,5.212,2.606,2.606,0,1,0,.01-5.212Zm-157.8.023a2.586,2.586,0,1,0,2.574,2.581A2.577,2.577,0,0,0,599.562,1884.382Zm107.109,11.266a2.581,2.581,0,1,0,2.568,2.591A2.579,2.579,0,0,0,706.671,1895.648Zm33.792-5.578a2.58,2.58,0,1,0,2.548,2.608A2.556,2.556,0,0,0,740.463,1890.069Zm-92.768,8.18a2.57,2.57,0,1,0,2.562-2.594A2.543,2.543,0,0,0,647.7,1898.25Zm-31.174-8.164a2.563,2.563,0,1,0,2.536,2.579A2.529,2.529,0,0,0,616.521,1890.086Zm155.233-8.8a2.553,2.553,0,1,0,2.556-2.557A2.519,2.519,0,0,0,771.754,1881.291Zm-56.976,16.961a2.537,2.537,0,1,0-2.537,2.512A2.52,2.52,0,0,0,714.777,1898.252Zm-67.557.01a2.528,2.528,0,1,0-2.552,2.492A2.528,2.528,0,0,0,647.22,1898.262ZM582.6,1878.778a2.515,2.515,0,1,0,2.532,2.5A2.49,2.49,0,0,0,582.6,1878.778Zm180.462,5.681a2.508,2.508,0,1,0,2.509,2.531A2.5,2.5,0,0,0,763.064,1884.459Zm-182.249-6.715a2.723,2.723,0,0,0,3.652-.037,2.674,2.674,0,0,0,.356-3.543c-.362-.051-3.749-.065-4.4-.018A2.687,2.687,0,0,0,580.815,1877.744Zm139.611,20.514a2.5,2.5,0,1,0-2.521,2.47A2.5,2.5,0,0,0,720.425,1898.258Zm25.721-8.106a2.5,2.5,0,1,0,2.468,2.517A2.5,2.5,0,0,0,746.147,1890.152Zm-107.125,10.571a2.492,2.492,0,1,0-.019-4.984,2.492,2.492,0,0,0,.019,4.984Zm-42.549-13.756a2.493,2.493,0,0,0-4.985,0,2.493,2.493,0,0,0,4.985,0Zm14.335,8.164a2.481,2.481,0,1,0-2.472-2.5A2.483,2.483,0,0,0,610.807,1895.131Zm112.765.649a2.422,2.422,0,0,0-2.43,2.44,2.457,2.457,0,1,0,4.914,0A2.429,2.429,0,0,0,723.572,1895.779Zm-90.115.01a2.415,2.415,0,0,0-2.471,2.436,2.445,2.445,0,1,0,4.891.006A2.413,2.413,0,0,0,633.457,1895.789Zm148.88-14.4a2.443,2.443,0,0,0-2.373-2.536,2.442,2.442,0,0,0-.143,4.881A2.455,2.455,0,0,0,782.337,1881.387Zm-4.249-3.76a2.626,2.626,0,0,0,3.568.037,2.593,2.593,0,0,0,.337-3.5c-.4-.054-3.8-.054-4.2,0A2.558,2.558,0,0,0,778.088,1877.627Zm-26.387,12.6a2.419,2.419,0,1,0,2.409,2.435A2.407,2.407,0,0,0,751.7,1890.23Zm-176.453-12.621a2.613,2.613,0,0,0,3.628-.043,2.531,2.531,0,0,0,.2-3.427H575A2.563,2.563,0,0,0,575.248,1877.609Zm195.807,9.333a2.419,2.419,0,0,0-4.838.029,2.419,2.419,0,1,0,4.838-.029Zm-194.008-8.058a2.416,2.416,0,0,0-2.414,2.427,2.409,2.409,0,1,0,4.818-.036A2.415,2.415,0,0,0,577.046,1878.884Zm28.187,11.362a2.4,2.4,0,1,0,2.4,2.4A2.393,2.393,0,0,0,605.233,1890.246Zm123.948,5.594a2.39,2.39,0,0,0-2.4,2.347,2.417,2.417,0,0,0,2.369,2.441,2.391,2.391,0,0,0,2.418-2.382A2.363,2.363,0,0,0,729.181,1895.84Zm-101.435,4.778a2.387,2.387,0,1,0-2.38-2.42A2.373,2.373,0,0,0,627.747,1900.619Zm-37.056-13.64a2.392,2.392,0,1,0-2.415,2.38A2.387,2.387,0,0,0,590.69,1886.979Zm192.635-10.132a2.4,2.4,0,0,0,2.282,1.375,2.514,2.514,0,0,0,2.142-3.781.572.572,0,0,0-.573-.323c-1.1.014-2.193.005-3.29.006-.079,0-.158.007-.258.013A2.471,2.471,0,0,0,783.325,1876.846ZM734.84,1895.9a2.333,2.333,0,1,0,2.353,2.315A2.312,2.312,0,0,0,734.84,1895.9Zm22.544-5.576a2.33,2.33,0,1,0,2.309,2.317A2.33,2.33,0,0,0,757.384,1890.319Zm25.866-9.04a2.317,2.317,0,1,0,4.634,0,2.317,2.317,0,0,0-4.634,0Zm-213.638-3.806a2.47,2.47,0,0,0,3.64-3.332h-3.781A2.412,2.412,0,0,0,569.612,1877.473Zm50.145,20.725a2.316,2.316,0,1,0,2.333-2.282A2.316,2.316,0,0,0,619.758,1898.2Zm-20.188-7.86a2.312,2.312,0,1,0,2.287,2.326A2.288,2.288,0,0,0,599.57,1890.338Zm177.045-3.361a2.31,2.31,0,1,0-2.315,2.3A2.3,2.3,0,0,0,776.615,1886.977Zm-90.162,16.939a2.3,2.3,0,1,0-4.608-.022,2.3,2.3,0,0,0,4.608.022Zm-5.684.01a2.307,2.307,0,1,0-4.614-.042,2.307,2.307,0,0,0,4.614.042Zm11.259-.048a2.3,2.3,0,0,0-4.605.03,2.3,2.3,0,1,0,4.605-.03Zm-16.939.023a2.31,2.31,0,0,0-2.317-2.3,2.286,2.286,0,0,0-2.277,2.284,2.256,2.256,0,0,0,2.285,2.313A2.282,2.282,0,0,0,675.09,1903.9ZM571.4,1879a2.3,2.3,0,1,0,2.247,2.313A2.29,2.29,0,0,0,571.4,1879Zm95.818,22.607a2.309,2.309,0,0,0-2.308,2.307,2.276,2.276,0,0,0,2.325,2.277,2.253,2.253,0,0,0,2.25-2.3A2.284,2.284,0,0,0,667.22,1901.607Zm-84.571-16.926a2.288,2.288,0,1,0,2.254,2.307A2.283,2.283,0,0,0,582.649,1884.68ZM695.4,1901.612a2.288,2.288,0,1,0,2.284,2.284A2.292,2.292,0,0,0,695.4,1901.612Zm-31.6,2.31a2.282,2.282,0,1,0-2.3,2.259A2.271,2.271,0,0,0,663.805,1903.922Zm76.608-7.966a2.274,2.274,0,1,0,2.293,2.263A2.3,2.3,0,0,0,740.413,1895.956Zm-39.4,5.685a2.263,2.263,0,1,0,2.229,2.28A2.276,2.276,0,0,0,701.009,1901.64Zm-82.271-3.393a2.219,2.219,0,0,0-2.226-2.273,2.252,2.252,0,1,0-.039,4.5A2.221,2.221,0,0,0,618.738,1898.248Zm37.215,3.4a2.252,2.252,0,1,0,2.248,2.259A2.27,2.27,0,0,0,655.953,1901.651Zm132.911-25.25a2.272,2.272,0,0,0,1.909,1.656,2.241,2.241,0,0,0,2.377-1.063,2.322,2.322,0,0,0,.006-2.571.55.55,0,0,0-.54-.3c-1,.014-2,.005-3.005.006-.079,0-.157.009-.269.017A2.325,2.325,0,0,0,788.865,1876.4ZM706.7,1901.667a2.258,2.258,0,0,0-2.274,2.219,2.229,2.229,0,1,0,4.458.037A2.249,2.249,0,0,0,706.7,1901.667Zm-143.236-25.5a2.362,2.362,0,1,0,4.307-1.732.585.585,0,0,0-.581-.317c-.954.015-1.91.005-2.865.006-.095,0-.19.009-.318.016A2.345,2.345,0,0,0,563.467,1876.167Zm199.591,14.252a2.23,2.23,0,1,0,2.228,2.211A2.226,2.226,0,0,0,763.058,1890.419Zm-115.01,13.465a2.218,2.218,0,1,0,2.229-2.2A2.212,2.212,0,0,0,648.048,1903.884Zm-54.068-13.441a2.206,2.206,0,1,0,2.209,2.219A2.2,2.2,0,0,0,593.98,1890.443Zm116.058,13.434a2.2,2.2,0,1,0,2.217-2.177A2.21,2.21,0,0,0,710.038,1903.878Zm-63.159.008a2.193,2.193,0,1,0-2.172,2.206A2.187,2.187,0,0,0,646.88,1903.886Zm144.25-24.78a2.188,2.188,0,1,0,2.206,2.165A2.2,2.2,0,0,0,791.129,1879.106Zm-11.255,5.67a2.189,2.189,0,1,0,2.2,2.176A2.2,2.2,0,0,0,779.874,1884.776Zm-33.766,11.263a2.192,2.192,0,1,0,2.187,2.184A2.17,2.17,0,0,0,746.108,1896.039Zm-135.276.02a2.147,2.147,0,0,0-2.189,2.175,2.173,2.173,0,1,0,4.346-.012A2.159,2.159,0,0,0,610.833,1896.059Zm-42.892-14.74a2.163,2.163,0,0,0-4.325-.081,2.163,2.163,0,1,0,4.325.081Zm9.126,3.486a2.164,2.164,0,1,0,2.134,2.177A2.17,2.17,0,0,0,577.066,1884.8Zm138.7,19.092a2.154,2.154,0,1,0,2.176-2.146A2.166,2.166,0,0,0,715.765,1903.9Zm-74.613.047a2.142,2.142,0,1,0-2.154,2.109A2.15,2.15,0,0,0,641.153,1903.943Zm157.227-29.8c-.986-.006-1.973-.008-2.959-.018a.42.42,0,0,0-.359.195,2.251,2.251,0,0,0,1.742,3.64,2.22,2.22,0,0,0,2.084-1.341,2.192,2.192,0,0,0-.463-2.459A.106.106,0,0,0,798.38,1874.141Zm-29.731,16.379a2.129,2.129,0,1,0,2.111,2.133A2.123,2.123,0,0,0,768.648,1890.52Zm-209.184-12.683a2.222,2.222,0,0,0,2.439-3.43.61.61,0,0,0-.554-.289c-.843.015-1.687.005-2.529.006-.094,0-.189.013-.278.02A2.216,2.216,0,0,0,559.464,1877.837Zm194.334,20.4a2.1,2.1,0,1,0-2.1,2.1A2.115,2.115,0,0,0,753.8,1898.239Zm-30.183,3.571a2.1,2.1,0,1,0-.037,4.19,2.1,2.1,0,0,0,.037-4.19ZM590.4,1892.67a2.1,2.1,0,1,0-2.108,2.074A2.082,2.082,0,0,0,590.4,1892.67Zm14.815,3.473a2.088,2.088,0,1,0,2.1,2.074A2.078,2.078,0,0,0,605.211,1896.143Zm30.305,7.76a2.083,2.083,0,1,0-2.092,2.091A2.092,2.092,0,0,0,635.516,1903.9ZM783.5,1886.914a2.068,2.068,0,1,0,2.109-2.023A2.07,2.07,0,0,0,783.5,1886.914Zm15.37-5.6a2.044,2.044,0,0,0-2.05-2.069,2.049,2.049,0,0,0,.011,4.1A2.049,2.049,0,0,0,798.873,1881.31ZM727.137,1903.9a2.039,2.039,0,1,0,2.044-2.031A2.046,2.046,0,0,0,727.137,1903.9Zm-97.361,0a2.025,2.025,0,0,0-1.992-2.025,2.056,2.056,0,0,0-2.061,2.008,2.026,2.026,0,0,0,2.02,2.041A2,2,0,0,0,629.775,1903.9Zm-56.39-16.957a2.027,2.027,0,0,0-4.054.024,2.027,2.027,0,1,0,4.054-.024Zm229.142-12.821c-.4,0-.8,0-1.195,0a.463.463,0,0,0-.378.163,2.019,2.019,0,0,0-.484,1.952,2.048,2.048,0,0,0,2.228,1.552,1.955,1.955,0,0,0,1.752-1.283,2.034,2.034,0,0,0-.363-2.19.533.533,0,0,0-.46-.2c-.367.011-.733,0-1.1,0ZM774.3,1890.635a2.014,2.014,0,1,0,.017,4.029,2.014,2.014,0,0,0-.017-4.029Zm-18.936,7.559a2.007,2.007,0,1,0,2.03-1.969A2.005,2.005,0,0,0,755.366,1898.194ZM560.117,1883.3a2.022,2.022,0,0,0,1.992-2.029,2,2,0,0,0-2.021-1.99,1.974,1.974,0,0,0-1.982,2.02A2,2,0,0,0,560.117,1883.3Zm-3.719-6.72a2.013,2.013,0,0,0-.306-2.232.57.57,0,0,0-.492-.233c-.7.01-1.4.018-2.1,0a.671.671,0,0,0-.6.3,2.074,2.074,0,1,0,3.5,2.168Zm41.165,21.628a1.991,1.991,0,1,0,1.985-1.976A2,2,0,0,0,597.563,1898.212Zm-14.905-7.547a1.983,1.983,0,1,0,1.95,2.048A1.99,1.99,0,0,0,582.658,1890.664ZM736.829,1903.9a1.987,1.987,0,0,0-1.942-1.968,1.971,1.971,0,1,0,1.942,1.968Zm-114.776,1.966a1.96,1.96,0,1,0-1.941-1.955A1.962,1.962,0,0,0,622.053,1905.868Zm171.019-18.911a1.925,1.925,0,1,0-1.934,1.934A1.914,1.914,0,0,0,793.072,1886.957Zm-116.519,22.522a1.909,1.909,0,0,0,3.818.039,1.909,1.909,0,0,0-3.818-.039Zm-3.754,1.91a1.9,1.9,0,1,0,0-3.8,1.9,1.9,0,1,0,0,3.8Zm88.356-13.146a1.9,1.9,0,1,0,1.894-1.92A1.894,1.894,0,0,0,761.155,1898.242Zm-18.818,5.695a1.9,1.9,0,1,0-1.908,1.863A1.9,1.9,0,0,0,742.337,1903.937Zm67.55-27.49a1.958,1.958,0,0,0-.46-2.15.574.574,0,0,0-.425-.175c-.6.005-1.208.007-1.812,0a.611.611,0,0,0-.463.2,1.947,1.947,0,1,0,3.16,2.129Zm-122.058,33.005a1.9,1.9,0,1,0,1.9-1.855A1.889,1.889,0,0,0,687.828,1909.452Zm-5.582.06a1.9,1.9,0,1,0,1.882-1.922A1.885,1.885,0,0,0,682.246,1909.512Zm-114.572-22.53a1.894,1.894,0,1,0-1.894,1.875A1.9,1.9,0,0,0,567.674,1886.982Zm236.724-5.664a1.893,1.893,0,1,0-1.908,1.855A1.881,1.881,0,0,0,804.4,1881.318Zm-139.085,28.158a1.891,1.891,0,1,0,3.781.018,1.891,1.891,0,0,0-3.781-.018Zm30.106-1.872a1.881,1.881,0,1,0,1.866,1.9A1.874,1.874,0,0,0,695.42,1907.6Zm-101.388-11.255a1.842,1.842,0,0,0-1.93,1.786,1.871,1.871,0,0,0,1.8,1.973,1.907,1.907,0,0,0,1.962-1.814A1.879,1.879,0,0,0,594.031,1896.349Zm67.464,11.262a1.858,1.858,0,0,0-1.848,1.872,1.837,1.837,0,0,0,1.888,1.874,1.863,1.863,0,0,0,1.875-1.891A1.891,1.891,0,0,0,661.5,1907.611Zm120.275-14.927a1.883,1.883,0,1,0-1.917,1.84A1.863,1.863,0,0,0,781.77,1892.684Zm-163.4,11.226a1.874,1.874,0,0,0-3.748-.029,1.874,1.874,0,1,0,3.748.029Zm-68.237-29.6a.59.59,0,0,0-.424-.183c-.573,0-1.146.005-1.72,0a.6.6,0,0,0-.428.175,1.884,1.884,0,0,0-.607,1.111,1.914,1.914,0,0,0,1.693,2.2,1.892,1.892,0,0,0,2.109-1.768A1.976,1.976,0,0,0,550.133,1874.306Zm150.873,33.325a1.853,1.853,0,0,0-.048,3.706,1.853,1.853,0,1,0,.048-3.706ZM577.017,1890.8a1.853,1.853,0,1,0,1.874,1.832A1.855,1.855,0,0,0,577.017,1890.8Zm-20.635-9.5a1.856,1.856,0,0,0-1.849-1.862,1.853,1.853,0,0,0-.018,3.706A1.859,1.859,0,0,0,556.381,1881.3Zm99.576,30.022a1.81,1.81,0,0,0,1.833-1.81,1.842,1.842,0,1,0-3.685-.026A1.8,1.8,0,0,0,655.958,1911.32Zm50.7-3.649a1.812,1.812,0,1,0,1.824,1.812A1.8,1.8,0,0,0,706.659,1907.671Zm41.26-3.786a1.8,1.8,0,1,0-1.8,1.829A1.791,1.791,0,0,0,747.919,1903.885Zm-99.452,5.586a1.8,1.8,0,0,0,3.608.027,1.8,1.8,0,0,0-3.608-.027Zm120.177-9.45a1.792,1.792,0,1,0-1.807-1.78A1.8,1.8,0,0,0,768.644,1900.021Zm-159.625,3.9a1.8,1.8,0,1,0,1.785-1.794A1.8,1.8,0,0,0,609.02,1903.917Zm105,5.6a1.776,1.776,0,1,0-1.79,1.736A1.759,1.759,0,0,0,714.017,1909.522Zm-67.557-.041a1.771,1.771,0,1,0-1.753,1.769A1.748,1.748,0,0,0,646.46,1909.481ZM796.835,1885.2a1.772,1.772,0,1,0,1.755,1.77A1.772,1.772,0,0,0,796.835,1885.2Zm-208.564,11.273a1.756,1.756,0,1,0,1.783,1.741A1.751,1.751,0,0,0,588.272,1896.472Zm197.3-5.568a1.744,1.744,0,1,0,1.739,1.725A1.747,1.747,0,0,0,785.573,1890.9Zm27.694-16.782a.8.8,0,0,0-.611.216,1.72,1.72,0,0,0-.593,1.844,1.758,1.758,0,0,0,1.6,1.294,1.767,1.767,0,0,0,1.218-3.134.83.83,0,0,0-.61-.22c-.174.013-.351,0-.526,0S813.426,1874.134,813.267,1874.122Zm-251.436,12.867a1.728,1.728,0,1,0-3.455-.037,1.728,1.728,0,1,0,3.455.037Zm154.362,22.495a1.728,1.728,0,1,0,1.729-1.723A1.711,1.711,0,0,0,716.193,1909.483Zm91.89-29.91a1.71,1.71,0,0,0-1.716,1.733,1.718,1.718,0,0,0,3.435-.007A1.7,1.7,0,0,0,808.083,1879.573ZM637.3,1909.509a1.713,1.713,0,1,0,1.712-1.733A1.682,1.682,0,0,0,637.3,1909.509Zm116.1-5.587a1.707,1.707,0,1,0-3.413-.005,1.707,1.707,0,0,0,3.413.005Zm-182.027-12.976a1.7,1.7,0,1,0,1.689,1.706A1.689,1.689,0,0,0,571.376,1890.946Zm-28.53-16.824a1.045,1.045,0,0,0-.891.363,1.733,1.733,0,0,0-.357,1.937,1.643,1.643,0,0,0,1.6,1,1.587,1.587,0,0,0,1.535-1.013,1.669,1.669,0,0,0-.3-1.864,1.067,1.067,0,0,0-.962-.42,2.421,2.421,0,0,1-.286,0A2.58,2.58,0,0,1,542.845,1874.122Zm62.432,28.1a1.686,1.686,0,1,0,1.64,1.7A1.678,1.678,0,0,0,605.277,1902.223Zm120,7.276a1.682,1.682,0,1,0-1.685,1.662A1.691,1.691,0,0,0,725.281,1909.5Zm-178.118-28.221a1.679,1.679,0,1,0,3.357,0,1.679,1.679,0,0,0-3.357,0Zm86.244,29.872a1.664,1.664,0,1,0-1.639-1.7A1.671,1.671,0,0,0,633.407,1911.15ZM775.974,1898.2a1.661,1.661,0,1,0-1.646,1.689A1.631,1.631,0,0,0,775.974,1898.2Zm-194.985.038a1.626,1.626,0,0,0,3.253,0,1.626,1.626,0,1,0-3.253,0Zm176.423,4.068a1.6,1.6,0,1,0,1.567,1.653A1.6,1.6,0,0,0,757.412,1902.305Zm-26.64,7.177a1.592,1.592,0,1,0-1.6,1.6A1.575,1.575,0,0,0,730.773,1909.482Zm70.137-22.535a1.6,1.6,0,1,0,3.195,0,1.6,1.6,0,0,0-3.195,0Zm-171.561,22.544a1.609,1.609,0,0,0-1.616-1.6,1.589,1.589,0,1,0,.036,3.178A1.6,1.6,0,0,0,629.349,1909.491Zm163.394-16.809a1.586,1.586,0,0,0-1.595-1.617,1.584,1.584,0,0,0-.019,3.168A1.587,1.587,0,0,0,792.743,1892.682Zm26.615-18.549a1.578,1.578,0,1,0-.025,3.156,1.578,1.578,0,1,0,.025-3.156Zm-219.782,28.2a1.564,1.564,0,0,0-1.6,1.557,1.584,1.584,0,1,0,1.6-1.557Zm-33.791-8.135a1.551,1.551,0,1,0-1.558-1.544A1.549,1.549,0,0,0,565.786,1894.2Zm-11.266-8.779a1.55,1.55,0,0,0,.007,3.1,1.55,1.55,0,1,0-.007-3.1Zm257.724-4.138a1.522,1.522,0,1,0,1.514-1.513A1.509,1.509,0,0,0,812.244,1881.282Zm-75.866,28.212a1.523,1.523,0,1,0-1.521,1.507A1.5,1.5,0,0,0,736.378,1909.494Zm-198.8-35.3a1.52,1.52,0,1,0,1.528,1.5A1.513,1.513,0,0,0,537.577,1874.19ZM779.9,1896.717a1.491,1.491,0,0,0-1.514,1.514,1.506,1.506,0,1,0,1.514-1.514Zm-159.32,12.765a1.5,1.5,0,0,0,2.99.055,1.5,1.5,0,1,0-2.99-.055Zm-45.022-11.242a1.494,1.494,0,0,0,1.471,1.462,1.471,1.471,0,0,0,1.484-1.442,1.478,1.478,0,1,0-2.955-.02Zm186.022,5.637a1.473,1.473,0,1,0,2.945.019,1.473,1.473,0,0,0-2.945-.019Zm-216.942-22.555a1.474,1.474,0,1,0-1.484,1.439A1.472,1.472,0,0,0,544.636,1881.322Zm49.383,21.142a1.444,1.444,0,1,0,1.4,1.465A1.435,1.435,0,0,0,594.019,1902.464Zm144.987,6.991a1.43,1.43,0,1,0,1.448-1.394A1.415,1.415,0,0,0,739.006,1909.455Zm70.485-22.491a1.4,1.4,0,1,0-1.384,1.417A1.411,1.411,0,0,0,809.49,1886.964ZM617.9,1909.5a1.4,1.4,0,1,0-1.413,1.377A1.4,1.4,0,0,0,617.9,1909.5Zm178.942-18.258a1.4,1.4,0,1,0,1.38,1.407A1.389,1.389,0,0,0,796.844,1891.247Zm-124.052,22.525a1.393,1.393,0,1,0,1.379,1.414A1.4,1.4,0,0,0,672.791,1913.772Zm12.74,1.37a1.388,1.388,0,1,0-1.376,1.417A1.393,1.393,0,0,0,685.532,1915.142Zm-7.068-1.37a1.393,1.393,0,0,0-.015,2.785,1.393,1.393,0,1,0,.015-2.785Zm11.284.019a1.376,1.376,0,1,0-.03,2.751,1.4,1.4,0,0,0,1.383-1.364A1.376,1.376,0,0,0,689.747,1913.791Zm-23.919,1.323a1.378,1.378,0,1,0,1.417-1.325A1.388,1.388,0,0,0,665.829,1915.114Zm-105.708-21.1a1.364,1.364,0,1,0-1.385-1.343A1.368,1.368,0,0,0,560.121,1894.011Zm133.925,21.116a1.347,1.347,0,0,0,1.284,1.4,1.361,1.361,0,1,0,.123-2.72A1.336,1.336,0,0,0,694.045,1915.127ZM823.674,1875.7a1.348,1.348,0,1,0,2.695-.023,1.339,1.339,0,0,0-1.356-1.312A1.353,1.353,0,0,0,823.674,1875.7Zm-162.157,38.123a1.346,1.346,0,1,0,1.354,1.358A1.347,1.347,0,0,0,661.517,1913.822Zm-112.608-28.2a1.347,1.347,0,1,0,1.276,1.4A1.355,1.355,0,0,0,548.91,1885.626Zm235.312,12.613a1.346,1.346,0,1,0,1.357-1.36A1.348,1.348,0,0,0,784.221,1898.239Zm-14.265,5.663a1.327,1.327,0,1,0-1.332,1.333A1.308,1.308,0,0,0,769.957,1903.9Zm-23.852,4.26a1.326,1.326,0,1,0,1.335,1.326A1.309,1.309,0,0,0,746.1,1908.162Zm-91.47,6.971a1.309,1.309,0,1,0,2.618.039,1.3,1.3,0,0,0-1.287-1.324A1.31,1.31,0,0,0,654.635,1915.133Zm46.355-1.285a1.31,1.31,0,0,0-1.323,1.33,1.311,1.311,0,1,0,2.621-.028A1.3,1.3,0,0,0,700.99,1913.848Zm119.661-32.512a1.306,1.306,0,0,0-2.61-.1,1.306,1.306,0,0,0,2.61.1ZM588.307,1902.61a1.3,1.3,0,1,0,1.287,1.311A1.293,1.293,0,0,0,588.307,1902.61Zm-18.239-4.384a1.27,1.27,0,0,0,1.294,1.3,1.283,1.283,0,0,0,1.3-1.3,1.3,1.3,0,1,0-2.591,0Zm40.757,9.961a1.3,1.3,0,1,0-.026,2.6,1.3,1.3,0,0,0,.026-2.6Zm-78.861-33.761a1.29,1.29,0,1,0-.075,2.579,1.29,1.29,0,0,0,.075-2.579Zm173.4,40.782a1.309,1.309,0,0,0,1.313,1.247,1.291,1.291,0,0,0,1.268-1.332,1.292,1.292,0,1,0-2.582.085Zm-55.115,1.233a1.274,1.274,0,1,0-1.252-1.3A1.291,1.291,0,0,0,650.249,1916.439Zm-111.411-35.145a1.254,1.254,0,1,0-1.247,1.248A1.25,1.25,0,0,0,538.838,1881.295Zm173.386,32.63a1.239,1.239,0,0,0,.01,2.478,1.239,1.239,0,1,0-.01-2.478Zm40.681-4.441a1.2,1.2,0,0,0-1.2-1.219,1.217,1.217,0,1,0,0,2.433A1.18,1.18,0,0,0,752.9,1909.484Zm-107.013,5.653a1.215,1.215,0,0,0-1.192-1.186,1.232,1.232,0,0,0-1.221,1.213,1.2,1.2,0,0,0,1.223,1.2A1.182,1.182,0,0,0,645.892,1915.137Zm73.213.05a1.2,1.2,0,0,0-1.152-1.22,1.222,1.222,0,0,0-1.233,1.2,1.194,1.194,0,0,0,1.186,1.184A1.17,1.17,0,0,0,719.1,1915.187Zm83.425-23.731a1.192,1.192,0,1,0-.022,2.384,1.192,1.192,0,0,0,.022-2.384ZM604.056,1909.5a1.177,1.177,0,0,0,2.353-.017,1.184,1.184,0,0,0-1.183-1.187A1.2,1.2,0,0,0,604.056,1909.5Zm170.274-4.419a1.175,1.175,0,1,0-1.193-1.171A1.172,1.172,0,0,0,774.33,1905.086Zm-219.783-13.6a1.163,1.163,0,1,0-.025,2.325,1.163,1.163,0,0,0,.025-2.325Zm235.447,6.754a1.147,1.147,0,0,0,1.17,1.141,1.153,1.153,0,1,0-1.17-1.141Zm24.93-11.273a1.159,1.159,0,1,0-2.318.029,1.159,1.159,0,0,0,2.318-.029Zm-271.762-1.139a1.14,1.14,0,1,0,1.137,1.117A1.131,1.131,0,0,0,543.161,1885.828Zm95.862,28.2a1.137,1.137,0,1,0,1.121,1.127A1.132,1.132,0,0,0,639.024,1914.028Zm84.579,0a1.137,1.137,0,1,0,1.133,1.117A1.138,1.138,0,0,0,723.6,1914.028Zm-139.866-10.12a1.117,1.117,0,1,0-1.117,1.119A1.112,1.112,0,0,0,583.737,1903.908Zm174.744,5.591a1.1,1.1,0,0,0-1.116-1.115,1.1,1.1,0,0,0,.021,2.2A1.1,1.1,0,0,0,758.481,1909.5Zm-193.792-11.271a1.057,1.057,0,0,0,1.085,1.088,1.081,1.081,0,0,0,1.109-1.121,1.112,1.112,0,0,0-1.117-1.077A1.091,1.091,0,0,0,564.689,1898.229Zm265.945-23.589a1.074,1.074,0,1,0-.038,2.148,1.074,1.074,0,0,0,.038-2.148Zm-197.241,39.48a1.053,1.053,0,0,0-1.013,1.06,1.066,1.066,0,0,0,1.043,1.035,1.049,1.049,0,0,0,1.054-1.065A1.036,1.036,0,0,0,633.392,1914.12Zm146.5-11.238a1.028,1.028,0,0,0-1.029,1.027,1.042,1.042,0,0,0,1.03,1.028,1.027,1.027,0,0,0,0-2.055Zm45.137-22.619a1.024,1.024,0,1,0,0,2.049,1,1,0,0,0,1.025-1.022A1.012,1.012,0,0,0,825.026,1880.262ZM600.573,1909.5a1.015,1.015,0,0,0-1.038-1.021,1.009,1.009,0,0,0,.022,2.017A1.019,1.019,0,0,0,600.573,1909.5Zm129.606,5.245a1.062,1.062,0,0,0-.51-.547,1.1,1.1,0,0,0-1.34.289,1,1,0,0,0,.037,1.339,17.873,17.873,0,0,0,1.825-.309A.933.933,0,0,0,730.179,1914.743Zm66.648-17.465a.95.95,0,1,0,.953.939A.955.955,0,0,0,796.827,1897.278Zm-169.058,16.936a.949.949,0,1,0,.933.954A.958.958,0,0,0,627.769,1914.214Zm181.265-21.562a.948.948,0,1,0-1.9.018.948.948,0,0,0,1.9-.018Zm-231.958,10.337a.908.908,0,0,0-.965.906.932.932,0,0,0,.887.943.916.916,0,0,0,.96-.913A.893.893,0,0,0,577.076,1902.989Zm-16.089-4.766a.878.878,0,0,0-.88-.875.9.9,0,0,0-.9.908.914.914,0,0,0,.912.855A.886.886,0,0,0,560.986,1898.223Zm258.386-12.137a.884.884,0,1,0-.03,1.768.884.884,0,0,0,.03-1.768Zm-270.251,7.348a.269.269,0,0,0,.349-.046.939.939,0,0,0,.307-.988.921.921,0,0,0-.756-.7.9.9,0,0,0-.927.345,2.909,2.909,0,0,0-.244.489A10.932,10.932,0,0,0,549.121,1893.435Zm45.689,16.05a.835.835,0,1,0-.846.834A.824.824,0,0,0,594.81,1909.485Zm27.285,4.847a.835.835,0,1,0,.811.834A.83.83,0,0,0,622.1,1914.331Zm140.456-4.685a7.907,7.907,0,0,1,1.193-.276c.1-.006.185-.1.275-.154a1.012,1.012,0,0,0-1.246-.706.991.991,0,0,0-.59.454.76.76,0,0,0-.1.67A.738.738,0,0,0,762.552,1909.646Zm-190.482-5.771a.709.709,0,1,0-.7.744A.714.714,0,0,0,572.07,1903.875ZM836.328,1875a.692.692,0,0,0-.748.689.7.7,0,0,0,.659.737.733.733,0,0,0,.759-.694A.725.725,0,0,0,836.328,1875Zm-5.7,5.584a.7.7,0,1,0-.008,1.407.688.688,0,0,0,.687-.7A.7.7,0,0,0,830.63,1880.585Zm-214.091,33.88a.7.7,0,1,0-.094,1.4.7.7,0,1,0,.094-1.4Zm-28.23-5.635a.656.656,0,0,0-.047,1.31.656.656,0,1,0,.047-1.31Zm79.562,12.079a.452.452,0,0,0,.025-.14.7.7,0,0,0-.731-.708.707.707,0,0,0-.65.742c.019.212.118.319.328.324.3.008.6,0,.926,0C667.82,1921.022,667.85,1920.968,667.871,1920.909Zm-6.32.339c.047,0,.1,0,.143,0a.411.411,0,0,0,.434-.356.61.61,0,0,0-.221-.639.643.643,0,0,0-.674-.056.582.582,0,0,0-.313.55c.005.313.165.543.489.5a1.367,1.367,0,0,1,.142,0Zm11.619-1.1a.7.7,0,0,0-.838.058.954.954,0,0,0-.225.352.415.415,0,0,0,.089.47,6.386,6.386,0,0,0,1.235-.034C673.519,1920.563,673.441,1920.32,673.169,1920.148Zm-62.331-5.57a.584.584,0,0,0-.608.588.573.573,0,0,0,.562.583.579.579,0,0,0,.61-.583A.591.591,0,0,0,610.839,1914.578Zm123.275.392a2.143,2.143,0,0,0,.231-.044c.092-.019.183-.043.277-.055.313-.038.626-.07.939-.108a.153.153,0,0,0,.082-.257,1.017,1.017,0,0,0-1.741.307.387.387,0,0,0,.019.141A1.056,1.056,0,0,0,734.114,1914.969Zm-54.935,5.79a.587.587,0,0,0-.21-.549.673.673,0,0,0-.52-.2.7.7,0,0,0-.514.214.579.579,0,0,0-.175.553A3.86,3.86,0,0,0,679.179,1920.76Zm-23.244.37c.095,0,.189.005.283,0a.3.3,0,0,0,.313-.283.575.575,0,0,0-.279-.6.531.531,0,0,0-.581-.016.57.57,0,0,0-.305.59c.021.212.113.3.334.314.078.005.157,0,.236,0Zm-5.4-.828a.5.5,0,0,0-.613.063.657.657,0,0,0-.16.28.316.316,0,0,0,.1.36,2.37,2.37,0,0,0,.853-.009C650.811,1920.613,650.764,1920.449,650.538,1920.3Zm135.571-16.937c.018-.006.022-.053.044-.112a.864.864,0,0,0-1.437.5A5.137,5.137,0,0,0,786.109,1903.365Zm-101.3,17.1a.681.681,0,0,0-.7-.491.77.77,0,0,0-.472.2c-.091.082-.195.164-.157.313A3.465,3.465,0,0,0,684.81,1920.467Zm-79.55-5.728a.429.429,0,1,0-.051.856.428.428,0,0,0,.458-.428A.417.417,0,0,0,605.26,1914.739Zm208.665-22.808a.73.73,0,0,0-.547.087.541.541,0,0,0-.251.722,7.983,7.983,0,0,0,1.127-.555A.357.357,0,0,0,813.925,1891.932Zm-230.9,17.434a.419.419,0,0,0-.718-.178.137.137,0,0,0,.026.236c.219.065.414.239.7.16A.722.722,0,0,0,583.023,1909.366Zm62.1,11.337a.3.3,0,0,0-.163-.342.57.57,0,0,0-.306-.094.6.6,0,0,0-.291.137.247.247,0,0,0-.1.3A2.578,2.578,0,0,0,645.123,1920.7Zm44.083-.469a3.768,3.768,0,0,1,.391-.084c.14-.013.281,0,.534,0C689.717,1919.873,689.5,1919.9,689.206,1920.234ZM802.1,1897.693c.113-.018.225-.032.285-.167C802.146,1897.546,802.146,1897.546,802.1,1897.693Zm-163.047,22.688c-.013-.007-.027-.022-.038-.02a.291.291,0,0,0-.065.029l.038.021Z" transform="translate(476.386 -1155.728)" opacity="0.5" fill="url(#a)"/></g></svg>