<svg xmlns="http://www.w3.org/2000/svg" width="21" height="21" viewBox="0 0 21 21"><g transform="translate(-24 -19.5)"><path d="M11.25-19.5a2.25,2.25,0,0,1,2.25,2.25V-.75A2.251,2.251,0,0,1,11.25,1.5H9.75A2.251,2.251,0,0,1,7.5-.75v-16.5A2.25,2.25,0,0,1,9.75-19.5Zm0,1.5H9.75a.751.751,0,0,0-.75.75V-.75A.752.752,0,0,0,9.75,0h1.5A.752.752,0,0,0,12-.75v-16.5A.751.751,0,0,0,11.25-18Zm-7.5,7.5A2.251,2.251,0,0,1,6-8.25v7.5A2.251,2.251,0,0,1,3.75,1.5H2.25A2.25,2.25,0,0,1,0-.75v-7.5A2.25,2.25,0,0,1,2.25-10.5Zm0,1.5H2.25a.751.751,0,0,0-.75.75v7.5A.751.751,0,0,0,2.25,0h1.5A.751.751,0,0,0,4.5-.75v-7.5A.751.751,0,0,0,3.75-9ZM15-14.25a2.251,2.251,0,0,1,2.25-2.25h1.5A2.251,2.251,0,0,1,21-14.25V-.75A2.251,2.251,0,0,1,18.75,1.5h-1.5A2.251,2.251,0,0,1,15-.75Zm1.5,0V-.75a.752.752,0,0,0,.75.75h1.5a.752.752,0,0,0,.75-.75v-13.5a.752.752,0,0,0-.75-.75h-1.5A.752.752,0,0,0,16.5-14.25Z" transform="translate(24 39)" fill="#be2920"/></g></svg>